<svg width="498" height="131" viewBox="0 0 498 131" fill="none" xmlns="http://www.w3.org/2000/svg">
<g clip-path="url(#clip0_2001_2)">
<path d="M164.27 40.1021C164.27 39.5696 164.412 39.1555 164.696 38.8834C164.979 38.5994 165.358 38.4574 165.831 38.4219H201.153C202.288 38.4219 202.868 39.0017 202.868 40.1731V46.5155C202.868 46.9533 202.714 47.3437 202.418 47.6987C202.122 48.0537 201.697 48.2312 201.153 48.2312H175.081V62.8209H181.138C182.404 62.8209 183.717 62.8209 185.077 62.8328C186.437 62.8446 187.75 62.8564 189.016 62.8564H195.072C195.522 62.8564 195.9 62.9866 196.22 63.2351C196.539 63.4836 196.705 63.9095 196.705 64.4893V70.6897C196.705 71.1275 196.563 71.518 196.279 71.873C195.995 72.2279 195.605 72.4054 195.108 72.4054H175.07V91.042C175.07 92.0596 174.49 92.5684 173.319 92.5684H165.737C164.743 92.5211 164.246 92.0122 164.246 91.042V40.0903L164.27 40.1021Z" fill="#7821C8"/>
<path d="M211.645 40.0311C211.645 39.5933 211.798 39.2147 212.094 38.8952C212.39 38.5757 212.816 38.4219 213.36 38.4219H220.729C221.179 38.4219 221.557 38.5639 221.9 38.836C222.231 39.12 222.397 39.5105 222.397 40.0193V82.5816H245.677C246.126 82.5816 246.505 82.7354 246.824 83.0312C247.143 83.3389 247.309 83.7412 247.309 84.25V90.9236C247.309 91.3614 247.155 91.7401 246.859 92.0714C246.564 92.4027 246.161 92.5684 245.665 92.5684H213.277C212.189 92.5684 211.645 92.0359 211.645 90.9591V40.0193V40.0311Z" fill="#7821C8"/>
<path d="M252.621 65.5539C252.621 62.998 252.952 60.5368 253.627 58.1466C254.289 55.7682 255.247 53.5437 256.489 51.473C257.731 49.4022 259.21 47.5208 260.937 45.8169C262.664 44.113 264.58 42.6576 266.686 41.4625C268.791 40.2555 271.051 39.3208 273.476 38.6581C275.889 37.9955 278.42 37.6523 281.046 37.6523C283.672 37.6523 286.156 37.9837 288.581 38.6581C290.994 39.3326 293.265 40.2674 295.371 41.4625C297.477 42.6694 299.393 44.1248 301.132 45.8169C302.871 47.5208 304.349 49.4022 305.579 51.473C306.81 53.5437 307.756 55.7682 308.442 58.1466C309.128 60.525 309.471 63.0099 309.471 65.5894C309.471 68.1689 309.128 70.6301 308.442 72.9967C307.756 75.3632 306.81 77.5641 305.579 79.6348C304.349 81.7056 302.871 83.5751 301.132 85.2672C299.393 86.9593 297.477 88.4029 295.371 89.6098C293.265 90.8167 291.006 91.7397 288.581 92.4023C286.168 93.0531 283.637 93.3844 281.011 93.3844C278.385 93.3844 275.865 93.0531 273.44 92.4023C271.015 91.7515 268.756 90.8049 266.65 89.598C264.545 88.391 262.628 86.9356 260.901 85.2435C259.174 83.5515 257.708 81.6819 256.477 79.623C255.247 77.5641 254.301 75.3514 253.638 72.9848C252.964 70.6183 252.633 68.1453 252.633 65.5657L252.621 65.5539ZM263.362 65.4829C263.362 67.9441 263.811 70.2396 264.722 72.3814C265.621 74.5231 266.863 76.3808 268.436 77.9664C270.01 79.552 271.867 80.7944 274.02 81.7174C276.161 82.6403 278.491 83.1018 280.987 83.1018C283.483 83.1018 285.778 82.6403 287.919 81.7174C290.06 80.7944 291.929 79.5402 293.514 77.9664C295.099 76.3927 296.341 74.5231 297.252 72.3814C298.151 70.2396 298.612 67.9441 298.612 65.4829C298.612 63.0217 298.163 60.7616 297.252 58.6318C296.341 56.49 295.099 54.6323 293.514 53.0349C291.929 51.4375 290.06 50.1832 287.919 49.2602C285.778 48.3373 283.459 47.8758 280.987 47.8758C278.515 47.8758 276.161 48.3373 274.02 49.2602C271.879 50.1832 270.022 51.4375 268.436 53.0349C266.863 54.6323 265.621 56.49 264.722 58.6318C263.811 60.7735 263.362 63.0572 263.362 65.4829Z" fill="#7821C8"/>
<path d="M335.73 91.527C335.482 91.0419 335.245 90.5449 335.008 90.0361C334.772 89.5273 334.559 89.0303 334.358 88.5452C331.081 80.4279 327.816 72.3462 324.563 64.3117C321.31 56.2773 318.022 48.2074 314.734 40.1138C314.734 40.0192 314.71 39.9245 314.674 39.818C314.639 39.7234 314.615 39.6287 314.615 39.5222C314.615 38.7886 315.088 38.4336 316.035 38.4336H324.102C324.966 38.4336 325.593 38.9187 325.959 39.889L340.355 77.4816L354.301 39.5222C354.55 38.7886 355.07 38.4336 355.863 38.4336H364.309C364.9 38.4336 365.314 38.5401 365.539 38.7649C365.764 38.9897 365.87 39.2619 365.87 39.605V40.1138L358.288 59.484L365.314 77.4579L380.041 39.818C380.384 38.8951 381.059 38.4336 382.052 38.4336H389.824C390.415 38.4336 390.829 38.5401 391.066 38.7649C391.303 38.9897 391.421 39.2619 391.421 39.605C391.421 39.747 391.409 39.8535 391.385 39.9009V40.0428C387.884 48.5979 384.347 57.1175 380.751 65.5897C377.155 74.0619 373.606 82.5815 370.117 91.1365C370.093 91.2075 370.034 91.3258 369.951 91.5033C369.868 91.669 369.738 91.8346 369.584 92.0003C369.419 92.1541 369.23 92.2961 369.005 92.4144C368.78 92.5328 368.52 92.5919 368.224 92.5919H362.381C361.813 92.5919 361.375 92.4618 361.079 92.2133C360.784 91.953 360.594 91.669 360.523 91.3613C359.234 88.202 357.957 85.0663 356.679 81.9543C355.402 78.8423 354.112 75.7067 352.787 72.5473L345.572 90.2017C345.477 90.4739 345.359 90.746 345.217 91.0419C345.075 91.3377 344.921 91.598 344.732 91.8228C344.543 92.0595 344.33 92.237 344.105 92.3908C343.868 92.5328 343.608 92.6038 343.301 92.6038H337.457C337.007 92.6038 336.641 92.4973 336.357 92.2725C336.073 92.0476 335.872 91.811 335.742 91.5388L335.73 91.527Z" fill="#7821C8"/>
<path d="M440.393 42.3619C440.689 42.5275 440.937 42.7405 441.138 42.9772C441.339 43.2257 441.434 43.5097 441.434 43.8528C441.434 44.125 441.363 44.3971 441.209 44.6929L437.602 50.7039C437.176 51.2601 436.738 51.5441 436.265 51.5441C436.123 51.5441 435.945 51.5086 435.744 51.4494C435.543 51.3902 435.342 51.2956 435.153 51.1773C433.592 50.0886 431.912 49.2367 430.137 48.6214C428.363 48.0061 426.459 47.7103 424.448 47.7103C421.916 47.7103 419.598 48.1836 417.492 49.1184C415.387 50.0531 413.565 51.3192 412.027 52.9285C410.49 54.5377 409.295 56.4191 408.443 58.5845C407.591 60.7499 407.166 63.0691 407.166 65.554C407.166 68.0389 407.591 70.3108 408.443 72.4643C409.295 74.6179 410.49 76.4993 412.027 78.0967C413.565 79.7059 415.387 80.9602 417.492 81.895C419.598 82.8179 421.916 83.2794 424.448 83.2794C426.459 83.2794 428.375 82.9718 430.197 82.3683C432.018 81.7648 433.698 80.9129 435.236 79.8124C435.437 79.6704 435.638 79.5639 435.851 79.5166C436.064 79.4693 436.241 79.4338 436.395 79.4101C436.821 79.4101 437.247 79.6823 437.696 80.2147L441.375 86.3086C441.529 86.6044 441.6 86.8647 441.6 87.1132C441.6 87.4564 441.493 87.7285 441.28 87.9533C441.067 88.1663 440.831 88.3793 440.559 88.5686C438.228 90.0951 435.721 91.2902 433.024 92.1303C430.339 92.9704 427.5 93.3846 424.531 93.3846C421.905 93.3846 419.385 93.0532 416.96 92.4024C414.535 91.7516 412.276 90.805 410.17 89.5981C408.065 88.3912 406.148 86.9357 404.421 85.2436C402.694 83.5516 401.216 81.682 399.974 79.6231C398.732 77.5642 397.785 75.3515 397.111 72.985C396.437 70.6184 396.105 68.1454 396.105 65.5658C396.105 62.9863 396.437 60.5133 397.111 58.1467C397.785 55.7802 398.732 53.5556 399.974 51.4731C401.216 49.3905 402.694 47.5091 404.421 45.8052C406.148 44.1013 408.065 42.6459 410.17 41.4508C412.276 40.2438 414.535 39.309 416.96 38.6464C419.373 37.9838 421.905 37.6406 424.531 37.6406C427.476 37.6406 430.279 38.0429 432.929 38.8594C435.579 39.6759 438.075 40.8473 440.405 42.3737L440.393 42.3619Z" fill="#7821C8"/>
<path d="M451.561 40.0311C451.561 39.617 451.703 39.2502 451.986 38.9188C452.27 38.5875 452.661 38.4219 453.157 38.4219H460.562C460.976 38.4219 461.379 38.5757 461.745 38.8952C462.112 39.2147 462.301 39.5933 462.301 40.0311V58.9161H487.249V40.0311C487.249 39.5933 487.391 39.2147 487.698 38.8952C487.994 38.5757 488.384 38.4219 488.881 38.4219H496.179C496.676 38.4219 497.102 38.5639 497.457 38.836C497.812 39.1082 498.001 39.4987 498.001 39.9838V90.971C498.001 92.0359 497.422 92.5802 496.262 92.5802H488.893C487.805 92.5802 487.26 92.0477 487.26 90.971V68.903H462.313V90.971C462.313 92.0359 461.71 92.5802 460.491 92.5802H453.157C452.093 92.5802 451.561 92.0832 451.561 91.0893V40.0311Z" fill="#7821C8"/>
<path d="M58.2222 24.0441H72.7246C75.3506 24.0441 77.4916 21.8905 77.4916 19.2755V4.76858C77.4916 2.15355 75.3506 0 72.7246 0H58.2222C55.608 0 53.4552 2.15355 53.4552 4.76858V19.2755C53.4552 19.7133 53.5143 20.1511 53.6326 20.5653L47.2686 26.9313C46.8546 26.8011 46.4406 26.7538 45.9792 26.7538H31.4887C28.8627 26.7538 26.7217 28.9073 26.7217 31.5224V46.0293C26.7217 46.4671 26.7808 46.9049 26.8991 47.3072L20.5351 53.6732C20.1211 53.543 19.6952 53.4957 19.2457 53.4957H4.76708C2.14105 53.4957 0 55.6493 0 58.2643V72.7712C0 75.3981 2.14105 77.5398 4.76708 77.5398H19.2576C19.506 77.5398 19.7544 77.528 19.9791 77.4806L26.7926 84.2963C26.7453 84.5329 26.7217 84.7696 26.7217 85.0181V99.525C26.7217 102.14 28.8627 104.294 31.4887 104.294H45.9792C46.2276 104.294 46.4761 104.282 46.7008 104.223L53.5025 111.038C53.4552 111.275 53.4433 111.512 53.4433 111.76V126.255C53.4433 128.882 55.5962 131.024 58.2104 131.024H72.7127C75.3388 131.024 77.4798 128.882 77.4798 126.255V111.76C77.4798 109.133 75.3388 106.991 72.7127 106.991H58.2104C57.7727 106.991 57.3469 107.051 56.9447 107.181L50.5689 100.803C50.6872 100.401 50.7463 99.9746 50.7463 99.5368V85.0299C50.7463 84.6512 50.699 84.2726 50.6044 83.9176L57.0985 77.4215C57.4533 77.5161 57.8319 77.5635 58.2104 77.5635H72.7127C75.3388 77.5635 77.4798 75.4217 77.4798 72.7949V58.288C77.4798 55.6729 75.3388 53.5194 72.7127 53.5194H58.2104C55.5962 53.5194 53.4433 55.6729 53.4433 58.288V72.7949C53.4433 73.0907 53.467 73.3983 53.538 73.6823L46.8664 80.356C46.5825 80.285 46.2868 80.2613 45.9792 80.2613H31.4887C31.0511 80.2613 30.6252 80.3205 30.223 80.4506L23.8354 74.061C23.9655 73.6587 24.0247 73.2327 24.0247 72.7949V58.288C24.0247 58.0513 24.0128 57.8146 23.9655 57.578L30.779 50.7624C31.0156 50.8097 31.2522 50.8215 31.5006 50.8215H45.9911C48.6171 50.8215 50.7581 48.668 50.7581 46.0529V31.546C50.7581 31.3094 50.7463 31.0727 50.699 30.8479L57.5243 24.0204C57.7491 24.0677 57.9857 24.0796 58.2222 24.0796V24.0441ZM68.6199 111.334C71.104 111.334 73.1267 113.357 73.1267 115.842V122.125C73.1267 124.598 71.104 126.622 68.6199 126.622H62.3387C59.8665 126.622 57.8437 124.598 57.8437 122.125V115.842C57.8437 113.357 59.8665 111.334 62.3387 111.334H68.6199ZM57.8319 62.3584C57.8319 59.8854 59.8546 57.862 62.3269 57.862H68.6081C71.0922 57.862 73.1149 59.8854 73.1149 62.3584V68.6416C73.1149 71.1264 71.0922 73.1498 68.6081 73.1498H62.3269C59.8546 73.1498 57.8319 71.1264 57.8319 68.6416V62.3584ZM35.6052 84.5921H41.8864C44.3587 84.5921 46.3814 86.6155 46.3814 89.1003V95.3835C46.3814 97.8566 44.3587 99.88 41.8864 99.88H35.6052C33.1211 99.88 31.0984 97.8566 31.0984 95.3835V89.1003C31.0984 87.1243 32.3759 85.444 34.1503 84.8287C34.1739 84.8287 34.1976 84.8169 34.2212 84.8169C34.3395 84.7932 34.4578 84.7577 34.5761 84.7459H34.5643C34.9073 84.6394 35.2504 84.5921 35.6171 84.5921H35.6052ZM8.87173 73.1617C6.38765 73.1617 4.36489 71.1383 4.36489 68.6534V62.3702C4.36489 59.8972 6.38765 57.8738 8.87173 57.8738H15.1529C17.6252 57.8738 19.6479 59.8972 19.6479 62.3702V68.6534C19.6479 71.1383 17.6252 73.1617 15.1529 73.1617H8.87173ZM46.3933 41.9115C46.3933 44.3845 44.3705 46.4079 41.8982 46.4079H35.6171C33.133 46.4079 31.1102 44.3845 31.1102 41.9115V35.6283C31.1102 33.1434 33.133 31.12 35.6171 31.12H41.8982C42.2649 31.12 42.6198 31.1674 42.9628 31.2502L42.9392 31.2739C43.0575 31.2857 43.1758 31.3212 43.2941 31.3449C43.2941 31.3449 43.3059 31.3449 43.3177 31.3449C45.1039 31.9365 46.4051 33.6404 46.4051 35.6165V41.8996L46.3933 41.9115ZM57.8319 8.87454C57.8319 6.4015 59.8546 4.36627 62.3269 4.36627H68.6081C71.0922 4.36627 73.1149 6.4015 73.1149 8.87454V15.1577C73.1149 17.6307 71.0922 19.6541 68.6081 19.6541H62.3269C59.8546 19.6541 57.8319 17.6307 57.8319 15.1577V8.87454Z" fill="#7821C8"/>
<path d="M126.192 53.484H111.702C111.465 53.484 111.229 53.4958 110.992 53.5432L104.167 46.7157C104.214 46.4909 104.226 46.2542 104.226 46.0294V31.5225C104.226 28.9075 102.085 26.7539 99.4587 26.7539H84.9682C82.3422 26.7539 80.2012 28.9075 80.2012 31.5225V46.0294C80.2012 48.6444 82.3422 50.798 84.9682 50.798H99.4587C99.8964 50.798 100.334 50.7388 100.748 50.6205L107.124 56.9865C106.994 57.3888 106.946 57.8148 106.946 58.2644V72.7713C106.946 72.9843 106.958 73.1855 106.994 73.3748L100.098 80.2733C99.8964 80.2496 99.6835 80.226 99.4824 80.226H84.9919C82.3659 80.226 80.2248 82.3677 80.2248 84.9945V99.5014C80.2248 102.116 82.3659 104.27 84.9919 104.27H99.4824C102.108 104.27 104.249 102.116 104.249 99.5014V84.9945C104.249 84.5212 104.179 84.0597 104.048 83.6219L110.353 77.3151C110.791 77.4571 111.252 77.5281 111.725 77.5281H126.216C128.842 77.5281 130.983 75.3864 130.983 72.7595V58.2526C130.983 55.6376 128.842 53.484 126.216 53.484H126.192ZM95.3423 46.408H89.0611C86.5888 46.408 84.5661 44.3847 84.5661 41.9116V35.6284C84.5661 33.1436 86.5888 31.1202 89.0611 31.1202H95.3423C97.8263 31.1202 99.8491 33.1436 99.8491 35.6284V41.9116C99.8491 43.5445 98.9738 44.9763 97.6607 45.7691C97.6607 45.7691 97.6371 45.7809 97.6134 45.7809C97.2112 45.9939 96.7854 46.1359 96.3241 46.2069L96.395 46.2779C96.052 46.3726 95.6971 46.408 95.3304 46.408H95.3423ZM99.8609 95.3955C99.8609 97.8685 97.8382 99.8919 95.3541 99.8919H89.0729C86.6006 99.8919 84.5779 97.8685 84.5779 95.3955V89.1123C84.5779 86.6274 86.6006 84.6041 89.0729 84.6041H95.3541C97.8382 84.6041 99.8609 86.6274 99.8609 89.1123V95.3955ZM126.594 68.6417C126.594 71.1266 124.572 73.15 122.088 73.15H115.806C113.334 73.15 111.311 71.1266 111.311 68.6417V62.3586C111.311 59.8855 113.334 57.8621 115.806 57.8621H122.088C124.572 57.8621 126.594 59.8855 126.594 62.3586V68.6417Z" fill="#F58532"/>
</g>
<defs>
<clipPath id="clip0_2001_2">
<rect width="498" height="131" fill="white"/>
</clipPath>
</defs>
</svg>
