<svg width="131" height="131" viewBox="0 0 131 131" fill="none" xmlns="http://www.w3.org/2000/svg">
<path d="M58.2222 24.0441H72.7246C75.3506 24.0441 77.4916 21.8905 77.4916 19.2755V4.76858C77.4916 2.15355 75.3506 0 72.7246 0H58.2222C55.608 0 53.4552 2.15355 53.4552 4.76858V19.2755C53.4552 19.7133 53.5143 20.1511 53.6326 20.5653L47.2686 26.9313C46.8546 26.8011 46.4406 26.7538 45.9792 26.7538H31.4887C28.8627 26.7538 26.7217 28.9073 26.7217 31.5224V46.0293C26.7217 46.4671 26.7808 46.9049 26.8991 47.3072L20.5351 53.6732C20.1211 53.543 19.6952 53.4957 19.2457 53.4957H4.76708C2.14105 53.4957 0 55.6493 0 58.2643V72.7712C0 75.3981 2.14105 77.5398 4.76708 77.5398H19.2576C19.506 77.5398 19.7544 77.528 19.9791 77.4806L26.7926 84.2963C26.7453 84.5329 26.7217 84.7696 26.7217 85.0181V99.525C26.7217 102.14 28.8627 104.294 31.4887 104.294H45.9792C46.2276 104.294 46.4761 104.282 46.7008 104.223L53.5025 111.038C53.4552 111.275 53.4433 111.512 53.4433 111.76V126.255C53.4433 128.882 55.5962 131.024 58.2104 131.024H72.7127C75.3388 131.024 77.4798 128.882 77.4798 126.255V111.76C77.4798 109.133 75.3388 106.991 72.7127 106.991H58.2104C57.7727 106.991 57.3469 107.051 56.9447 107.181L50.5689 100.803C50.6872 100.401 50.7463 99.9746 50.7463 99.5368V85.0299C50.7463 84.6512 50.699 84.2726 50.6044 83.9176L57.0985 77.4215C57.4533 77.5161 57.8319 77.5635 58.2104 77.5635H72.7127C75.3388 77.5635 77.4798 75.4217 77.4798 72.7949V58.288C77.4798 55.6729 75.3388 53.5194 72.7127 53.5194H58.2104C55.5962 53.5194 53.4433 55.6729 53.4433 58.288V72.7949C53.4433 73.0907 53.467 73.3983 53.538 73.6823L46.8664 80.356C46.5825 80.285 46.2868 80.2613 45.9792 80.2613H31.4887C31.0511 80.2613 30.6252 80.3205 30.223 80.4506L23.8354 74.061C23.9655 73.6587 24.0247 73.2327 24.0247 72.7949V58.288C24.0247 58.0513 24.0128 57.8146 23.9655 57.578L30.779 50.7624C31.0156 50.8097 31.2522 50.8215 31.5006 50.8215H45.9911C48.6171 50.8215 50.7581 48.668 50.7581 46.0529V31.546C50.7581 31.3094 50.7463 31.0727 50.699 30.8479L57.5243 24.0204C57.7491 24.0677 57.9857 24.0796 58.2222 24.0796V24.0441ZM68.6199 111.334C71.104 111.334 73.1267 113.357 73.1267 115.842V122.125C73.1267 124.598 71.104 126.622 68.6199 126.622H62.3387C59.8665 126.622 57.8437 124.598 57.8437 122.125V115.842C57.8437 113.357 59.8665 111.334 62.3387 111.334H68.6199ZM57.8319 62.3584C57.8319 59.8854 59.8546 57.862 62.3269 57.862H68.6081C71.0922 57.862 73.1149 59.8854 73.1149 62.3584V68.6416C73.1149 71.1264 71.0922 73.1498 68.6081 73.1498H62.3269C59.8546 73.1498 57.8319 71.1264 57.8319 68.6416V62.3584ZM35.6052 84.5921H41.8864C44.3587 84.5921 46.3814 86.6155 46.3814 89.1003V95.3835C46.3814 97.8566 44.3587 99.88 41.8864 99.88H35.6052C33.1211 99.88 31.0984 97.8566 31.0984 95.3835V89.1003C31.0984 87.1243 32.3759 85.444 34.1503 84.8287C34.1739 84.8287 34.1976 84.8169 34.2212 84.8169C34.3395 84.7932 34.4578 84.7577 34.5761 84.7459H34.5643C34.9073 84.6394 35.2504 84.5921 35.6171 84.5921H35.6052ZM8.87173 73.1617C6.38765 73.1617 4.36489 71.1383 4.36489 68.6534V62.3702C4.36489 59.8972 6.38765 57.8738 8.87173 57.8738H15.1529C17.6252 57.8738 19.6479 59.8972 19.6479 62.3702V68.6534C19.6479 71.1383 17.6252 73.1617 15.1529 73.1617H8.87173ZM46.3933 41.9115C46.3933 44.3845 44.3705 46.4079 41.8982 46.4079H35.6171C33.133 46.4079 31.1102 44.3845 31.1102 41.9115V35.6283C31.1102 33.1434 33.133 31.12 35.6171 31.12H41.8982C42.2649 31.12 42.6198 31.1674 42.9628 31.2502L42.9392 31.2739C43.0575 31.2857 43.1758 31.3212 43.2941 31.3449C43.2941 31.3449 43.3059 31.3449 43.3177 31.3449C45.1039 31.9365 46.4051 33.6404 46.4051 35.6165V41.8996L46.3933 41.9115ZM57.8319 8.87454C57.8319 6.4015 59.8546 4.36627 62.3269 4.36627H68.6081C71.0922 4.36627 73.1149 6.4015 73.1149 8.87454V15.1577C73.1149 17.6307 71.0922 19.6541 68.6081 19.6541H62.3269C59.8546 19.6541 57.8319 17.6307 57.8319 15.1577V8.87454Z" fill="#7821C8"/>
<path d="M126.192 53.484H111.702C111.465 53.484 111.229 53.4958 110.992 53.5432L104.167 46.7157C104.214 46.4909 104.226 46.2542 104.226 46.0294V31.5225C104.226 28.9075 102.085 26.7539 99.4587 26.7539H84.9682C82.3422 26.7539 80.2012 28.9075 80.2012 31.5225V46.0294C80.2012 48.6444 82.3422 50.798 84.9682 50.798H99.4587C99.8964 50.798 100.334 50.7388 100.748 50.6205L107.124 56.9865C106.994 57.3888 106.946 57.8148 106.946 58.2644V72.7713C106.946 72.9843 106.958 73.1855 106.994 73.3748L100.098 80.2733C99.8964 80.2496 99.6835 80.226 99.4824 80.226H84.9919C82.3659 80.226 80.2248 82.3677 80.2248 84.9945V99.5014C80.2248 102.116 82.3659 104.27 84.9919 104.27H99.4824C102.108 104.27 104.249 102.116 104.249 99.5014V84.9945C104.249 84.5212 104.179 84.0597 104.048 83.6219L110.353 77.3151C110.791 77.4571 111.252 77.5281 111.725 77.5281H126.216C128.842 77.5281 130.983 75.3864 130.983 72.7595V58.2526C130.983 55.6376 128.842 53.484 126.216 53.484H126.192ZM95.3423 46.408H89.0611C86.5888 46.408 84.5661 44.3847 84.5661 41.9116V35.6284C84.5661 33.1436 86.5888 31.1202 89.0611 31.1202H95.3423C97.8263 31.1202 99.8491 33.1436 99.8491 35.6284V41.9116C99.8491 43.5445 98.9738 44.9763 97.6607 45.7691C97.6607 45.7691 97.6371 45.7809 97.6134 45.7809C97.2112 45.9939 96.7854 46.1359 96.3241 46.2069L96.395 46.2779C96.052 46.3726 95.6971 46.408 95.3304 46.408H95.3423ZM99.8609 95.3955C99.8609 97.8685 97.8382 99.8919 95.3541 99.8919H89.0729C86.6006 99.8919 84.5779 97.8685 84.5779 95.3955V89.1123C84.5779 86.6274 86.6006 84.6041 89.0729 84.6041H95.3541C97.8382 84.6041 99.8609 86.6274 99.8609 89.1123V95.3955ZM126.594 68.6417C126.594 71.1266 124.572 73.15 122.088 73.15H115.806C113.334 73.15 111.311 71.1266 111.311 68.6417V62.3586C111.311 59.8855 113.334 57.8621 115.806 57.8621H122.088C124.572 57.8621 126.594 59.8855 126.594 62.3586V68.6417Z" fill="#7821C8"/>
</svg>
