<svg width="512" height="134" viewBox="0 0 512 134" fill="#fff" xmlns="http://www.w3.org/2000/svg">
<g clip-path="url(#clip0_2060_6)">
<path d="M168.888 41.0195C168.888 40.4748 169.034 40.0512 169.325 39.7728C169.617 39.4823 170.006 39.3371 170.493 39.3008H206.807C207.975 39.3008 208.571 39.8939 208.571 41.0921V47.5797C208.571 48.0275 208.413 48.427 208.108 48.7901C207.804 49.1532 207.367 49.3347 206.807 49.3347H180.003V64.2586H186.23C187.531 64.2586 188.881 64.2586 190.28 64.2707C191.678 64.2828 193.028 64.2949 194.329 64.2949H200.556C201.018 64.2949 201.408 64.428 201.736 64.6822C202.064 64.9364 202.234 65.3721 202.234 65.9652V72.3076C202.234 72.7554 202.089 73.1548 201.797 73.5179C201.505 73.881 201.103 74.0626 200.593 74.0626H179.991V93.1259C179.991 94.1668 179.395 94.6873 178.191 94.6873H170.396C169.374 94.6389 168.863 94.1184 168.863 93.1259V41.0074L168.888 41.0195Z" fill="#fff"/>
<path d="M217.594 40.9469C217.594 40.499 217.752 40.1117 218.056 39.7849C218.36 39.4581 218.798 39.3008 219.357 39.3008H226.934C227.396 39.3008 227.785 39.446 228.138 39.7244C228.478 40.0149 228.649 40.4143 228.649 40.9348V84.4718H252.582C253.045 84.4718 253.434 84.6291 253.762 84.9317C254.09 85.2464 254.261 85.6579 254.261 86.1784V93.0049C254.261 93.4527 254.103 93.84 253.799 94.1789C253.495 94.5178 253.081 94.6873 252.57 94.6873H219.272C218.153 94.6873 217.594 94.1426 217.594 93.0412V40.9348V40.9469Z" fill="#fff"/>
<path d="M259.723 67.0542C259.723 64.4398 260.063 61.9222 260.756 59.4773C261.437 57.0444 262.423 54.7689 263.699 52.6508C264.976 50.5326 266.497 48.6082 268.272 46.8652C270.048 45.1223 272.018 43.6335 274.183 42.4111C276.347 41.1765 278.67 40.2203 281.163 39.5425C283.644 38.8647 286.247 38.5137 288.947 38.5137C291.647 38.5137 294.201 38.8526 296.694 39.5425C299.175 40.2324 301.51 41.1886 303.674 42.4111C305.839 43.6456 307.809 45.1344 309.597 46.8652C311.385 48.6082 312.905 50.5326 314.17 52.6508C315.435 54.7689 316.408 57.0444 317.113 59.4773C317.818 61.9101 318.171 64.4519 318.171 67.0905C318.171 69.7291 317.818 72.2467 317.113 74.6674C316.408 77.0881 315.435 79.3394 314.17 81.4576C312.905 83.5757 311.385 85.4881 309.597 87.2189C307.809 88.9498 305.839 90.4264 303.674 91.661C301.51 92.8956 299.187 93.8396 296.694 94.5175C294.213 95.1832 291.61 95.5221 288.91 95.5221C286.21 95.5221 283.62 95.1832 281.127 94.5175C278.634 93.8518 276.311 92.8835 274.146 91.6489C271.981 90.4143 270.011 88.9256 268.236 87.1947C266.46 85.4639 264.952 83.5515 263.687 81.4455C262.423 79.3394 261.45 77.076 260.769 74.6553C260.075 72.2346 259.735 69.7049 259.735 67.0663L259.723 67.0542ZM270.765 66.9816C270.765 69.4991 271.227 71.8472 272.164 74.038C273.088 76.2288 274.365 78.1291 275.983 79.751C277.6 81.3728 279.509 82.6437 281.723 83.5878C283.924 84.5319 286.32 85.004 288.886 85.004C291.452 85.004 293.811 84.5319 296.013 83.5878C298.214 82.6437 300.135 81.3607 301.765 79.751C303.395 78.1412 304.672 76.2288 305.608 74.038C306.532 71.8472 307.007 69.4991 307.007 66.9816C307.007 64.464 306.545 62.1522 305.608 59.9735C304.672 57.7828 303.395 55.8825 301.765 54.2485C300.135 52.6145 298.214 51.3315 296.013 50.3874C293.811 49.4433 291.428 48.9713 288.886 48.9713C286.344 48.9713 283.924 49.4433 281.723 50.3874C279.522 51.3315 277.612 52.6145 275.983 54.2485C274.365 55.8825 273.088 57.7828 272.164 59.9735C271.227 62.1643 270.765 64.5003 270.765 66.9816Z" fill="#fff"/>
<path d="M345.169 93.6218C344.914 93.1255 344.671 92.6172 344.427 92.0967C344.184 91.5762 343.965 91.0679 343.759 90.5717C340.39 82.2685 337.033 74.0017 333.689 65.7833C330.344 57.5649 326.963 49.3102 323.583 41.0312C323.583 40.9344 323.558 40.8376 323.522 40.7286C323.485 40.6318 323.461 40.535 323.461 40.426C323.461 39.6756 323.947 39.3125 324.92 39.3125H333.214C334.102 39.3125 334.747 39.8088 335.124 40.8013L349.924 79.2547L364.263 40.426C364.518 39.6756 365.053 39.3125 365.868 39.3125H374.551C375.16 39.3125 375.585 39.4214 375.816 39.6514C376.047 39.8814 376.157 40.1598 376.157 40.5108V41.0312L368.361 60.845L375.585 79.2305L390.726 40.7286C391.079 39.7845 391.772 39.3125 392.794 39.3125H400.784C401.392 39.3125 401.818 39.4214 402.061 39.6514C402.304 39.8814 402.426 40.1598 402.426 40.5108C402.426 40.656 402.414 40.7649 402.389 40.8134V40.9586C398.789 49.7096 395.153 58.4242 391.456 67.0905C387.759 75.7567 384.11 84.4714 380.523 93.2224C380.498 93.295 380.438 93.416 380.353 93.5976C380.267 93.767 380.134 93.9365 379.976 94.1059C379.805 94.2633 379.611 94.4085 379.38 94.5296C379.149 94.6506 378.881 94.7111 378.577 94.7111H372.569C371.985 94.7111 371.535 94.578 371.231 94.3238C370.927 94.0575 370.733 93.767 370.66 93.4523C369.334 90.2206 368.021 87.0132 366.707 83.8299C365.394 80.6466 364.068 77.4391 362.706 74.2075L355.288 92.2662C355.19 92.5446 355.069 92.8229 354.923 93.1255C354.777 93.4281 354.619 93.6944 354.424 93.9244C354.23 94.1664 354.011 94.348 353.78 94.5054C353.536 94.6506 353.269 94.7232 352.953 94.7232H346.945C346.483 94.7232 346.106 94.6143 345.814 94.3843C345.522 94.1543 345.315 93.9123 345.181 93.6339L345.169 93.6218Z" fill="#fff"/>
<path d="M452.775 43.3313C453.079 43.5008 453.334 43.7186 453.541 43.9607C453.748 44.2149 453.845 44.5054 453.845 44.8564C453.845 45.1348 453.772 45.4132 453.614 45.7158L449.905 51.8644C449.467 52.4333 449.017 52.7238 448.531 52.7238C448.385 52.7238 448.202 52.6875 447.995 52.627C447.789 52.5664 447.582 52.4696 447.387 52.3486C445.782 51.235 444.055 50.3636 442.231 49.7342C440.407 49.1048 438.449 48.8022 436.381 48.8022C433.779 48.8022 431.395 49.2863 429.23 50.2425C427.065 51.1987 425.193 52.4938 423.612 54.1399C422.031 55.786 420.802 57.7105 419.927 59.9255C419.051 62.1405 418.613 64.5128 418.613 67.0546C418.613 69.5963 419.051 71.9203 419.927 74.1231C420.802 76.326 422.031 78.2505 423.612 79.8845C425.193 81.5306 427.065 82.8136 429.23 83.7698C431.395 84.7139 433.779 85.1859 436.381 85.1859C438.449 85.1859 440.419 84.8712 442.292 84.2539C444.165 83.6366 445.892 82.7652 447.473 81.6395C447.679 81.4943 447.886 81.3853 448.105 81.3369C448.324 81.2885 448.506 81.2522 448.664 81.228C449.102 81.228 449.54 81.5064 450.002 82.0511L453.784 88.2845C453.942 88.587 454.015 88.8533 454.015 89.1075C454.015 89.4585 453.906 89.7369 453.687 89.9669C453.468 90.1847 453.225 90.4026 452.945 90.5963C450.549 92.1576 447.971 93.3801 445.198 94.2395C442.438 95.0988 439.519 95.5225 436.466 95.5225C433.767 95.5225 431.176 95.1836 428.683 94.5178C426.19 93.8521 423.867 92.8839 421.702 91.6493C419.538 90.4147 417.567 88.9259 415.792 87.1951C414.016 85.4643 412.496 83.5519 411.219 81.4459C409.942 79.3398 408.969 77.0764 408.276 74.6557C407.583 72.235 407.242 69.7053 407.242 67.0667C407.242 64.4281 407.583 61.8984 408.276 59.4777C408.969 57.0569 409.942 54.7814 411.219 52.6512C412.496 50.5209 414.016 48.5964 415.792 46.8535C417.567 45.1106 419.538 43.6218 421.702 42.3993C423.867 41.1648 426.19 40.2086 428.683 39.5308C431.164 38.853 433.767 38.502 436.466 38.502C439.495 38.502 442.377 38.9135 445.101 39.7486C447.825 40.5838 450.391 41.7821 452.787 43.3434L452.775 43.3313Z" fill="#fff"/>
<path d="M464.254 40.9469C464.254 40.5233 464.4 40.148 464.692 39.8091C464.984 39.4702 465.385 39.3008 465.896 39.3008H473.509C473.934 39.3008 474.348 39.4581 474.725 39.7849C475.102 40.1117 475.297 40.499 475.297 40.9469V60.2644H500.945V40.9469C500.945 40.499 501.091 40.1117 501.407 39.7849C501.711 39.4581 502.113 39.3008 502.624 39.3008H510.127C510.638 39.3008 511.076 39.446 511.441 39.7244C511.805 40.0028 512 40.4022 512 40.8985V93.0533C512 94.1426 511.404 94.6994 510.212 94.6994H502.636C501.517 94.6994 500.957 94.1547 500.957 93.0533V70.4799H475.309V93.0533C475.309 94.1426 474.689 94.6994 473.436 94.6994H465.896C464.801 94.6994 464.254 94.191 464.254 93.1743V40.9469Z" fill="#fff"/>
<path d="M59.859 24.5947H74.769C77.4689 24.5947 79.6701 22.3918 79.6701 19.7169V4.87779C79.6701 2.20287 77.4689 0 74.769 0H59.859C57.1713 0 54.9579 2.20287 54.9579 4.87779V19.7169C54.9579 20.1648 55.0187 20.6126 55.1403 21.0362L48.5974 27.548C48.1718 27.4149 47.7461 27.3665 47.2718 27.3665H32.374C29.6741 27.3665 27.4729 29.5693 27.4729 32.2442V47.0834C27.4729 47.5312 27.5337 47.979 27.6553 48.3906L21.1124 54.9024C20.6867 54.7692 20.2489 54.7208 19.7868 54.7208H4.90109C2.20124 54.7208 0 56.9237 0 59.5986V74.4377C0 77.1247 2.20124 79.3155 4.90109 79.3155H19.799C20.0543 79.3155 20.3097 79.3034 20.5408 79.255L27.5458 86.2267C27.4972 86.4688 27.4729 86.7109 27.4729 86.965V101.804C27.4729 104.479 29.6741 106.682 32.374 106.682H47.2718C47.5272 106.682 47.7826 106.67 48.0137 106.609L55.0065 113.581C54.9579 113.823 54.9457 114.065 54.9457 114.319V129.146C54.9457 131.833 57.1591 134.024 59.8468 134.024H74.7569C77.4567 134.024 79.6579 131.833 79.6579 129.146V114.319C79.6579 111.632 77.4567 109.442 74.7569 109.442H59.8468C59.3969 109.442 58.959 109.502 58.5455 109.635L51.9905 103.111C52.1121 102.7 52.1729 102.264 52.1729 101.816V86.9771C52.1729 86.5898 52.1243 86.2025 52.027 85.8394L58.7037 79.1945C59.0685 79.2913 59.4577 79.3397 59.8468 79.3397H74.7569C77.4567 79.3397 79.6579 77.1489 79.6579 74.4619V59.6228C79.6579 56.9479 77.4567 54.745 74.7569 54.745H59.8468C57.1591 54.745 54.9457 56.9479 54.9457 59.6228V74.4619C54.9457 74.7645 54.9701 75.0792 55.043 75.3697L48.1839 82.1962C47.8921 82.1236 47.588 82.0994 47.2718 82.0994H32.374C31.924 82.0994 31.4862 82.1599 31.0727 82.293L24.5055 75.757C24.6392 75.3455 24.7 74.9098 24.7 74.4619V59.6228C24.7 59.3807 24.6879 59.1386 24.6392 58.8966L31.6443 51.9248C31.8875 51.9733 32.1307 51.9854 32.3861 51.9854H47.284C49.9838 51.9854 52.1851 49.7825 52.1851 47.1076V32.2684C52.1851 32.0264 52.1729 31.7843 52.1243 31.5543L59.1415 24.5705C59.3725 24.6189 59.6158 24.631 59.859 24.631V24.5947ZM70.549 113.884C73.1029 113.884 75.1825 115.953 75.1825 118.495V124.922C75.1825 127.452 73.1029 129.522 70.549 129.522H64.0912C61.5494 129.522 59.4698 127.452 59.4698 124.922V118.495C59.4698 115.953 61.5494 113.884 64.0912 113.884H70.549ZM59.4577 63.7865C59.4577 61.2568 61.5373 59.1871 64.079 59.1871H70.5368C73.0907 59.1871 75.1703 61.2568 75.1703 63.7865V70.2135C75.1703 72.7553 73.0907 74.825 70.5368 74.825H64.079C61.5373 74.825 59.4577 72.7553 59.4577 70.2135V63.7865ZM36.6062 86.5293H43.0639C45.6057 86.5293 47.6853 88.599 47.6853 91.1408V97.5679C47.6853 100.098 45.6057 102.167 43.0639 102.167H36.6062C34.0523 102.167 31.9726 100.098 31.9726 97.5679V91.1408C31.9726 89.1195 33.2861 87.4008 35.1103 86.7714C35.1346 86.7714 35.159 86.7593 35.1833 86.7593C35.3049 86.7351 35.4265 86.6988 35.5481 86.6867H35.536C35.8886 86.5777 36.2413 86.5293 36.6183 86.5293H36.6062ZM9.12114 74.8371C6.56722 74.8371 4.4876 72.7674 4.4876 70.2256V63.7986C4.4876 61.2689 6.56722 59.1992 9.12114 59.1992H15.5789C18.1207 59.1992 20.2003 61.2689 20.2003 63.7986V70.2256C20.2003 72.7674 18.1207 74.8371 15.5789 74.8371H9.12114ZM47.6975 42.8713C47.6975 45.401 45.6179 47.4707 43.0761 47.4707H36.6183C34.0644 47.4707 31.9848 45.401 31.9848 42.8713V36.4442C31.9848 33.9024 34.0644 31.8327 36.6183 31.8327H43.0761C43.4531 31.8327 43.818 31.8811 44.1706 31.9659L44.1463 31.9901C44.2679 32.0022 44.3895 32.0385 44.5112 32.0627C44.5112 32.0627 44.5233 32.0627 44.5355 32.0627C46.3719 32.6679 47.7096 34.4108 47.7096 36.4321V42.8592L47.6975 42.8713ZM59.4577 9.07777C59.4577 6.5481 61.5373 4.46626 64.079 4.46626H70.5368C73.0907 4.46626 75.1703 6.5481 75.1703 9.07777V15.5048C75.1703 18.0345 73.0907 20.1042 70.5368 20.1042H64.079C61.5373 20.1042 59.4577 18.0345 59.4577 15.5048V9.07777Z" fill="#fff"/>
<path d="M129.739 54.7085H114.841C114.598 54.7085 114.355 54.7206 114.112 54.769L107.094 47.7851C107.143 47.5552 107.155 47.3131 107.155 47.0831V32.244C107.155 29.5691 104.954 27.3662 102.254 27.3662H87.3562C84.6563 27.3662 82.4551 29.5691 82.4551 32.244V47.0831C82.4551 49.758 84.6563 51.9609 87.3562 51.9609H102.254C102.704 51.9609 103.154 51.9004 103.58 51.7794L110.135 58.2912C110.001 58.7027 109.952 59.1384 109.952 59.5984V74.4375C109.952 74.6553 109.964 74.8611 110.001 75.0548L102.911 82.1112C102.704 82.087 102.485 82.0628 102.278 82.0628H87.3805C84.6806 82.0628 82.4794 84.2536 82.4794 86.9406V101.78C82.4794 104.455 84.6806 106.658 87.3805 106.658H102.278C104.978 106.658 107.179 104.455 107.179 101.78V86.9406C107.179 86.4565 107.106 85.9844 106.973 85.5366L113.455 79.0853C113.905 79.2305 114.379 79.3032 114.866 79.3032H129.763C132.463 79.3032 134.664 77.1124 134.664 74.4254V59.5862C134.664 56.9113 132.463 54.7085 129.763 54.7085H129.739ZM98.0218 47.4705H91.5641C89.0223 47.4705 86.9427 45.4007 86.9427 42.871V36.444C86.9427 33.9022 89.0223 31.8325 91.5641 31.8325H98.0218C100.576 31.8325 102.655 33.9022 102.655 36.444V42.871C102.655 44.5414 101.755 46.0059 100.405 46.8169C100.405 46.8169 100.381 46.829 100.357 46.829C99.9433 47.0468 99.5055 47.1921 99.0312 47.2647L99.1042 47.3373C98.7515 47.4341 98.3867 47.4705 98.0097 47.4705H98.0218ZM102.668 97.5798C102.668 100.109 100.588 102.179 98.034 102.179H91.5762C89.0345 102.179 86.9548 100.109 86.9548 97.5798V91.1527C86.9548 88.6109 89.0345 86.5412 91.5762 86.5412H98.034C100.588 86.5412 102.668 88.6109 102.668 91.1527V97.5798ZM130.153 70.2133C130.153 72.7551 128.073 74.8248 125.519 74.8248H119.061C116.519 74.8248 114.44 72.7551 114.44 70.2133V63.7862C114.44 61.2566 116.519 59.1868 119.061 59.1868H125.519C128.073 59.1868 130.153 61.2566 130.153 63.7862V70.2133Z" fill="#fff"/>
</g>
<defs>
<clipPath id="clip0_2060_6">
<rect width="512" height="134" fill="white"/>
</clipPath>
</defs>
</svg>
