<svg width="1872" height="464" viewBox="0 0 1872 464" fill="none" xmlns="http://www.w3.org/2000/svg">
<g clip-path="url(#clip0_2001_81)">
<path d="M971.73 414.533C970.419 414.533 969.199 413.715 968.726 412.405C968.143 410.749 969.017 408.948 970.674 408.366C1050.9 380.294 1104.82 304.61 1104.82 220.029V157.954C1104.82 115.6 1139.48 81.1242 1182.09 81.1242H1532.04C1574.85 81.1242 1609.68 46.5207 1609.68 3.96674V3.14804C1609.68 1.40149 1611.1 -0.0175781 1612.85 -0.0175781C1614.6 -0.0175781 1616.02 1.40149 1616.02 3.14804V3.96674C1616.02 50.0138 1578.34 87.4736 1532.02 87.4736H1182.07C1142.96 87.4736 1111.15 119.093 1111.15 157.954V220.029C1111.15 307.302 1055.54 385.406 972.75 414.351C972.404 414.479 972.039 414.533 971.694 414.533H971.73Z" fill="#F58532" fill-opacity="0.15"/>
<path d="M858.765 421.865C858.546 421.865 858.346 421.846 858.127 421.792C762.26 402.289 692.686 317.435 692.686 220.029C692.686 218.282 694.106 216.863 695.854 216.863C697.602 216.863 699.022 218.282 699.022 220.029C699.022 314.434 766.466 396.685 859.365 415.57C861.077 415.915 862.188 417.589 861.842 419.317C861.532 420.828 860.203 421.865 858.728 421.865H858.765Z" fill="#F58532" fill-opacity="0.15"/>
<path d="M695.872 209.914C694.124 209.914 692.704 208.495 692.704 206.748V204.893C692.704 203.146 694.124 201.727 695.872 201.727C697.62 201.727 699.04 203.146 699.04 204.893V206.748C699.04 208.495 697.62 209.914 695.872 209.914ZM695.872 198.998C694.124 198.998 692.704 197.579 692.704 195.832V186.772C692.704 185.026 694.124 183.607 695.872 183.607C697.62 183.607 699.04 185.026 699.04 186.772V195.832C699.04 197.579 697.62 198.998 695.872 198.998ZM695.872 180.859C694.124 180.859 692.704 179.44 692.704 177.694V168.634C692.704 166.887 694.124 165.468 695.872 165.468C697.62 165.468 699.04 166.887 699.04 168.634V177.694C699.04 179.44 697.62 180.859 695.872 180.859ZM531.887 164.067C530.139 164.067 528.719 162.666 528.719 160.92V160.428C528.719 157.445 528.901 154.425 529.247 151.477C529.447 149.731 531.031 148.475 532.779 148.712C534.527 148.93 535.765 150.495 535.547 152.241C535.219 154.934 535.055 157.699 535.055 160.428V160.883C535.055 162.63 533.653 164.067 531.905 164.067H531.887ZM695.854 162.721C694.124 162.721 692.704 161.32 692.686 159.591C692.649 156.699 692.431 153.806 692.03 150.968C691.793 149.24 692.995 147.639 694.743 147.384C696.455 147.129 698.094 148.348 698.33 150.095C698.767 153.206 699.004 156.371 699.04 159.519C699.059 161.265 697.657 162.703 695.909 162.739H695.872L695.854 162.721ZM534.054 146.129C533.799 146.129 533.526 146.092 533.271 146.038C531.577 145.601 530.54 143.891 530.977 142.181C531.741 139.124 532.725 136.104 533.89 133.175C534.527 131.538 536.385 130.737 538.005 131.392C539.626 132.047 540.427 133.884 539.79 135.504C538.733 138.178 537.841 140.962 537.131 143.745C536.767 145.182 535.474 146.147 534.054 146.147V146.129ZM693.359 144.819C691.957 144.819 690.683 143.891 690.3 142.49C689.536 139.724 688.589 136.977 687.478 134.321C686.804 132.702 687.569 130.846 689.19 130.173C690.81 129.5 692.667 130.264 693.341 131.883C694.561 134.794 695.599 137.796 696.418 140.834C696.874 142.526 695.89 144.273 694.197 144.728C693.924 144.8 693.632 144.837 693.359 144.837V144.819ZM540.7 129.3C540.172 129.3 539.662 129.172 539.17 128.9C537.641 128.044 537.076 126.116 537.932 124.588C539.444 121.841 541.173 119.148 543.031 116.619C544.068 115.2 546.053 114.891 547.473 115.928C548.894 116.965 549.203 118.948 548.165 120.367C546.454 122.696 544.888 125.152 543.504 127.662C542.921 128.718 541.847 129.3 540.718 129.3H540.7ZM686.385 128.154C685.293 128.154 684.219 127.59 683.636 126.571C682.198 124.078 680.577 121.659 678.847 119.366C677.791 117.965 678.064 115.982 679.448 114.927C680.85 113.872 682.835 114.145 683.891 115.527C685.803 118.038 687.569 120.676 689.135 123.405C690.009 124.915 689.499 126.862 687.97 127.735C687.478 128.026 686.932 128.154 686.385 128.154ZM551.388 114.709C550.605 114.709 549.822 114.418 549.203 113.836C547.929 112.635 547.874 110.615 549.076 109.342C551.243 107.068 553.573 104.884 555.995 102.901C557.342 101.792 559.345 101.992 560.456 103.338C561.567 104.703 561.366 106.686 560.019 107.795C557.798 109.615 555.667 111.598 553.682 113.69C553.063 114.345 552.226 114.672 551.37 114.672L551.388 114.709ZM675.424 113.763C674.605 113.763 673.785 113.453 673.166 112.817C671.145 110.761 668.978 108.814 666.72 107.031C665.337 105.94 665.1 103.957 666.192 102.574C667.285 101.191 669.27 100.973 670.653 102.046C673.13 103.993 675.497 106.122 677.7 108.359C678.92 109.615 678.902 111.616 677.664 112.853C677.045 113.453 676.243 113.763 675.442 113.763H675.424ZM565.391 103.247C564.334 103.247 563.297 102.719 562.696 101.755C561.767 100.263 562.204 98.3167 563.697 97.3888C566.356 95.7151 569.16 94.205 572.018 92.8769C573.603 92.1492 575.496 92.8405 576.243 94.4234C576.989 96.0062 576.297 97.8983 574.695 98.6442C572.091 99.8631 569.524 101.246 567.084 102.774C566.556 103.102 565.973 103.265 565.391 103.265V103.247ZM661.221 102.556C660.657 102.556 660.093 102.41 659.583 102.101C657.106 100.609 654.521 99.2809 651.899 98.1166C650.296 97.407 649.568 95.5331 650.278 93.9321C650.988 92.3311 652.864 91.6034 654.466 92.3129C657.343 93.5865 660.165 95.0419 662.878 96.6793C664.39 97.589 664.863 99.5356 663.953 101.027C663.352 102.01 662.314 102.556 661.221 102.556ZM581.796 95.6605C580.449 95.6605 579.192 94.8054 578.774 93.4409C578.246 91.7671 579.174 89.9842 580.831 89.4566C583.836 88.5106 586.913 87.7282 590.027 87.1643C591.738 86.855 593.413 87.983 593.723 89.7113C594.032 91.4397 592.885 93.0952 591.174 93.4045C588.333 93.9139 585.511 94.6235 582.761 95.4968C582.434 95.6059 582.124 95.6423 581.796 95.6423V95.6605ZM644.67 95.2602C644.379 95.2602 644.069 95.2239 643.76 95.1329C641.01 94.3142 638.17 93.6592 635.311 93.2044C633.581 92.9133 632.398 91.2941 632.689 89.5658C632.98 87.8374 634.601 86.6548 636.331 86.9459C639.444 87.4553 642.54 88.1649 645.562 89.0564C647.237 89.5476 648.202 91.3305 647.711 93.0043C647.292 94.387 646.036 95.2784 644.67 95.2784V95.2602ZM599.586 92.4039C597.911 92.4039 596.509 91.094 596.418 89.402C596.327 87.6555 597.656 86.1636 599.404 86.0545C600.806 85.9817 602.208 85.9453 603.61 85.9453H608.636C610.384 85.9453 611.804 87.3644 611.804 89.1109C611.804 90.8575 610.384 92.2766 608.636 92.2766H603.61C602.317 92.2766 601.024 92.3129 599.75 92.3857C599.695 92.3857 599.622 92.3857 599.568 92.3857L599.586 92.4039ZM626.808 92.3311C626.808 92.3311 626.735 92.3311 626.698 92.3311C625.842 92.2947 624.987 92.2766 624.113 92.2766H617.74C615.992 92.2766 614.571 90.8575 614.571 89.1109C614.571 87.3644 615.992 85.9453 617.74 85.9453H624.113C625.06 85.9453 625.988 85.9453 626.917 85.9999C628.665 86.0727 630.03 87.5281 629.976 89.2929C629.921 91.003 628.501 92.3493 626.808 92.3493V92.3311Z" fill="#F58532" fill-opacity="0.15"/>
<path d="M532.634 277.738C530.886 277.738 529.465 276.337 529.465 274.59L528.828 177.839C528.828 176.092 530.23 174.655 531.978 174.637H531.996C533.744 174.637 535.165 176.038 535.165 177.784L535.802 274.536C535.802 276.282 534.4 277.72 532.652 277.738H532.634Z" fill="#F58532" fill-opacity="0.15"/>
<path d="M456.741 370.432C455.011 370.432 453.59 369.05 453.572 367.321C453.536 365.575 454.938 364.119 456.686 364.083C459.581 364.028 462.494 363.81 465.353 363.41C467.083 363.173 468.685 364.392 468.922 366.121C469.159 367.849 467.939 369.45 466.209 369.686C463.113 370.105 459.945 370.341 456.795 370.414C456.777 370.414 456.759 370.414 456.741 370.414V370.432ZM447.673 370.214C447.673 370.214 447.509 370.214 447.436 370.214C444.304 369.978 441.154 369.559 438.077 368.959C436.347 368.631 435.236 366.957 435.564 365.229C435.892 363.501 437.567 362.391 439.297 362.718C442.137 363.264 445.033 363.664 447.909 363.883C449.657 364.01 450.968 365.538 450.841 367.285C450.714 368.959 449.33 370.214 447.673 370.214ZM474.676 368.013C473.256 368.013 471.963 367.067 471.599 365.629C471.162 363.937 472.181 362.209 473.875 361.772C476.679 361.045 479.465 360.153 482.159 359.116C483.798 358.479 485.637 359.298 486.275 360.936C486.912 362.573 486.092 364.41 484.454 365.047C481.522 366.175 478.5 367.158 475.459 367.922C475.186 367.994 474.931 368.031 474.658 368.031L474.676 368.013ZM429.901 366.757C429.574 366.757 429.264 366.703 428.936 366.612C425.95 365.666 422.982 364.52 420.123 363.21C418.521 362.482 417.829 360.608 418.557 359.007C419.286 357.406 421.161 356.715 422.764 357.442C425.404 358.643 428.117 359.698 430.866 360.572C432.542 361.099 433.452 362.882 432.924 364.556C432.487 365.902 431.249 366.757 429.901 366.757ZM491.555 361.481C490.408 361.481 489.315 360.863 488.751 359.789C487.932 358.243 488.514 356.314 490.08 355.496C492.629 354.149 495.142 352.621 497.509 350.984C498.948 349.983 500.932 350.347 501.934 351.802C502.935 353.24 502.571 355.223 501.114 356.223C498.529 358.006 495.816 359.644 493.048 361.117C492.575 361.372 492.065 361.481 491.573 361.481H491.555ZM413.423 359.28C412.858 359.28 412.294 359.134 411.784 358.825C409.107 357.206 406.485 355.405 404.009 353.476C402.625 352.403 402.37 350.402 403.444 349.019C404.519 347.636 406.522 347.382 407.906 348.455C410.182 350.238 412.603 351.893 415.061 353.385C416.555 354.295 417.046 356.242 416.136 357.752C415.535 358.734 414.497 359.28 413.423 359.28ZM506.468 351.202C505.594 351.202 504.701 350.838 504.082 350.129C502.917 348.819 503.063 346.799 504.374 345.653C506.541 343.743 508.635 341.687 510.565 339.558C511.748 338.249 513.751 338.158 515.044 339.322C516.355 340.505 516.446 342.506 515.281 343.797C513.187 346.126 510.929 348.346 508.562 350.42C507.961 350.947 507.214 351.202 506.468 351.202ZM399.147 348.164C398.346 348.164 397.545 347.855 396.926 347.254C394.686 345.053 392.556 342.706 390.589 340.25C389.497 338.885 389.715 336.884 391.081 335.792C392.447 334.701 394.449 334.919 395.542 336.284C397.345 338.54 399.311 340.705 401.369 342.724C402.625 343.961 402.643 345.962 401.405 347.218C400.786 347.855 399.967 348.164 399.147 348.164ZM518.595 337.776C517.957 337.776 517.32 337.594 516.755 337.193C515.317 336.175 514.989 334.191 516.009 332.772C517.684 330.425 519.232 327.933 520.616 325.404C521.453 323.858 523.383 323.294 524.931 324.131C526.479 324.968 527.043 326.896 526.206 328.442C524.713 331.19 523.019 333.882 521.198 336.447C520.579 337.321 519.596 337.776 518.613 337.776H518.595ZM387.822 334.064C386.766 334.064 385.728 333.537 385.127 332.572C383.452 329.916 381.94 327.114 380.593 324.294C379.846 322.712 380.52 320.819 382.104 320.074C383.688 319.328 385.582 320.001 386.329 321.584C387.567 324.185 388.969 326.75 390.498 329.207C391.427 330.698 390.972 332.645 389.497 333.573C388.969 333.9 388.386 334.064 387.822 334.064ZM527.244 321.911C526.843 321.911 526.442 321.838 526.06 321.675C524.439 321.02 523.638 319.182 524.294 317.545C525.368 314.87 526.297 312.087 527.043 309.303C527.498 307.611 529.246 306.611 530.94 307.065C532.633 307.52 533.635 309.267 533.179 310.959C532.36 313.979 531.359 316.999 530.193 319.91C529.702 321.147 528.5 321.911 527.244 321.911ZM380.083 317.69C378.754 317.69 377.516 316.853 377.079 315.525C376.077 312.56 375.258 309.485 374.621 306.41C374.275 304.7 375.367 303.008 377.097 302.663C378.808 302.299 380.502 303.409 380.848 305.137C381.43 307.975 382.195 310.795 383.106 313.524C383.67 315.18 382.76 316.981 381.103 317.545C380.775 317.654 380.429 317.708 380.101 317.708L380.083 317.69ZM531.941 304.446C531.796 304.446 531.632 304.446 531.486 304.409C529.756 304.154 528.555 302.553 528.791 300.825C529.192 297.987 529.447 295.076 529.52 292.165C529.574 290.419 531.086 289.072 532.779 289.072C534.527 289.109 535.911 290.582 535.874 292.329C535.801 295.476 535.528 298.624 535.073 301.717C534.855 303.299 533.489 304.446 531.941 304.446Z" fill="#F58532" fill-opacity="0.15"/>
<path d="M376.168 293.42C374.42 293.42 373 292.001 373 290.254V176.019C373 174.273 374.42 172.854 376.168 172.854C377.916 172.854 379.337 174.273 379.337 176.019V290.254C379.337 292.001 377.916 293.42 376.168 293.42Z" fill="#F58532" fill-opacity="0.15"/>
<path d="M376.169 163.612C374.421 163.612 373 162.193 373 160.447C373 157.699 372.836 154.952 372.509 152.241C372.29 150.495 373.547 148.93 375.276 148.712C377.024 148.494 378.608 149.749 378.809 151.477C379.173 154.425 379.337 157.445 379.337 160.428C379.337 162.175 377.917 163.594 376.169 163.594V163.612ZM231.211 163.612C229.463 163.612 228.043 162.193 228.043 160.447C228.043 157.299 228.243 154.115 228.644 151.004C228.862 149.258 230.465 148.021 232.194 148.257C233.942 148.475 235.162 150.058 234.944 151.805C234.58 154.643 234.398 157.554 234.398 160.447C234.398 162.193 232.977 163.612 231.229 163.612H231.211ZM373.984 146.129C372.563 146.129 371.27 145.164 370.906 143.727C370.196 140.943 369.304 138.178 368.248 135.504C367.611 133.866 368.394 132.029 370.032 131.392C371.671 130.755 373.51 131.538 374.147 133.175C375.313 136.104 376.278 139.124 377.061 142.181C377.498 143.873 376.46 145.601 374.766 146.038C374.512 146.11 374.238 146.129 373.984 146.129ZM233.506 145.674C233.251 145.674 232.977 145.637 232.704 145.565C231.011 145.128 229.991 143.4 230.428 141.689C231.229 138.651 232.213 135.613 233.396 132.702C234.052 131.083 235.909 130.3 237.53 130.937C239.15 131.592 239.951 133.448 239.296 135.067C238.221 137.741 237.311 140.507 236.583 143.29C236.219 144.728 234.926 145.674 233.506 145.674ZM367.337 129.318C366.227 129.318 365.134 128.718 364.552 127.681C363.168 125.17 361.602 122.714 359.89 120.385C358.852 118.966 359.162 116.983 360.582 115.946C362.002 114.909 363.987 115.218 365.025 116.637C366.882 119.184 368.594 121.859 370.123 124.606C370.979 126.134 370.415 128.063 368.885 128.918C368.394 129.191 367.865 129.318 367.356 129.318H367.337ZM240.261 128.9C239.733 128.9 239.205 128.772 238.713 128.499C237.184 127.644 236.637 125.716 237.493 124.187C239.023 121.458 240.771 118.784 242.646 116.255C243.684 114.854 245.687 114.545 247.089 115.6C248.491 116.637 248.801 118.639 247.744 120.039C246.033 122.35 244.449 124.806 243.029 127.299C242.446 128.336 241.372 128.918 240.261 128.918V128.9ZM356.667 114.727C355.83 114.727 354.992 114.4 354.355 113.726C352.37 111.634 350.24 109.651 348.018 107.832C346.653 106.722 346.471 104.721 347.581 103.374C348.692 102.028 350.695 101.828 352.042 102.938C354.482 104.939 356.813 107.104 358.962 109.378C360.163 110.652 360.109 112.653 358.834 113.872C358.215 114.454 357.432 114.745 356.649 114.745L356.667 114.727ZM251.04 114.381C250.257 114.381 249.456 114.09 248.837 113.49C247.581 112.271 247.526 110.27 248.746 108.996C250.931 106.722 253.262 104.575 255.72 102.592C257.085 101.482 259.088 101.701 260.181 103.065C261.292 104.43 261.073 106.431 259.707 107.522C257.468 109.324 255.319 111.307 253.334 113.381C252.715 114.036 251.878 114.363 251.04 114.363V114.381ZM342.665 103.265C342.082 103.265 341.5 103.102 340.972 102.774C338.532 101.246 335.964 99.8449 333.361 98.6442C331.776 97.8983 331.084 96.0244 331.813 94.4234C332.559 92.8405 334.435 92.1492 336.037 92.8769C338.896 94.205 341.7 95.7151 344.358 97.3888C345.851 98.3167 346.288 100.282 345.36 101.755C344.759 102.719 343.721 103.247 342.665 103.247V103.265ZM265.115 103.011C264.059 103.011 263.021 102.483 262.42 101.501C261.492 100.009 261.965 98.062 263.44 97.1341C266.117 95.4786 268.921 93.9867 271.78 92.6768C273.382 91.9491 275.257 92.6586 275.986 94.2414C276.714 95.8424 276.004 97.7163 274.42 98.4441C271.798 99.6266 269.23 101.009 266.791 102.519C266.262 102.847 265.698 102.992 265.115 102.992V103.011ZM326.259 95.6605C325.95 95.6605 325.622 95.6059 325.294 95.5149C322.545 94.6417 319.722 93.9321 316.882 93.4227C315.152 93.1134 314.005 91.4579 314.333 89.7295C314.642 88.0011 316.299 86.8732 318.029 87.1824C321.124 87.7464 324.22 88.5106 327.206 89.4748C328.881 90.0024 329.81 91.7853 329.264 93.4591C328.827 94.8054 327.588 95.6787 326.241 95.6787L326.259 95.6605ZM281.558 95.5149C280.21 95.5149 278.954 94.6417 278.517 93.2772C277.989 91.6034 278.936 89.8205 280.611 89.3111C283.615 88.3832 286.711 87.6373 289.806 87.0915C291.536 86.7822 293.174 87.9466 293.484 89.6749C293.794 91.4033 292.628 93.0407 290.898 93.35C288.058 93.8412 285.217 94.5325 282.486 95.3876C282.177 95.4786 281.849 95.5331 281.539 95.5331L281.558 95.5149ZM308.451 92.4039C308.451 92.4039 308.342 92.4039 308.269 92.4039C306.995 92.3311 305.702 92.2947 304.409 92.2947H302.952C301.805 92.2947 300.658 92.3311 299.529 92.3857C297.799 92.4767 296.288 91.1122 296.197 89.3656C296.106 87.6191 297.472 86.1272 299.22 86.0363C300.458 85.9817 301.696 85.9453 302.952 85.9453H304.409C305.829 85.9453 307.231 85.9817 308.633 86.0545C310.381 86.1454 311.729 87.6555 311.62 89.402C311.529 91.094 310.127 92.4039 308.451 92.4039Z" fill="#F58532" fill-opacity="0.15"/>
<path d="M231.211 464C229.463 464 228.043 462.581 228.043 460.835V176.002C228.043 174.255 229.463 172.836 231.211 172.836C232.959 172.836 234.38 174.255 234.38 176.002V460.835C234.38 462.581 232.959 464 231.211 464Z" fill="#F58532" fill-opacity="0.15"/>
<path d="M10.9241 460.453C9.17612 460.453 7.75586 459.034 7.75586 457.288V448.227C7.75586 446.481 9.17612 445.062 10.9241 445.062C12.6721 445.062 14.0924 446.481 14.0924 448.227V457.288C14.0924 459.034 12.6721 460.453 10.9241 460.453ZM10.9241 442.333C9.17612 442.333 7.75586 440.914 7.75586 439.167V430.107C7.75586 428.36 9.17612 426.941 10.9241 426.941C12.6721 426.941 14.0924 428.36 14.0924 430.107V439.167C14.0924 440.914 12.6721 442.333 10.9241 442.333ZM10.9241 424.194C9.17612 424.194 7.75586 422.775 7.75586 421.028V411.968C7.75586 410.222 9.17612 408.803 10.9241 408.803C12.6721 408.803 14.0924 410.222 14.0924 411.968V421.028C14.0924 422.775 12.6721 424.194 10.9241 424.194ZM10.9241 406.055C9.17612 406.055 7.75586 404.636 7.75586 402.89V393.83C7.75586 392.083 9.17612 390.664 10.9241 390.664C12.6721 390.664 14.0924 392.083 14.0924 393.83V402.89C14.0924 404.636 12.6721 406.055 10.9241 406.055ZM10.9241 387.935C9.17612 387.935 7.75586 386.516 7.75586 384.769V375.709C7.75586 373.963 9.17612 372.544 10.9241 372.544C12.6721 372.544 14.0924 373.963 14.0924 375.709V384.769C14.0924 386.516 12.6721 387.935 10.9241 387.935ZM10.9241 369.796C9.17612 369.796 7.75586 368.377 7.75586 366.631V357.57C7.75586 355.824 9.17612 354.405 10.9241 354.405C12.6721 354.405 14.0924 355.824 14.0924 357.57V366.631C14.0924 368.377 12.6721 369.796 10.9241 369.796ZM10.9241 351.658C9.17612 351.658 7.75586 350.239 7.75586 348.492V339.432C7.75586 337.685 9.17612 336.266 10.9241 336.266C12.6721 336.266 14.0924 337.685 14.0924 339.432V348.492C14.0924 350.239 12.6721 351.658 10.9241 351.658ZM10.9241 333.537C9.17612 333.537 7.75586 332.118 7.75586 330.372V321.311C7.75586 319.565 9.17612 318.146 10.9241 318.146C12.6721 318.146 14.0924 319.565 14.0924 321.311V330.372C14.0924 332.118 12.6721 333.537 10.9241 333.537ZM10.9241 315.399C9.17612 315.399 7.75586 313.98 7.75586 312.233V303.173C7.75586 301.426 9.17612 300.007 10.9241 300.007C12.6721 300.007 14.0924 301.426 14.0924 303.173V312.233C14.0924 313.98 12.6721 315.399 10.9241 315.399ZM10.9241 297.278C9.17612 297.278 7.75586 295.859 7.75586 294.113V285.052C7.75586 283.306 9.17612 281.887 10.9241 281.887C12.6721 281.887 14.0924 283.306 14.0924 285.052V294.113C14.0924 295.859 12.6721 297.278 10.9241 297.278ZM10.9241 279.139C9.17612 279.139 7.75586 277.72 7.75586 275.974V266.914C7.75586 265.167 9.17612 263.748 10.9241 263.748C12.6721 263.748 14.0924 265.167 14.0924 266.914V275.974C14.0924 277.72 12.6721 279.139 10.9241 279.139ZM10.9241 261.001C9.17612 261.001 7.75586 259.582 7.75586 257.835V248.775C7.75586 247.028 9.17612 245.609 10.9241 245.609C12.6721 245.609 14.0924 247.028 14.0924 248.775V257.835C14.0924 259.582 12.6721 261.001 10.9241 261.001Z" fill="#F58532" fill-opacity="0.15"/>
<path d="M1236.28 453.048C1234.53 453.048 1233.11 451.629 1233.11 449.882V445.134C1233.11 443.387 1234.53 441.968 1236.28 441.968C1238.03 441.968 1239.45 443.387 1239.45 445.134V449.882C1239.45 451.629 1238.03 453.048 1236.28 453.048ZM1236.28 439.239C1234.53 439.239 1233.11 437.82 1233.11 436.073V427.013C1233.11 425.267 1234.53 423.848 1236.28 423.848C1238.03 423.848 1239.45 425.267 1239.45 427.013V436.073C1239.45 437.82 1238.03 439.239 1236.28 439.239ZM1236.28 421.119C1234.53 421.119 1233.11 419.699 1233.11 417.953V408.893C1233.11 407.146 1234.53 405.727 1236.28 405.727C1238.03 405.727 1239.45 407.146 1239.45 408.893V417.953C1239.45 419.699 1238.03 421.119 1236.28 421.119ZM1236.28 402.98C1234.53 402.98 1233.11 401.561 1233.11 399.814V390.754C1233.11 389.007 1234.53 387.588 1236.28 387.588C1238.03 387.588 1239.45 389.007 1239.45 390.754V399.814C1239.45 401.561 1238.03 402.98 1236.28 402.98ZM1236.28 384.859C1234.53 384.859 1233.11 383.44 1233.11 381.694V372.634C1233.11 370.887 1234.53 369.468 1236.28 369.468C1238.03 369.468 1239.45 370.887 1239.45 372.634V381.694C1239.45 383.44 1238.03 384.859 1236.28 384.859ZM1236.28 366.721C1234.53 366.721 1233.11 365.302 1233.11 363.555V354.495C1233.11 352.748 1234.53 351.329 1236.28 351.329C1238.03 351.329 1239.45 352.748 1239.45 354.495V363.555C1239.45 365.302 1238.03 366.721 1236.28 366.721ZM1236.28 348.582C1234.53 348.582 1233.11 347.163 1233.11 345.417V336.356C1233.11 334.61 1234.53 333.191 1236.28 333.191C1238.03 333.191 1239.45 334.61 1239.45 336.356V345.417C1239.45 347.163 1238.03 348.582 1236.28 348.582ZM1236.28 330.462C1234.53 330.462 1233.11 329.043 1233.11 327.296V318.236C1233.11 316.489 1234.53 315.07 1236.28 315.07C1238.03 315.07 1239.45 316.489 1239.45 318.236V327.296C1239.45 329.043 1238.03 330.462 1236.28 330.462ZM1236.28 312.323C1234.53 312.323 1233.11 310.904 1233.11 309.157V300.097C1233.11 298.351 1234.53 296.932 1236.28 296.932C1238.03 296.932 1239.45 298.351 1239.45 300.097V309.157C1239.45 310.904 1238.03 312.323 1236.28 312.323ZM1236.28 294.184C1234.53 294.184 1233.11 292.765 1233.11 291.019V281.959C1233.11 280.212 1234.53 278.793 1236.28 278.793C1238.03 278.793 1239.45 280.212 1239.45 281.959V291.019C1239.45 292.765 1238.03 294.184 1236.28 294.184ZM1236.28 276.064C1234.53 276.064 1233.11 274.645 1233.11 272.898V263.838C1233.11 262.092 1234.53 260.672 1236.28 260.672C1238.03 260.672 1239.45 262.092 1239.45 263.838V272.898C1239.45 274.645 1238.03 276.064 1236.28 276.064ZM1236.28 257.925C1234.53 257.925 1233.11 256.506 1233.11 254.76V245.699C1233.11 243.953 1234.53 242.534 1236.28 242.534C1238.03 242.534 1239.45 243.953 1239.45 245.699V254.76C1239.45 256.506 1238.03 257.925 1236.28 257.925ZM1236.28 239.805C1234.53 239.805 1233.11 238.386 1233.11 236.639V227.579C1233.11 225.832 1234.53 224.413 1236.28 224.413C1238.03 224.413 1239.45 225.832 1239.45 227.579V236.639C1239.45 238.386 1238.03 239.805 1236.28 239.805ZM1236.28 221.666C1234.53 221.666 1233.11 220.247 1233.11 218.501V209.44C1233.11 207.694 1234.53 206.275 1236.28 206.275C1238.03 206.275 1239.45 207.694 1239.45 209.44V218.501C1239.45 220.247 1238.03 221.666 1236.28 221.666ZM1236.28 203.528C1234.53 203.528 1233.11 202.108 1233.11 200.362V191.302C1233.11 189.555 1234.53 188.136 1236.28 188.136C1238.03 188.136 1239.45 189.555 1239.45 191.302V200.362C1239.45 202.108 1238.03 203.528 1236.28 203.528ZM1236.28 185.407C1234.53 185.407 1233.11 183.988 1233.11 182.241V173.181C1233.11 171.435 1234.53 170.016 1236.28 170.016C1238.03 170.016 1239.45 171.435 1239.45 173.181V182.241C1239.45 183.988 1238.03 185.407 1236.28 185.407Z" fill="#F58532" fill-opacity="0.15"/>
<path d="M1413.7 464C1411.95 464 1410.53 462.581 1410.53 460.835V451.774C1410.53 450.028 1411.95 448.609 1413.7 448.609C1415.45 448.609 1416.87 450.028 1416.87 451.774V460.835C1416.87 462.581 1415.45 464 1413.7 464ZM1610.21 456.65C1608.46 456.65 1607.04 455.231 1607.04 453.485V444.424C1607.04 442.678 1608.46 441.259 1610.21 441.259C1611.95 441.259 1613.38 442.678 1613.38 444.424V453.485C1613.38 455.231 1611.95 456.65 1610.21 456.65ZM1413.7 445.88C1411.95 445.88 1410.53 444.461 1410.53 442.714V433.654C1410.53 431.907 1411.95 430.488 1413.7 430.488C1415.45 430.488 1416.87 431.907 1416.87 433.654V442.714C1416.87 444.461 1415.45 445.88 1413.7 445.88ZM1610.21 438.53C1608.46 438.53 1607.04 437.111 1607.04 435.364V426.304C1607.04 424.557 1608.46 423.138 1610.21 423.138C1611.95 423.138 1613.38 424.557 1613.38 426.304V435.364C1613.38 437.111 1611.95 438.53 1610.21 438.53ZM1413.7 427.741C1411.95 427.741 1410.53 426.322 1410.53 424.575V415.515C1410.53 413.769 1411.95 412.35 1413.7 412.35C1415.45 412.35 1416.87 413.769 1416.87 415.515V424.575C1416.87 426.322 1415.45 427.741 1413.7 427.741ZM1610.21 420.391C1608.46 420.391 1607.04 418.972 1607.04 417.225V408.165C1607.04 406.419 1608.46 405 1610.21 405C1611.95 405 1613.38 406.419 1613.38 408.165V417.225C1613.38 418.972 1611.95 420.391 1610.21 420.391ZM1413.7 409.602C1411.95 409.602 1410.53 408.183 1410.53 406.437V397.377C1410.53 395.63 1411.95 394.211 1413.7 394.211C1415.45 394.211 1416.87 395.63 1416.87 397.377V406.437C1416.87 408.183 1415.45 409.602 1413.7 409.602ZM1610.21 402.271C1608.46 402.271 1607.04 400.852 1607.04 399.105V390.045C1607.04 388.298 1608.46 386.879 1610.21 386.879C1611.95 386.879 1613.38 388.298 1613.38 390.045V399.105C1613.38 400.852 1611.95 402.271 1610.21 402.271ZM1413.7 391.482C1411.95 391.482 1410.53 390.063 1410.53 388.316V379.256C1410.53 377.51 1411.95 376.091 1413.7 376.091C1415.45 376.091 1416.87 377.51 1416.87 379.256V388.316C1416.87 390.063 1415.45 391.482 1413.7 391.482ZM1610.21 384.132C1608.46 384.132 1607.04 382.713 1607.04 380.966V371.906C1607.04 370.16 1608.46 368.74 1610.21 368.74C1611.95 368.74 1613.38 370.16 1613.38 371.906V380.966C1613.38 382.713 1611.95 384.132 1610.21 384.132ZM1413.7 373.343C1411.95 373.343 1410.53 371.924 1410.53 370.16C1410.53 367.049 1410.68 363.901 1410.97 360.808C1411.13 359.062 1412.68 357.77 1414.43 357.952C1416.18 358.116 1417.45 359.662 1417.29 361.409C1417.02 364.301 1416.87 367.249 1416.87 370.16C1416.87 371.906 1415.45 373.325 1413.7 373.325V373.343ZM1609.93 366.011C1608.29 366.011 1606.89 364.738 1606.77 363.082C1606.55 360.172 1606.18 357.242 1605.69 354.386C1605.4 352.658 1606.55 351.02 1608.28 350.729C1610.02 350.438 1611.65 351.584 1611.94 353.313C1612.46 356.369 1612.85 359.498 1613.08 362.591C1613.21 364.338 1611.9 365.866 1610.15 365.993C1610.08 365.993 1609.99 365.993 1609.92 365.993L1609.93 366.011ZM1415.39 355.332C1415.19 355.332 1414.99 355.314 1414.79 355.278C1413.06 354.95 1411.94 353.294 1412.26 351.566C1412.85 348.51 1413.57 345.453 1414.45 342.469C1414.94 340.778 1416.71 339.813 1418.38 340.304C1420.07 340.796 1421.04 342.56 1420.55 344.234C1419.73 347.036 1419.05 349.892 1418.51 352.749C1418.22 354.277 1416.89 355.332 1415.39 355.332ZM1606.86 348.164C1605.45 348.164 1604.18 347.236 1603.8 345.817C1603.03 342.997 1602.12 340.195 1601.1 337.485C1600.48 335.847 1601.32 334.01 1602.96 333.391C1604.6 332.772 1606.44 333.609 1607.06 335.247C1608.15 338.158 1609.11 341.141 1609.93 344.161C1610.39 345.853 1609.39 347.6 1607.69 348.055C1607.42 348.128 1607.13 348.164 1606.86 348.164ZM1420.44 337.939C1420.06 337.939 1419.66 337.867 1419.27 337.721C1417.63 337.084 1416.85 335.229 1417.49 333.609C1418.64 330.717 1419.93 327.842 1421.35 325.077C1422.15 323.512 1424.06 322.894 1425.63 323.694C1427.19 324.495 1427.81 326.405 1427.01 327.969C1425.68 330.553 1424.46 333.246 1423.41 335.956C1422.91 337.193 1421.71 337.958 1420.46 337.958L1420.44 337.939ZM1600.5 331.226C1599.32 331.226 1598.19 330.571 1597.64 329.443C1596.37 326.823 1594.95 324.24 1593.44 321.766C1592.53 320.274 1593 318.309 1594.49 317.399C1595.99 316.49 1597.93 316.963 1598.86 318.454C1600.48 321.111 1601.99 323.876 1603.36 326.66C1604.13 328.242 1603.47 330.134 1601.9 330.899C1601.45 331.117 1600.98 331.226 1600.52 331.226H1600.5ZM1428.67 321.82C1428.09 321.82 1427.5 321.656 1426.98 321.329C1425.5 320.383 1425.06 318.436 1425.99 316.944C1427.67 314.325 1429.47 311.741 1431.38 309.285C1432.46 307.902 1434.44 307.648 1435.84 308.721C1437.23 309.794 1437.48 311.796 1436.41 313.178C1434.62 315.489 1432.93 317.89 1431.36 320.347C1430.76 321.293 1429.72 321.82 1428.69 321.82H1428.67ZM1591.05 315.78C1590.09 315.78 1589.12 315.343 1588.5 314.506C1586.75 312.178 1584.88 309.904 1582.93 307.739C1581.75 306.447 1581.86 304.427 1583.15 303.263C1584.46 302.081 1586.46 302.19 1587.63 303.481C1589.72 305.792 1591.73 308.212 1593.58 310.704C1594.64 312.105 1594.35 314.088 1592.95 315.143C1592.38 315.562 1591.71 315.78 1591.05 315.78ZM1439.78 307.52C1438.99 307.52 1438.21 307.229 1437.61 306.665C1436.33 305.464 1436.26 303.463 1437.46 302.19C1439.59 299.916 1441.85 297.732 1444.18 295.658C1445.49 294.494 1447.5 294.621 1448.66 295.931C1449.83 297.241 1449.7 299.242 1448.39 300.407C1446.2 302.335 1444.09 304.391 1442.11 306.52C1441.49 307.193 1440.63 307.52 1439.79 307.52H1439.78ZM1578.91 302.353C1578.14 302.353 1577.38 302.081 1576.76 301.517C1574.61 299.552 1572.35 297.66 1570.02 295.895C1568.62 294.84 1568.35 292.838 1569.42 291.456C1570.48 290.055 1572.48 289.782 1573.86 290.855C1576.34 292.729 1578.76 294.749 1581.06 296.859C1582.35 298.042 1582.44 300.043 1581.24 301.335C1580.62 302.008 1579.76 302.353 1578.91 302.353ZM1453.34 295.513C1452.36 295.513 1451.39 295.058 1450.77 294.221C1449.74 292.802 1450.05 290.819 1451.47 289.782C1453.98 287.944 1456.6 286.198 1459.28 284.615C1460.77 283.705 1462.74 284.197 1463.63 285.707C1464.52 287.217 1464.05 289.163 1462.54 290.055C1460.04 291.547 1457.58 293.184 1455.23 294.894C1454.67 295.313 1454.01 295.513 1453.36 295.513H1453.34ZM1564.49 291.401C1563.92 291.401 1563.34 291.256 1562.81 290.928C1560.33 289.382 1557.77 287.944 1555.16 286.653C1553.6 285.87 1552.96 283.96 1553.74 282.395C1554.53 280.831 1556.44 280.194 1558 280.976C1560.79 282.359 1563.54 283.905 1566.18 285.543C1567.67 286.471 1568.13 288.417 1567.2 289.909C1566.6 290.874 1565.56 291.401 1564.5 291.401H1564.49ZM1468.89 286.216C1467.71 286.216 1466.56 285.543 1466.01 284.415C1465.25 282.832 1465.92 280.94 1467.51 280.176C1470.31 278.83 1473.22 277.611 1476.14 276.537C1477.78 275.937 1479.62 276.774 1480.22 278.411C1480.82 280.049 1479.98 281.886 1478.34 282.486C1475.61 283.487 1472.9 284.633 1470.26 285.889C1469.82 286.107 1469.35 286.198 1468.89 286.198V286.216ZM1548.28 283.305C1547.9 283.305 1547.52 283.232 1547.13 283.087C1544.42 282.032 1541.62 281.104 1538.81 280.303C1537.12 279.83 1536.15 278.065 1536.63 276.392C1537.1 274.7 1538.87 273.717 1540.54 274.209C1543.53 275.064 1546.51 276.064 1549.43 277.174C1551.07 277.811 1551.87 279.648 1551.25 281.286C1550.76 282.541 1549.55 283.305 1548.28 283.305ZM1485.88 279.958C1484.48 279.958 1483.18 279.012 1482.82 277.592C1482.37 275.9 1483.39 274.154 1485.08 273.717C1488.08 272.917 1491.16 272.262 1494.24 271.752C1495.97 271.461 1497.61 272.626 1497.9 274.354C1498.19 276.082 1497.02 277.72 1495.29 278.011C1492.42 278.484 1489.54 279.103 1486.72 279.848C1486.44 279.921 1486.17 279.958 1485.9 279.958H1485.88ZM1530.85 278.357C1530.65 278.357 1530.47 278.357 1530.27 278.302C1527.41 277.774 1524.48 277.374 1521.59 277.101C1519.84 276.937 1518.55 275.409 1518.71 273.663C1518.87 271.916 1520.42 270.643 1522.15 270.788C1525.25 271.061 1528.36 271.498 1531.42 272.062C1533.15 272.389 1534.28 274.027 1533.97 275.755C1533.68 277.283 1532.35 278.357 1530.85 278.357ZM1503.74 276.974C1502.09 276.974 1500.7 275.7 1500.57 274.027C1500.45 272.28 1501.76 270.752 1503.51 270.624C1505.96 270.443 1508.48 270.352 1510.95 270.352H1512.79C1514.54 270.352 1515.96 271.771 1515.96 273.517C1515.96 275.264 1514.54 276.683 1512.79 276.683H1510.95C1508.62 276.683 1506.27 276.774 1503.96 276.938C1503.89 276.938 1503.8 276.938 1503.72 276.938L1503.74 276.974Z" fill="#F58532" fill-opacity="0.15"/>
<path d="M21.8325 251.212C21.8325 257.198 16.9527 262.055 10.9075 262.055C4.86228 262.055 -0.0175781 257.198 -0.0175781 251.212C-0.0175781 245.227 4.86228 240.369 10.9075 240.369C16.9527 240.369 21.8325 245.227 21.8325 251.212Z" fill="#F58532" fill-opacity="0.15"/>
<path d="M858.764 432.78C866.598 432.78 872.949 426.467 872.949 418.68C872.949 410.893 866.598 404.58 858.764 404.58C850.931 404.58 844.58 410.893 844.58 418.68C844.58 426.467 850.931 432.78 858.764 432.78Z" fill="#F58532" fill-opacity="0.15"/>
<path d="M971.73 422.21C977.763 422.21 982.655 417.355 982.655 411.367C982.655 405.378 977.763 400.523 971.73 400.523C965.696 400.523 960.805 405.378 960.805 411.367C960.805 417.355 965.696 422.21 971.73 422.21Z" fill="#F58532" fill-opacity="0.15"/>
<path d="M1736.65 463.091C1734.9 463.091 1733.48 461.672 1733.48 459.925V214.754C1733.48 213.007 1734.9 211.588 1736.65 211.588C1738.39 211.588 1739.82 213.007 1739.82 214.754V459.925C1739.82 461.672 1738.39 463.091 1736.65 463.091Z" fill="#F58532" fill-opacity="0.15"/>
</g>
<defs>
<clipPath id="clip0_2001_81">
<rect width="2053" height="464" fill="white"/>
</clipPath>
</defs>
</svg>
