<svg width="197" height="88" viewBox="0 0 197 88" fill="#fff" xmlns="http://www.w3.org/2000/svg">
<path d="M39.5829 66.9024V59.2177C39.2353 59.9904 38.3548 61.1052 36.9412 62.5699C35.5277 64.0345 33.6623 65.3531 31.3412 66.5256C29.02 67.6982 26.3088 68.2863 23.2152 68.2863C18.573 68.2863 14.51 67.16 11.0264 64.9072C7.54273 62.6545 4.83538 59.629 2.90046 55.8347C0.965531 52.0404 0 47.8348 0 43.2101C0 38.5854 0.965531 34.3798 2.90046 30.5855C4.83538 26.7912 7.54273 23.758 11.0264 21.486C14.51 19.2141 18.573 18.0762 23.2152 18.0762C26.1929 18.0762 28.8076 18.549 31.0515 19.4909C33.2954 20.4366 35.1145 21.5514 36.5087 22.8431C37.9029 24.1348 38.8684 25.3188 39.4091 26.3952V19.464H56.9393V66.8985H39.5829V66.9024ZM17.2946 43.2178C17.2946 45.3744 17.7967 47.3119 18.8047 49.0226C19.8088 50.7372 21.1567 52.075 22.8368 53.0361C24.5206 54.001 26.386 54.4815 28.4368 54.4815C30.4876 54.4815 32.4419 54.001 34.0678 53.0361C35.6938 52.075 36.9799 50.7333 37.9261 49.0226C38.8723 47.3081 39.3473 45.3744 39.3473 43.2178C39.3473 41.0611 38.8723 39.1275 37.9261 37.4129C36.976 35.6984 35.6899 34.3529 34.0678 33.3687C32.4419 32.3884 30.5649 31.8964 28.4368 31.8964C26.3088 31.8964 24.5206 32.3884 22.8368 33.3687C21.1529 34.3529 19.8088 35.6984 18.8047 37.4129C17.7967 39.1275 17.2946 41.0611 17.2946 43.2178Z" fill="#fff"/>
<path d="M58.1562 19.4713H66.2822V0H83.7544V19.4713H94.4332V33.9143H83.7544V47.1463C83.7544 49.1107 84.0441 50.6984 84.6234 51.9132C85.2027 53.128 86.2687 53.7315 87.8174 53.7315C88.864 53.7315 89.7523 53.5009 90.4861 53.0396C91.2199 52.5782 91.6641 52.2707 91.8224 52.1169L97.8589 64.5955C97.5886 64.8261 96.7466 65.2528 95.3331 65.8679C93.9195 66.483 92.1314 67.0404 89.9647 67.544C87.7981 68.0438 85.3804 68.2937 82.7078 68.2937C77.9496 68.2937 74.0219 66.9559 70.9244 64.2802C67.827 61.6046 66.2822 57.472 66.2822 51.8863V33.9181H58.1562V19.4751V19.4713Z" fill="#fff"/>
<path d="M135.468 66.9024V59.2177C135.12 59.9904 134.24 61.1052 132.826 62.5699C131.412 64.0345 129.547 65.3531 127.226 66.5256C124.905 67.6982 122.194 68.2863 119.1 68.2863C114.458 68.2863 110.395 67.16 106.911 64.9072C103.427 62.6545 100.72 59.629 98.7852 55.8347C96.8503 52.0404 95.8848 47.8348 95.8848 43.2101C95.8848 38.5854 96.8503 34.3798 98.7852 30.5855C100.72 26.7912 103.427 23.758 106.911 21.486C110.395 19.2141 114.458 18.0762 119.1 18.0762C122.078 18.0762 124.692 18.549 126.936 19.4909C129.18 20.4366 130.999 21.5514 132.393 22.8431C133.788 24.1348 134.753 25.3188 135.298 26.3952V19.464H152.828V66.8985H135.472L135.468 66.9024ZM113.179 43.2178C113.179 45.3744 113.681 47.3119 114.689 49.0226C115.694 50.7372 117.041 52.075 118.722 53.0361C120.405 54.001 122.271 54.4815 124.322 54.4815C126.372 54.4815 128.327 54.001 129.953 53.0361C131.579 52.075 132.865 50.7333 133.811 49.0226C134.757 47.3081 135.232 45.3744 135.232 43.2178C135.232 41.0611 134.757 39.1275 133.811 37.4129C132.861 35.6984 131.575 34.3529 129.953 33.3687C128.327 32.3884 126.45 31.8964 124.322 31.8964C122.194 31.8964 120.405 32.3884 118.722 33.3687C117.038 34.3529 115.694 35.6984 114.689 37.4129C113.681 39.1275 113.179 41.0611 113.179 43.2178Z" fill="#fff"/>
<path d="M171.802 66.9026H154.156V19.4718H171.802V26.8106H171.513C171.822 25.9264 172.575 24.8 173.776 23.4314C174.973 22.0629 176.657 20.8327 178.824 19.7332C180.99 18.6338 183.64 18.0879 186.776 18.0879C188.981 18.0879 191.013 18.4262 192.87 19.0989C194.728 19.7717 196.083 20.4175 196.933 21.0365L190.086 35.3064C189.545 34.6529 188.587 33.9686 187.212 33.2574C185.837 32.5462 184.126 32.1887 182.076 32.1887C179.716 32.1887 177.769 32.7846 176.244 33.9802C174.714 35.1757 173.594 36.6173 172.876 38.3127C172.158 40.008 171.802 41.6072 171.802 43.1065V66.9103V66.9026Z" fill="#fff"/>
<path d="M28.2676 79.708H28.7194V87.435H28.2676V79.708Z" fill="#fff"/>
<path d="M33.0516 80.6117V87.4391H32.6113V79.4814H32.7851L38.196 86.5395V79.7121H38.6362V87.6698H38.4625L33.0516 80.6117Z" fill="#fff"/>
<path d="M44.3257 80.1232H41.7188V79.708H47.3845V80.1232H44.7776V87.435H44.3257V80.1232Z" fill="#fff"/>
<path d="M50.4668 79.708H54.2903V80.1232H50.9187V83.2255H53.5372V83.6407H50.9187V87.0198H54.3482V87.435H50.4668V79.708Z" fill="#fff"/>
<path d="M57.7207 79.708H58.1726V87.0198H61.4863V87.435H57.7207V79.708Z" fill="#fff"/>
<path d="M64.7422 79.708H65.1941V87.435H64.7422V79.708Z" fill="#fff"/>
<path d="M68.625 83.599C68.625 81.3731 70.363 79.6201 72.518 79.6201C73.5956 79.6201 74.6267 80.0468 75.3219 80.808L74.9743 81.0963C74.3603 80.4274 73.4565 80.0584 72.518 80.0584C70.6179 80.0584 69.1 81.6153 69.1 83.6105C69.1 85.6057 70.502 87.0934 72.5412 87.0934C73.5145 87.0934 74.395 86.7474 75.067 86.1016V83.8181H72.379V83.4029H75.5189V86.2515C74.7658 87.0703 73.6882 87.5316 72.5296 87.5316C70.305 87.5316 68.625 85.7787 68.625 83.599Z" fill="#fff"/>
<path d="M79.1191 79.7077H82.9426V80.1229H79.571V83.2252H82.1895V83.6404H79.571V87.0195H83.0006V87.4347H79.1191V79.7077ZM79.6405 78.5929L81.0309 77.5088L82.4213 78.5929L82.1779 78.8812L81.0309 78.0047L79.8838 78.8812L79.6405 78.5929Z" fill="#fff"/>
<path d="M86.8133 80.6117V87.4391H86.373V79.4814H86.5468L91.9577 86.5395V79.7121H92.398V87.6698H92.2242L86.8133 80.6117Z" fill="#fff"/>
<path d="M95.8281 83.6056C95.8281 81.3682 97.5545 79.6152 99.7443 79.6152C100.822 79.6152 101.83 80.0419 102.525 80.8031L102.177 81.0914C101.563 80.4225 100.683 80.0535 99.7443 80.0535C97.8094 80.0535 96.3032 81.6104 96.3032 83.6056C96.3032 85.6008 97.7051 87.0885 99.7443 87.0885C100.694 87.0885 101.598 86.7541 102.282 86.016L102.606 86.2927C101.818 87.1346 100.764 87.5268 99.698 87.5268C97.4502 87.5268 95.8281 85.7738 95.8281 83.6056Z" fill="#fff"/>
<path d="M105.92 79.708H106.372V87.435H105.92V79.708Z" fill="#fff"/>
<path d="M112.617 79.4814H112.791L115.71 87.4391H115.224L114.366 85.0864H111.018L110.161 87.4391H109.686L112.617 79.4814ZM114.216 84.6674L112.698 80.504L111.169 84.6674H114.216Z" fill="#fff"/>
<path d="M123.148 79.708H125.489C127.945 79.708 129.753 81.3457 129.753 83.56C129.753 85.7743 127.945 87.435 125.489 87.435H123.148V79.708ZM125.489 87.0198C127.679 87.0198 129.278 85.5552 129.278 83.56C129.278 81.5648 127.69 80.1232 125.489 80.1232H123.6V87.0198H125.489Z" fill="#fff"/>
<path d="M133.184 79.708H133.635V87.435H133.184V79.708Z" fill="#fff"/>
<path d="M137.064 83.599C137.064 81.3731 138.802 79.6201 140.957 79.6201C142.035 79.6201 143.066 80.0468 143.761 80.808L143.414 81.0963C142.8 80.4274 141.896 80.0584 140.957 80.0584C139.057 80.0584 137.539 81.6153 137.539 83.6105C137.539 85.6057 138.941 87.0934 140.981 87.0934C141.954 87.0934 142.834 86.7474 143.506 86.1016V83.8181H140.818V83.4029H143.958V86.2515C143.205 87.0703 142.128 87.5316 140.969 87.5316C138.744 87.5316 137.064 85.7787 137.064 83.599Z" fill="#fff"/>
<path d="M147.562 79.708H148.014V87.435H147.562V79.708Z" fill="#fff"/>
<path d="M153.701 80.1232H151.094V79.708H156.759V80.1232H154.153V87.435H153.701V80.1232Z" fill="#fff"/>
<path d="M161.267 79.4814H161.441L164.361 87.4391H163.874L163.017 85.0864H159.668L158.811 87.4391H158.336L161.267 79.4814ZM162.866 84.6674L161.348 80.504L159.819 84.6674H162.866Z" fill="#fff"/>
<path d="M167.676 79.708H168.128V87.0198H171.441V87.435H167.676V79.708Z" fill="#fff"/>
</svg>
