<svg width="62" height="67" viewBox="0 0 62 67" fill="none" xmlns="http://www.w3.org/2000/svg">
<g clip-path="url(#clip0_2048_467)">
<path d="M31 67C30.7404 67 30.4837 66.9697 30.2301 66.9121C28.1651 66.4361 20.9102 64.3928 14.2561 58.0717C10.0807 54.1093 6.76578 49.1343 4.40485 43.2893C1.48237 36.0648 0 27.4518 0 17.6898V11.0959C0 9.27389 1.41897 7.76109 3.22741 7.64891C9.22633 7.27905 15.02 6.16036 20.4543 4.32014C24.4757 2.95891 27.5009 1.4552 29.3304 0.436561C30.375 -0.14552 31.6219 -0.14552 32.6665 0.436561C34.4961 1.4552 37.5212 2.95588 41.5427 4.32014C46.974 6.16036 52.7706 7.28208 58.7696 7.64891C60.581 7.76109 61.997 9.27389 61.997 11.0959V17.6898C61.997 27.4518 60.5146 36.0648 57.5951 43.2893C55.2312 49.1343 51.9162 54.1093 47.7439 58.0717C41.0898 64.3897 33.8319 66.4361 31.7668 66.9121C31.5163 66.9697 31.2566 67 30.997 67H31ZM31 3.39548C31 3.39548 30.9789 3.39548 30.9698 3.40457C29.0195 4.49294 25.7981 6.09063 21.5352 7.53674C15.82 9.47398 9.73052 10.6503 3.43572 11.0383C3.40251 11.0383 3.37836 11.0656 3.37836 11.099V17.6929C3.37836 27.0152 4.7762 35.1977 7.53263 42.019C9.71241 47.4124 12.7556 51.9872 16.5748 55.613C22.61 61.3429 29.1312 63.1831 30.9849 63.6106C30.994 63.6106 31.003 63.6106 31.0121 63.6106C32.8658 63.1831 39.387 61.3429 45.4222 55.613C49.2443 51.9841 52.2846 47.4124 54.4643 42.019C57.2208 35.2008 58.6186 27.0152 58.6186 17.6929V11.099C58.6186 11.0656 58.5945 11.0414 58.5613 11.0383C52.2665 10.6503 46.177 9.47398 40.4618 7.53674C36.1989 6.09367 32.9775 4.49294 31.0272 3.40457C31.0181 3.39851 31.0091 3.39548 30.997 3.39548H31Z" fill="#7821C8"/>
<path d="M23.7636 46.9542L14.8724 38.0259C14.0451 37.1952 14.0451 35.8491 14.8724 35.0185L17.2393 32.6416C18.0666 31.8109 19.407 31.8109 20.2343 32.6416L25.2611 37.6894L41.7664 21.1152C42.5936 20.2845 43.9341 20.2845 44.7613 21.1152L47.1283 23.492C47.9555 24.3227 47.9555 25.6688 47.1283 26.4995L26.7585 46.9542C25.9313 47.7848 24.5908 47.7848 23.7636 46.9542Z" stroke="#7821C8" stroke-width="2" stroke-miterlimit="10"/>
</g>
<defs>
<clipPath id="clip0_2048_467">
<rect width="62" height="67" fill="white"/>
</clipPath>
</defs>
</svg>
