<svg width="79" height="81" viewBox="0 0 79 81" fill="none" xmlns="http://www.w3.org/2000/svg">
<g clip-path="url(#clip0_2021_114)">
<path d="M59.92 71.32H18.16C18.03 71.32 17.91 71.28 17.8 71.21C6.97 64.05 0.5 52.02 0.5 39.05C0.5 17.79 17.79 0.5 39.04 0.5C60.29 0.5 77.59 17.79 77.59 39.05C77.59 52.02 71.12 64.04 60.28 71.22C60.17 71.29 60.05 71.33 59.92 71.33V71.32ZM18.35 70.02H59.72C70.1 63.08 76.28 51.51 76.28 39.05C76.29 18.51 59.58 1.8 39.04 1.8C18.5 1.8 1.8 18.51 1.8 39.05C1.8 51.52 7.99 63.08 18.35 70.02Z" fill="black" stroke="black" stroke-miterlimit="10"/>
<path d="M62.3703 64.9901H15.7203C15.3603 64.9901 15.0703 64.7001 15.0703 64.3401V47.2001C15.0703 46.9301 15.2303 46.6901 15.4803 46.6001L31.5203 40.3001C31.7603 40.2001 32.0303 40.2601 32.2103 40.4401L38.8003 46.7801L45.9003 40.4201C46.0803 40.2601 46.3403 40.2101 46.5703 40.3001L62.6103 46.6001C62.8603 46.7001 63.0203 46.9401 63.0203 47.2101V64.3501C63.0203 64.7101 62.7303 65.0001 62.3703 65.0001V64.9901ZM16.3703 63.6801H61.7203V47.6301L46.4603 41.6301L39.2103 48.1201C38.9603 48.3501 38.5703 48.3401 38.3303 48.1001L31.6103 41.6301L16.3803 47.6201V63.6701L16.3703 63.6801Z" fill="black" stroke="black" stroke-miterlimit="10"/>
<path d="M54.4995 64.9604H23.5895C23.2295 64.9604 22.9395 64.6704 22.9395 64.3104V53.5504C22.9395 53.1904 23.2295 52.9004 23.5895 52.9004C23.9495 52.9004 24.2395 53.1904 24.2395 53.5504V63.6604H53.8495V53.5504C53.8495 53.1904 54.1395 52.9004 54.4995 52.9004C54.8595 52.9004 55.1495 53.1904 55.1495 53.5504V64.3104C55.1495 64.6704 54.8595 64.9604 54.4995 64.9604Z" fill="black" stroke="black" stroke-miterlimit="10"/>
<path d="M46.7499 49.7702H31.3199C30.9599 49.7702 30.6699 49.4802 30.6699 49.1202V40.8902C30.6699 40.5302 30.9599 40.2402 31.3199 40.2402C31.6799 40.2402 31.9699 40.5302 31.9699 40.8902V48.4702H46.0999V40.8902C46.0999 40.5302 46.3899 40.2402 46.7499 40.2402C47.1099 40.2402 47.3999 40.5302 47.3999 40.8902V49.1202C47.3999 49.4802 47.1099 49.7702 46.7499 49.7702Z" fill="black" stroke="black" stroke-miterlimit="10"/>
<path d="M41.3603 55.1409H36.7203C36.3603 55.1409 36.0703 54.8509 36.0703 54.4909V49.1109C36.0703 48.7509 36.3603 48.4609 36.7203 48.4609H41.3603C41.7203 48.4609 42.0103 48.7509 42.0103 49.1109V54.4909C42.0103 54.8509 41.7203 55.1409 41.3603 55.1409ZM37.3703 53.8409H40.7103V49.7609H37.3703V53.8409Z" fill="black" stroke="black" stroke-miterlimit="10"/>
<path d="M43.2502 64.9896H34.3602C34.1602 64.9896 33.9702 64.8996 33.8502 64.7396C33.7302 64.5796 33.6802 64.3796 33.7302 64.1896L36.0902 54.3496C36.1602 54.0596 36.4202 53.8496 36.7202 53.8496H41.3602C41.6702 53.8496 41.9402 54.0696 42.0002 54.3796L43.8902 64.2196C43.9302 64.4096 43.8802 64.6096 43.7502 64.7596C43.6302 64.9096 43.4402 64.9996 43.2502 64.9996V64.9896ZM35.1802 63.6796H42.4602L40.8202 55.1396H37.2302L35.1802 63.6796Z" fill="black" stroke="black" stroke-miterlimit="10"/>
<path d="M39.2491 37.5391C32.5191 37.5391 27.0391 32.0591 27.0391 25.3191C27.0391 18.5791 32.5191 13.1191 39.2491 13.1191C45.9791 13.1191 51.4591 18.5891 51.4591 25.3191C51.4591 32.0491 45.9791 37.5391 39.2491 37.5391ZM39.2491 14.4191C33.2291 14.4191 28.3391 19.3091 28.3391 25.3191C28.3391 31.3291 33.2291 36.2391 39.2491 36.2391C45.2691 36.2391 50.1591 31.3391 50.1591 25.3191C50.1591 19.2991 45.2691 14.4191 39.2491 14.4191Z" fill="black" stroke="black" stroke-miterlimit="10"/>
<path d="M48.0204 23.3198C45.0204 23.3198 42.1204 22.4098 40.0504 20.8198C39.7704 20.5998 39.7104 20.1898 39.9304 19.9098C40.1504 19.6298 40.5604 19.5698 40.8404 19.7898C43.2204 21.6198 46.9104 22.4198 50.3504 21.8198C50.7004 21.7698 51.0404 21.9998 51.1004 22.3498C51.1604 22.6998 50.9204 23.0398 50.5704 23.0998C49.7304 23.2398 48.8804 23.3198 48.0204 23.3198Z" fill="black" stroke="black" stroke-miterlimit="10"/>
<path d="M33.1599 23.1002C31.3799 23.1002 29.6699 22.8002 28.0799 22.1902C27.7399 22.0602 27.5699 21.6902 27.6999 21.3502C27.8299 21.0102 28.1999 20.8402 28.5399 20.9702C29.9799 21.5102 31.5399 21.7902 33.1599 21.7902C38.4999 21.7902 42.8399 18.7702 42.8399 15.0602C42.8399 14.7002 43.1299 14.4102 43.4899 14.4102C43.8499 14.4102 44.1399 14.7002 44.1399 15.0602C44.1399 19.4902 39.2099 23.0902 33.1599 23.0902V23.1002Z" fill="black" stroke="black" stroke-miterlimit="10"/>
<path d="M73.5694 75.7902H4.50938C4.14938 75.7902 3.85938 75.5002 3.85938 75.1402C3.85938 74.7802 4.14938 74.4902 4.50938 74.4902H73.5794C73.9394 74.4902 74.2294 74.7802 74.2294 75.1402C74.2294 75.5002 73.9394 75.7902 73.5794 75.7902H73.5694Z" fill="black" stroke="black" stroke-miterlimit="10"/>
<path d="M73.5694 79.6105H4.50938C4.14938 79.6105 3.85938 79.3205 3.85938 78.9605C3.85938 78.6005 4.14938 78.3105 4.50938 78.3105H73.5794C73.9394 78.3105 74.2294 78.6005 74.2294 78.9605C74.2294 79.3205 73.9394 79.6105 73.5794 79.6105H73.5694Z" fill="black" stroke="black" stroke-miterlimit="10"/>
</g>
<defs>
<clipPath id="clip0_2021_114">
<rect width="78.09" height="80.11" fill="white"/>
</clipPath>
</defs>
</svg>
