<svg width="82" height="58" viewBox="0 0 82 58" fill="none" xmlns="http://www.w3.org/2000/svg">
<path fill-rule="evenodd" clip-rule="evenodd" d="M14.496 25.1599H31.2737V0.641636C31.2737 0.33054 31.6277 0 32.2571 0H49.7035C50.0182 0 50.687 0.33054 50.687 0.641636V14.9909H67.1499C67.7597 14.9909 68.1334 15.3215 68.1334 15.9631V49.4254C68.1334 49.756 67.7793 50.3976 67.1499 50.3976H14.496C14.1813 50.3976 13.5126 49.756 13.5126 49.4254V26.171C13.5126 25.5293 14.1813 25.1988 14.496 25.1988V25.1599ZM0.609739 58C0.295035 58 0 57.6889 0 57.3973C0 56.7362 0.314704 56.4251 0.609739 56.4251H80.9969C81.6066 56.4251 81.9803 56.7362 81.9803 57.3973C81.9803 57.7083 81.6263 58 80.9969 58H0.609739ZM50.6673 16.877V48.4532H66.1468V16.877H50.6673ZM32.9259 26.1321V48.4532H48.7201V1.59437H32.9259V26.1321ZM31.2737 26.7737H15.4795V48.4532H31.2737V26.7737Z" fill="black"/>
</svg>
