<svg width="29" height="29" viewBox="0 0 29 29" fill="none" xmlns="http://www.w3.org/2000/svg">
<g clip-path="url(#clip0_2018_55)">
<path d="M26.6325 0H2.36751C1.06192 0 0 1.06192 0 2.36751V26.6325C0 27.9378 1.06192 29 2.36751 29H26.6325C27.9378 29 29 27.9381 29 26.6325V2.36751C29 1.06224 27.9381 0 26.6325 0ZM26.9708 26.6325C26.9708 26.8188 26.8191 26.9708 26.6325 26.9708H2.36751C2.18118 26.9708 2.02925 26.8191 2.02925 26.6325V2.36751C2.02925 2.18118 2.18086 2.02925 2.36751 2.02925H26.6325C26.8188 2.02925 26.9708 2.18086 26.9708 2.36751V26.6325Z" fill="#F58532"/>
<path d="M12.0746 17.0117L8.78724 14.3824L6.04102 17.8159L12.8827 23.2877L23.3478 9.23552L19.8215 6.60938L12.0746 17.0117Z" fill="#F58532"/>
</g>
<defs>
<clipPath id="clip0_2018_55">
<rect width="29" height="29" fill="white"/>
</clipPath>
</defs>
</svg>
