<svg width="57" height="78" viewBox="0 0 57 78" fill="none" xmlns="http://www.w3.org/2000/svg">
<g clip-path="url(#clip0_2049_544)">
<path d="M56.0644 22.4356C54.4169 15.0365 49.9976 8.72365 43.6255 4.6612C39.0899 1.77267 33.8711 0.243164 28.5263 0.243164C18.7816 0.243164 9.85582 5.17753 4.64184 13.4388C0.600526 19.8442 -0.71266 27.4479 0.934879 34.847C2.58242 42.2462 7.0017 48.559 13.3738 52.6215C15.0553 53.6931 16.8385 54.5796 18.6798 55.2665V61.5696C18.6798 61.6427 18.6944 61.7157 18.7235 61.7839C18.7864 61.9398 20.2886 65.4177 24.5625 65.8999L24.6158 68.5108H23.3608C23.2154 68.5108 23.0749 68.5693 22.9731 68.6716C22.8714 68.7738 22.8132 68.9151 22.8132 69.0612V71.3019H21.2917C20.9912 71.3019 20.7441 71.5503 20.7441 71.8523V77.2008C20.7441 77.3469 20.8023 77.4881 20.904 77.5904C21.0058 77.6927 21.1463 77.7512 21.2917 77.7512L46.5136 77.6586C46.814 77.6586 47.0563 77.4151 47.0611 77.1131L47.1096 71.8231C47.1096 71.677 47.0514 71.5357 46.9497 71.4286C46.8479 71.3263 46.7074 71.2678 46.562 71.2678H45.1858V69.0272C45.1858 68.881 45.1277 68.7398 45.0259 68.6375C44.9242 68.5352 44.7836 68.4767 44.6383 68.4767H43.7031L43.7757 66.5965C45.0405 66.4406 48.0933 65.4031 48.2047 59.0805L48.3307 48.8659C49.8377 47.3705 51.1897 45.69 52.3575 43.839C56.3988 37.4336 57.7168 29.8299 56.0644 22.4259V22.4356ZM48.3501 47.2731L48.4761 37.2046C48.4761 37.1608 48.4761 37.117 48.4615 37.078C48.2822 36.2937 47.3567 34.7983 45.1228 34.7691H45.0598C43.7321 34.7691 42.9229 35.3001 42.4674 35.8943C41.9683 35.3098 41.0573 34.7155 39.4291 34.696C39.4001 34.696 39.371 34.696 39.3419 34.7009C39.2595 34.7107 37.8252 34.9396 37.0111 35.8407C36.4975 35.2075 35.572 34.6473 34.0165 34.6278H33.9341C32.9117 34.6278 32.2042 34.8714 31.7148 35.2075L31.7923 28.9385C34.5931 28.1835 37.0354 26.4055 38.6344 23.8726C42.0943 18.3878 40.471 11.0958 35.0147 7.61792C33.1346 6.41965 30.9685 5.78641 28.7492 5.78641C24.7079 5.78641 21.0058 7.83225 18.8446 11.2615C17.168 13.9211 16.6204 17.0726 17.3085 20.1414C17.9918 23.2101 19.8234 25.8307 22.4692 27.5161C23.4383 28.1348 24.4802 28.5975 25.5704 28.9092L25.5026 34.545C25.0471 33.225 23.6273 31.072 19.2516 30.9064C19.1014 30.8966 18.956 30.9551 18.8494 31.0574C18.7428 31.1597 18.6798 31.3058 18.6798 31.4519V54.0877C17.042 53.4496 15.4623 52.6507 13.9601 51.6911C7.83516 47.7894 3.59032 41.7201 2.00578 34.6035C0.421235 27.4869 1.68596 20.1803 5.57222 14.0233C10.5778 6.08354 19.1596 1.34402 28.5263 1.34402C33.6628 1.34402 38.6829 2.8102 43.0392 5.59157C49.1642 9.49327 53.409 15.5626 54.9935 22.6792C56.5781 29.7958 55.3134 37.1023 51.4271 43.2593C50.5161 44.706 49.4791 46.0456 48.3452 47.2731H48.3501ZM47.221 49.9181L47.1047 59.0707C46.9933 65.218 43.9696 65.5297 43.3639 65.5297C43.3251 65.5297 43.296 65.5297 43.2912 65.5297C43.1409 65.5151 42.9907 65.5638 42.8793 65.6613C42.7678 65.7587 42.7 65.9048 42.6903 66.0558L42.5982 68.4865V68.5498L25.7061 68.5595V68.506L25.6383 65.3885C25.6334 65.1011 25.4057 64.8673 25.1198 64.8527C21.4952 64.6578 20.0318 62.0031 19.7701 61.4576V32.0413C24.4608 32.4456 24.611 35.4608 24.6158 35.5777L24.5819 49.012C24.5819 49.0607 24.5868 49.1095 24.6013 49.1582C24.8048 49.918 25.2361 50.0301 25.4735 50.0301C25.9387 50.0301 26.2391 49.6063 26.3215 49.4797C26.3748 49.392 26.4039 49.2946 26.4039 49.1923L26.651 29.1674V28.6072L26.6656 28.0471L26.7092 24.6958V24.121L26.7237 23.5414L26.8012 17.4331C26.84 17.2187 27.1404 15.9084 28.8074 15.9718C29.6117 16.0059 30.1884 16.2202 30.5179 16.6147C30.9249 17.1018 30.8426 17.7351 30.8426 17.7399C30.8426 17.7643 30.8377 17.7887 30.8377 17.813L30.765 23.5414V24.121L30.7505 24.7007L30.7069 28.0666V28.6267L30.6923 29.1869L30.5954 37.1705C30.5954 37.1705 30.5954 37.19 30.5954 37.1949C30.5954 37.1949 30.5954 37.1949 30.5954 37.1998C30.61 37.492 30.8426 37.721 31.1333 37.7258C31.4386 37.7258 31.6809 37.4872 31.6857 37.19C31.6906 37.0341 31.8069 35.7336 33.9341 35.7336H34.002C36.2407 35.7628 36.449 37.0634 36.4636 37.1998C36.4878 37.4872 36.7252 37.7064 37.0111 37.7064C37.297 37.7064 37.5345 37.4823 37.5539 37.1949C37.6265 36.1963 39.1965 35.8505 39.4582 35.8018C41.6485 35.8505 41.9586 37.1852 41.9731 37.2339C42.0216 37.5018 42.259 37.682 42.5255 37.682C42.7921 37.6771 43.0198 37.4725 43.0537 37.2046C43.0731 37.0682 43.2863 35.8748 45.0502 35.8748H45.0986C46.8285 35.8992 47.2792 36.9952 47.3664 37.2728L47.2259 48.408L47.2162 49.1679L47.2065 49.9229L47.221 49.9181ZM44.0907 71.2581H43.4608C43.4123 71.2581 43.3639 71.2678 43.3202 71.2776L24.7273 71.3019C24.6885 71.2922 24.6497 71.2873 24.611 71.2873H23.9084V69.6117H24.9647C25.0277 69.636 25.1004 69.6555 25.1779 69.6555L43.1313 69.6458C43.2185 69.6458 43.3057 69.6214 43.3784 69.5825H44.0907V71.2581ZM45.9708 76.5626L21.8392 76.6503V72.4028H24.4462L43.6643 72.3736H46.0096L45.9708 76.5578V76.5626ZM31.8553 24.2866C33.1152 23.6972 34.1958 22.7571 34.9663 21.5345C37.142 18.0858 36.1195 13.4973 32.6888 11.3053C31.5064 10.5503 30.1448 10.1509 28.7492 10.1509C26.2052 10.1509 23.8744 11.4368 22.5176 13.5947C20.3419 17.0434 21.3644 21.6319 24.7951 23.819C25.0616 23.9895 25.3427 24.1405 25.6237 24.272L25.5801 27.7548C24.6982 27.4772 23.8454 27.0826 23.0507 26.576C20.652 25.0465 18.9948 22.6743 18.3746 19.8929C17.7543 17.1116 18.2486 14.2523 19.7701 11.8411C21.7278 8.73339 25.0859 6.87752 28.7541 6.87752C30.765 6.87752 32.7275 7.45231 34.4332 8.53855C39.3807 11.6901 40.8538 18.3001 37.7186 23.2735C36.3279 25.48 34.2297 27.0485 31.8165 27.7792L31.8602 24.2769L31.8553 24.2866ZM31.3707 15.9182C30.8377 15.2655 29.9897 14.9147 28.851 14.866C28.7928 14.866 28.7347 14.866 28.6814 14.866C26.5929 14.866 25.8273 16.4637 25.7158 17.3113C25.7158 17.3357 25.7158 17.3551 25.711 17.3795L25.6383 23.0494C25.5511 23.0007 25.4638 22.952 25.3815 22.8984C22.4595 21.0376 21.5873 17.1311 23.4432 14.189C24.6013 12.3526 26.5832 11.2566 28.7492 11.2566C29.9364 11.2566 31.0945 11.5976 32.1024 12.2405C35.0244 14.1013 35.8966 18.0079 34.0407 20.95C33.4835 21.8316 32.7372 22.5428 31.8698 23.0445L31.9328 17.8569C31.9571 17.6377 32.0104 16.7024 31.3707 15.923V15.9182Z" fill="#7821C8" stroke="#7821C8" stroke-miterlimit="10"/>
</g>
<defs>
<clipPath id="clip0_2049_544">
<rect width="57" height="78" fill="white"/>
</clipPath>
</defs>
</svg>
