<svg width="40" height="40" viewBox="0 0 40 40" fill="none" xmlns="http://www.w3.org/2000/svg">
<g clip-path="url(#clip0_2001_127)">
<path d="M34.9494 0H5.05062C2.26124 0 0 2.26124 0 5.05062V34.9494C0 37.7388 2.26124 40 5.05062 40H34.9494C37.7388 40 40 37.7388 40 34.9494V5.05062C40 2.26124 37.7388 0 34.9494 0Z" fill="black"/>
<path d="M28.659 10.7603C27.8718 9.97313 26.5962 9.97313 25.8091 10.7603L20.0016 16.5678L14.1942 10.7603C13.407 9.97313 12.1315 9.97313 11.3443 10.7603C10.5571 11.5475 10.5571 12.823 11.3443 13.6102L17.1517 19.4176L11.3443 25.2251C10.5571 26.0123 10.5571 27.2878 11.3443 28.075C11.7371 28.4678 12.2543 28.665 12.77 28.665C13.2857 28.665 13.8013 28.4678 14.1957 28.075L20.0031 22.2675L25.8106 28.075C26.2034 28.4678 26.7206 28.665 27.2363 28.665C27.752 28.665 28.2677 28.4678 28.662 28.075C29.4492 27.2878 29.4492 26.0123 28.662 25.2251L22.8545 19.4176L28.662 13.6102C29.4492 12.823 29.4492 11.5475 28.662 10.7603H28.659Z" fill="white"/>
</g>
<defs>
<clipPath id="clip0_2001_127">
<rect width="40" height="40" fill="white"/>
</clipPath>
</defs>
</svg>
