<svg width="57" height="71" viewBox="0 0 57 71" fill="none" xmlns="http://www.w3.org/2000/svg">
<g clip-path="url(#clip0_2040_92)">
<path d="M18.7476 51.7892C18.3959 51.7892 18.0718 51.5271 17.9718 51.123L17.2496 48.2382C17.2041 48.0548 17.0764 47.9077 16.9181 47.8569C15.8876 47.5357 15.0699 47.145 14.568 46.8787C14.4403 46.8102 14.2962 46.8145 14.1603 46.8745L11.3331 48.2569C10.534 48.6475 9.62002 48.4496 9.00618 47.7563L4.51369 42.6623C3.89836 41.969 3.72362 40.935 4.07012 40.0304L5.27986 36.8835C5.34782 36.7043 5.34856 36.5064 5.2821 36.3644C4.79223 35.3126 4.54879 34.3428 4.4308 33.7138C4.39496 33.5253 4.25456 33.3646 4.07161 33.3046L1.54309 32.5141C0.632044 32.2199 -0.00195312 31.278 -0.00195312 30.2127V23.2536C-0.00195312 22.1832 0.634284 21.2371 1.54458 20.9522L4.16122 20.1295C4.32625 20.0788 4.45768 19.9317 4.50174 19.7482C4.77879 18.5908 5.09691 17.6853 5.31496 17.134C5.37246 16.9869 5.37246 16.8305 5.3172 16.6842L4.06862 13.4367C3.72063 12.5321 3.89537 11.4938 4.51294 10.7955L9.00469 5.70993C9.62076 5.01157 10.5333 4.82303 11.3293 5.20434L14.0819 6.55456C14.241 6.62812 14.4149 6.62305 14.5434 6.55034C15.2685 6.10054 16.0586 5.75981 16.8845 5.53999C17.0734 5.49434 17.2183 5.34215 17.2668 5.14938L17.9695 2.33817C18.2264 1.31345 19.0598 0.601562 19.9985 0.601562H26.1577C27.0941 0.601562 27.9275 1.31345 28.1844 2.32887L28.8998 5.15361C28.9476 5.34215 29.0753 5.48926 29.2336 5.53492C30.3971 5.8841 31.267 6.29246 31.683 6.50383C31.8025 6.55879 31.9369 6.56386 32.0683 6.49961L34.8365 5.19081C35.6244 4.8002 36.5302 5.01664 37.141 5.70063L41.6529 10.809C42.2585 11.4981 42.437 12.5177 42.1092 13.4139L40.9816 16.4821C40.9316 16.62 40.9457 16.7899 41.0219 16.9463C41.5424 18.0395 41.8068 19.0642 41.9382 19.7305C41.98 19.9461 42.1085 20.1076 42.2832 20.1625L44.6415 20.9437C45.5503 21.2557 46.1566 22.1747 46.1566 23.2358V30.2271C46.1566 31.2788 45.5338 32.2207 44.6422 32.5191L42.216 33.3232C41.7941 33.4568 41.3415 33.1896 41.2161 32.7035C41.0914 32.2165 41.3356 31.7109 41.7635 31.5688L44.1889 30.7648C44.401 30.6955 44.5436 30.4799 44.5436 30.2271V23.2358C44.5436 22.9881 44.3958 22.7674 44.1822 22.6939L41.8307 21.9177C41.0929 21.6742 40.5306 20.9852 40.3633 20.1262C40.255 19.5749 40.034 18.7252 39.6023 17.8155C39.2947 17.1721 39.2536 16.4331 39.4918 15.7846L40.6194 12.7164C40.6963 12.505 40.6538 12.2666 40.5111 12.1009L36.0015 6.99759C35.8566 6.83188 35.6468 6.7913 35.4616 6.87331L32.6881 8.18718C32.1445 8.44928 31.553 8.4349 31.0236 8.17365C30.6495 7.98088 29.8706 7.61817 28.8221 7.30112C28.1194 7.09482 27.5519 6.46494 27.348 5.66089L26.6326 2.83616C26.5707 2.59266 26.3802 2.43202 26.1562 2.43202H19.997C19.7759 2.43202 19.5803 2.59773 19.5205 2.83616L18.8163 5.65244C18.605 6.48862 18.0031 7.13202 17.2444 7.32479C16.5656 7.50403 15.9129 7.78389 15.3088 8.1559C14.739 8.50508 14.0632 8.53298 13.4464 8.23368L10.6894 6.88345C10.5027 6.8006 10.2884 6.8471 10.1427 7.00774L5.65025 12.0933C5.50688 12.2539 5.46581 12.5025 5.54571 12.713L6.79429 15.9605C7.0325 16.5802 7.02952 17.2608 6.78607 17.8806C6.59042 18.3769 6.30665 19.1851 6.05574 20.2276C5.86383 21.0317 5.30227 21.67 4.58986 21.8949L1.96949 22.7175C1.75517 22.7818 1.60731 23.0025 1.60731 23.2553V30.2144C1.60731 30.4621 1.75741 30.6878 1.97247 30.7563L4.50025 31.5469C5.26791 31.7903 5.84441 32.4752 6.00571 33.3384C6.10204 33.8533 6.30068 34.6472 6.70468 35.5113C7.00189 36.1496 7.0213 36.9122 6.7577 37.6064L5.54571 40.7575C5.46431 40.9688 5.50538 41.2123 5.64951 41.373L10.1427 46.467C10.2891 46.6327 10.5019 46.6733 10.6901 46.582L13.5203 45.1996C14.0811 44.9147 14.7069 44.9426 15.2476 45.2275C15.6971 45.4668 16.4245 45.8109 17.349 46.1051C18.0457 46.3258 18.5998 46.9548 18.7977 47.7453L19.5198 50.6301C19.6415 51.112 19.3921 51.6176 18.9642 51.7554C18.8903 51.7783 18.8163 51.7918 18.7439 51.7918L18.7476 51.7892Z" fill="black"/>
<path d="M21.4225 41.2603C21.3859 41.2603 21.3493 41.2561 21.3127 41.251C14.9414 40.2677 10.1367 34.0247 10.1367 26.73C10.1367 18.6498 15.9428 12.0762 23.0788 12.0762C30.2148 12.0762 36.0216 18.6498 36.0216 26.73C36.0216 28.7101 35.6796 30.6302 35.0045 32.4352C34.8312 32.9036 34.3556 33.1285 33.9478 32.9222C33.5379 32.7244 33.3467 32.1917 33.5199 31.7276C34.1106 30.1474 34.4093 28.4657 34.4093 26.73C34.4093 19.6559 29.3261 13.9041 23.0795 13.9041C16.8329 13.9041 11.7505 19.655 11.7505 26.73C11.7505 33.115 15.9547 38.5819 21.5307 39.4409C21.9721 39.5093 22.2812 39.9693 22.2215 40.4698C22.1655 40.9289 21.8197 41.2603 21.4232 41.2603H21.4225Z" fill="black"/>
<path d="M18.8923 33.4013C18.7108 33.4013 18.5294 33.332 18.3793 33.1899C16.6699 31.5912 15.6895 29.239 15.6895 26.7314C15.6895 22.1193 19.0043 18.3662 23.0786 18.3662C27.1529 18.3662 30.4693 22.1193 30.4693 26.7314C30.4693 27.3426 30.4118 27.9531 30.296 28.5415C30.199 29.0378 29.7673 29.3363 29.3342 29.2348C28.9003 29.1249 28.6255 28.6379 28.7219 28.1458C28.8115 27.6867 28.857 27.2133 28.857 26.7314C28.857 23.1254 26.2658 20.1941 23.0794 20.1941C19.893 20.1941 17.3024 23.1246 17.3024 26.7314C17.3024 28.6929 18.0694 30.5352 19.4061 31.7848C19.7496 32.106 19.7989 32.6801 19.5143 33.0707C19.3553 33.2863 19.1245 33.4013 18.8923 33.4013Z" fill="black"/>
<path d="M32.6346 57.0115C32.3456 57.0115 32.0663 56.8373 31.9214 56.5245L21.9418 35.292C21.4892 34.3315 21.4048 33.1885 21.7095 32.1544C22.0187 31.1069 22.6781 30.2665 23.5667 29.7981C25.2701 28.907 27.3184 29.7338 28.2429 31.6911L35.532 47.2039C35.7411 47.6495 35.5917 48.2007 35.1982 48.4349C34.8047 48.6691 34.3178 48.5085 34.1079 48.0579L26.8196 32.5493C26.3073 31.4654 25.1491 30.9733 24.25 31.451C23.7661 31.708 23.4069 32.1629 23.2389 32.7328C23.0716 33.3026 23.1164 33.9037 23.3643 34.4322L33.3455 55.6688C33.5546 56.1144 33.4052 56.6657 33.0117 56.8999C32.8922 56.9734 32.7623 57.0098 32.6346 57.0098V57.0115Z" fill="black"/>
<path d="M34.8186 48.5453C34.5296 48.5453 34.2503 48.3712 34.1055 48.0583L31.1057 41.6775C30.1932 39.7346 30.8459 37.309 32.5634 36.2749C33.3938 35.7786 34.3474 35.6594 35.2502 35.9807C36.1523 36.2885 36.8916 36.9818 37.3344 37.9236L39.8002 43.1698C40.0093 43.6154 39.86 44.1666 39.4664 44.4008C39.0759 44.635 38.586 44.4744 38.3762 44.0237L35.9104 38.7775C35.6699 38.2677 35.2682 37.8957 34.779 37.7258C34.2892 37.5601 33.7709 37.6201 33.3191 37.8822C32.3872 38.447 32.0332 39.7608 32.529 40.8219L35.5288 47.2027C35.7379 47.6483 35.5885 48.1995 35.195 48.4337C35.0755 48.5073 34.9456 48.5436 34.8179 48.5436L34.8186 48.5453Z" fill="black"/>
<path d="M45.4994 45.0266C45.2104 45.0266 44.9311 44.8525 44.7863 44.5397L41.8246 38.2417C41.3288 37.1849 40.1676 36.7951 39.2334 37.3463C38.3022 37.9111 37.9475 39.225 38.4433 40.2818L39.8017 43.1717C40.0108 43.6172 39.8614 44.1685 39.4686 44.4027C39.0743 44.6369 38.5874 44.4762 38.3768 44.0256L37.0185 41.1358C36.5764 40.1939 36.4838 39.1142 36.7586 38.0946C37.0334 37.0749 37.6428 36.2388 38.4762 35.7382C40.1937 34.7051 42.3339 35.4398 43.2487 37.3878L46.2103 43.6857C46.4194 44.1271 46.2701 44.6825 45.8773 44.9167C45.7563 44.9903 45.6271 45.0266 45.4987 45.0266H45.4994Z" fill="black"/>
<path d="M40.2343 70.8207C38.1456 70.8207 36.1667 70.0445 34.7336 68.5379C32.4665 66.1494 30.3995 64.0357 28.0442 62.2856L22.3151 58.0362C21.6378 57.5585 21.1516 56.7545 20.9978 55.8447C20.8454 54.9494 21.0284 54.0211 21.4996 53.2906C21.7483 52.905 22.044 52.5601 22.3808 52.2658C23.8093 51.0027 25.8487 50.8784 27.5678 51.9353L33.0176 55.2935C33.4089 55.537 33.553 56.0925 33.3402 56.5338C33.1274 56.9701 32.6405 57.1307 32.2469 56.9016L26.7971 53.5434C25.6561 52.8357 24.2805 52.9093 23.371 53.7091C23.1507 53.9018 22.9603 54.1225 22.8012 54.366C22.5914 54.6924 22.5122 55.0965 22.5809 55.5006C22.6511 55.9141 22.8707 56.2768 23.1843 56.4975L28.9284 60.7603C31.3882 62.584 33.5105 64.7569 35.8306 67.1961C37.8641 69.3369 41.3305 69.5939 44.26 67.8344L51.7881 63.3002C53.4392 62.3033 54.6265 60.5803 55.1291 58.4488C55.6384 56.2945 55.3897 53.9788 54.4279 51.9353L48.4777 39.2751C48.2373 38.7653 47.8355 38.3933 47.3464 38.2233C46.8587 38.0492 46.3368 38.1176 45.8865 38.3797C45.4354 38.6554 45.1046 39.1102 44.9545 39.6615C44.8052 40.217 44.8559 40.8003 45.0964 41.3152L46.2098 43.6859C46.4189 44.1315 46.2696 44.6828 45.876 44.917C45.4817 45.1605 44.9948 44.9947 44.7857 44.5399L43.6723 42.1692C43.2288 41.2273 43.1369 40.1476 43.4125 39.128C43.6873 38.1083 44.2966 37.2722 45.13 36.7716C45.9619 36.266 46.9155 36.1604 47.8168 36.4774C48.7189 36.7852 49.4582 37.4785 49.901 38.4203L55.8512 51.0805C57.0042 53.5332 57.3007 56.3174 56.6861 58.9223C56.0663 61.5449 54.5959 63.6722 52.5438 64.9083L45.0165 69.4425C43.4886 70.3658 41.8293 70.8207 40.2328 70.8207H40.2343Z" fill="black"/>
</g>
<defs>
<clipPath id="clip0_2040_92">
<rect width="57" height="70.2194" fill="white" transform="translate(0 0.601562)"/>
</clipPath>
</defs>
</svg>
