<svg width="54" height="80" viewBox="0 0 54 80" fill="none" xmlns="http://www.w3.org/2000/svg">
<mask id="path-1-inside-1_2301_2" fill="white">
<path d="M5.23207 52.2235C5.50246 53.2845 5.89976 54.2979 6.40191 55.2695C6.58952 55.6331 6.52882 56.0802 6.25292 56.3783L3.53802 59.311L7.51104 63.6029L10.248 60.6701C10.5184 60.378 10.9378 60.3303 11.2744 60.5092C12.1738 61.0516 13.1119 61.4808 14.0941 61.7729C14.4694 61.8861 14.7232 62.2498 14.7232 62.6551V66.8099H20.3461V62.6551C20.3461 62.2498 20.5944 61.8861 20.9752 61.7729C21.9574 61.4808 22.9175 61.0516 23.7949 60.5092C24.1315 60.3065 24.5454 60.3721 24.8213 60.6701L27.5583 63.6029L31.5313 59.311L28.8164 56.3783C28.546 56.0862 28.4798 55.6331 28.6674 55.2695C29.1695 54.3217 29.5668 53.2845 29.8372 52.2235C29.9421 51.8182 30.2787 51.544 30.6539 51.544H34.5221V45.4936H30.6539C30.2787 45.4936 29.9421 45.2254 29.8372 44.8141C29.5668 43.753 29.1695 42.7397 28.6674 41.7681C28.4798 41.4044 28.5405 40.9574 28.8164 40.6593L31.5313 37.7266L27.5583 33.4347L24.8213 36.3675C24.5509 36.6596 24.1315 36.7072 23.7949 36.5284C22.8955 35.986 21.9574 35.5568 20.9752 35.2647C20.5999 35.1514 20.3461 34.7878 20.3461 34.3825V30.2277H14.7232V34.3825C14.7232 34.7878 14.4749 35.1514 14.0941 35.2647C13.1119 35.5568 12.1518 35.986 11.2744 36.5284C10.9378 36.7311 10.5239 36.6655 10.248 36.3675L7.51104 33.4347L3.53802 37.7266L6.25292 40.6593C6.5233 40.9514 6.58952 41.4044 6.40191 41.7681C5.89976 42.7158 5.50246 43.753 5.23207 44.8141C5.12723 45.2194 4.79063 45.4936 4.4154 45.4936H0.552734V51.544H4.42091C4.79614 51.544 5.13275 51.8122 5.23759 52.2235H5.23207ZM17.5264 41.4104C21.1849 41.4104 24.1536 44.5935 24.1536 48.5218C24.1536 52.45 21.1849 55.6331 17.5264 55.6331C13.8679 55.6331 10.9212 52.45 10.9212 48.5218C10.9212 44.5935 13.8679 41.4104 17.5264 41.4104Z"/>
<path d="M50.5245 23.2594C50.6294 22.8541 50.966 22.5799 51.3412 22.5799H53.4546V19.4444H51.3412C50.966 19.4444 50.6294 19.1762 50.5245 18.7649C50.359 18.133 50.1272 17.5012 49.8127 16.911C49.6251 16.5474 49.6858 16.1004 49.9617 15.8023L51.4681 14.1988L49.3988 11.9873L47.8924 13.6147C47.622 13.9067 47.2026 13.9544 46.866 13.7756C46.3253 13.4358 45.7348 13.1914 45.1499 13.0066C44.7747 12.8934 44.5209 12.5298 44.5209 12.1244V9.8414H41.5963V12.1244C41.5963 12.5298 41.3479 12.8934 40.9672 13.0066C40.3602 13.1855 39.7974 13.4358 39.2511 13.7756C38.9145 13.9783 38.5006 13.9127 38.2247 13.6147L36.7183 11.9873L34.649 14.1988L36.1554 15.8023C36.4258 16.0944 36.492 16.5474 36.3044 16.911C35.9899 17.4952 35.7636 18.1092 35.5926 18.7649C35.4877 19.1702 35.1511 19.4444 34.7759 19.4444H32.6625V22.6037H34.7759C35.1511 22.6037 35.4877 22.872 35.5926 23.2833C35.7581 23.9151 35.9899 24.547 36.3044 25.1371C36.492 25.5007 36.4313 25.9478 36.1554 26.2458L34.649 27.8493L36.7183 30.0608L38.2247 28.4335C38.4951 28.1414 38.9145 28.0937 39.2511 28.2725C39.7918 28.6123 40.3823 28.8567 40.9672 29.0415C41.3424 29.1548 41.5963 29.5184 41.5963 29.9237V32.2067H44.5209V29.9237C44.5209 29.5184 44.7692 29.1548 45.1499 29.0415C45.7569 28.8627 46.3197 28.6123 46.866 28.2725C47.2026 28.0699 47.6165 28.1354 47.8924 28.4335L49.3988 30.0608L51.4681 27.8493L49.9617 26.2458C49.6913 25.9537 49.6251 25.5007 49.8127 25.1371C50.1272 24.5291 50.3535 23.9151 50.5245 23.2654V23.2594ZM43.0862 25.5186C40.7851 25.5186 38.9034 23.5098 38.9034 21.0241C38.9034 18.5384 40.763 16.5295 43.0862 16.5295C45.4093 16.5295 47.2689 18.5384 47.2689 21.0241C47.2468 23.5098 45.3872 25.5186 43.0862 25.5186Z"/>
<path d="M27.2823 27.0985C27.4479 27.0985 27.619 27.0508 27.7624 26.9375C28.1597 26.6693 28.2646 26.0792 27.9942 25.6738C24.2529 19.6473 24.9868 11.5167 29.771 6.39027C32.5521 3.40981 36.3762 1.74076 40.283 1.83017C44.0022 1.89574 47.3903 3.52307 49.8568 6.36643C49.8789 6.41411 49.9175 6.432 49.9396 6.47968H47.7269C47.2689 6.47968 46.8716 6.88503 46.8716 7.40362C46.8716 7.92222 47.2468 8.32757 47.7269 8.32757H51.9703C52.202 8.32757 52.4117 8.23815 52.5773 8.05933C52.7428 7.8805 52.8256 7.65398 52.8256 7.40362V2.84353C52.8256 2.59317 52.7207 2.36665 52.5773 2.18783C52.4283 2.02688 52.202 1.91958 51.9703 1.91958C51.5123 1.91958 51.115 2.32493 51.115 2.84353V5.14444L51.0929 5.12059C48.3118 1.9017 44.4877 0.0955455 40.305 0.000170845C35.9347 -0.0892429 31.6527 1.75864 28.557 5.10271C23.2045 10.861 22.3713 19.9335 26.5705 26.711C26.7361 26.9375 27.012 27.0925 27.2823 27.0925V27.0985Z"/>
<path d="M40.763 39.2227C40.3657 39.5148 40.283 40.0811 40.5313 40.4865C46.5515 50.0358 45.4203 62.9293 37.8164 71.1017C33.4461 75.8227 27.7017 78.1713 21.9519 78.1713C16.202 78.1713 10.5846 75.8704 6.21429 71.2626L8.72502 71.2388C9.18302 71.2388 9.56377 70.8335 9.56377 70.3149C9.56377 69.7963 9.18854 69.4088 8.70847 69.4088L4.15053 69.4326C3.91877 69.4326 3.70908 69.5221 3.54354 69.7009C3.37799 69.8797 3.29522 70.1062 3.29522 70.3566L3.35592 75.167C3.35592 75.6618 3.73115 76.0731 4.21123 76.0731H4.2333C4.6913 76.0731 5.07205 75.6439 5.07205 75.1492L5.0279 72.5741C9.70724 77.5395 15.8323 80.0014 21.9574 80.0014C28.0825 80.0014 34.3069 77.4739 39.0304 72.4131C47.2026 63.6088 48.4332 49.7438 41.9549 39.4731C41.6846 39.0439 41.1603 38.9545 40.763 39.2227Z"/>
</mask>
<path d="M27.2823 27.0985C27.4479 27.0985 27.619 27.0508 27.7624 26.9375C28.1597 26.6693 28.2646 26.0792 27.9942 25.6738C24.2529 19.6473 24.9868 11.5167 29.771 6.39027C32.5521 3.40981 36.3762 1.74076 40.283 1.83017C44.0022 1.89574 47.3903 3.52307 49.8568 6.36643C49.8789 6.41411 49.9175 6.432 49.9396 6.47968H47.7269C47.2689 6.47968 46.8716 6.88503 46.8716 7.40362C46.8716 7.92222 47.2468 8.32757 47.7269 8.32757H51.9703C52.202 8.32757 52.4117 8.23815 52.5773 8.05933C52.7428 7.8805 52.8256 7.65398 52.8256 7.40362V2.84353C52.8256 2.59317 52.7207 2.36665 52.5773 2.18783C52.4283 2.02688 52.202 1.91958 51.9703 1.91958C51.5123 1.91958 51.115 2.32493 51.115 2.84353V5.14444L51.0929 5.12059C48.3118 1.9017 44.4877 0.0955455 40.305 0.000170845C35.9347 -0.0892429 31.6527 1.75864 28.557 5.10271C23.2045 10.861 22.3713 19.9335 26.5705 26.711C26.7361 26.9375 27.012 27.0925 27.2823 27.0925V27.0985Z" fill="white"/>
<path d="M40.763 39.2227C40.3657 39.5148 40.283 40.0811 40.5313 40.4865C46.5515 50.0358 45.4203 62.9293 37.8164 71.1017C33.4461 75.8227 27.7017 78.1713 21.9519 78.1713C16.202 78.1713 10.5846 75.8704 6.21429 71.2626L8.72502 71.2388C9.18302 71.2388 9.56377 70.8335 9.56377 70.3149C9.56377 69.7963 9.18854 69.4088 8.70847 69.4088L4.15053 69.4326C3.91877 69.4326 3.70908 69.5221 3.54354 69.7009C3.37799 69.8797 3.29522 70.1062 3.29522 70.3566L3.35592 75.167C3.35592 75.6618 3.73115 76.0731 4.21123 76.0731H4.2333C4.6913 76.0731 5.07205 75.6439 5.07205 75.1492L5.0279 72.5741C9.70724 77.5395 15.8323 80.0014 21.9574 80.0014C28.0825 80.0014 34.3069 77.4739 39.0304 72.4131C47.2026 63.6088 48.4332 49.7438 41.9549 39.4731C41.6846 39.0439 41.1603 38.9545 40.763 39.2227Z" fill="white"/>
<path d="M5.23207 52.2235C5.50246 53.2845 5.89976 54.2979 6.40191 55.2695C6.58952 55.6331 6.52882 56.0802 6.25292 56.3783L3.53802 59.311L7.51104 63.6029L10.248 60.6701C10.5184 60.378 10.9378 60.3303 11.2744 60.5092C12.1738 61.0516 13.1119 61.4808 14.0941 61.7729C14.4694 61.8861 14.7232 62.2498 14.7232 62.6551V66.8099H20.3461V62.6551C20.3461 62.2498 20.5944 61.8861 20.9752 61.7729C21.9574 61.4808 22.9175 61.0516 23.7949 60.5092C24.1315 60.3065 24.5454 60.3721 24.8213 60.6701L27.5583 63.6029L31.5313 59.311L28.8164 56.3783C28.546 56.0862 28.4798 55.6331 28.6674 55.2695C29.1695 54.3217 29.5668 53.2845 29.8372 52.2235C29.9421 51.8182 30.2787 51.544 30.6539 51.544H34.5221V45.4936H30.6539C30.2787 45.4936 29.9421 45.2254 29.8372 44.8141C29.5668 43.753 29.1695 42.7397 28.6674 41.7681C28.4798 41.4044 28.5405 40.9574 28.8164 40.6593L31.5313 37.7266L27.5583 33.4347L24.8213 36.3675C24.5509 36.6596 24.1315 36.7072 23.7949 36.5284C22.8955 35.986 21.9574 35.5568 20.9752 35.2647C20.5999 35.1514 20.3461 34.7878 20.3461 34.3825V30.2277H14.7232V34.3825C14.7232 34.7878 14.4749 35.1514 14.0941 35.2647C13.1119 35.5568 12.1518 35.986 11.2744 36.5284C10.9378 36.7311 10.5239 36.6655 10.248 36.3675L7.51104 33.4347L3.53802 37.7266L6.25292 40.6593C6.5233 40.9514 6.58952 41.4044 6.40191 41.7681C5.89976 42.7158 5.50246 43.753 5.23207 44.8141C5.12723 45.2194 4.79063 45.4936 4.4154 45.4936H0.552734V51.544H4.42091C4.79614 51.544 5.13275 51.8122 5.23759 52.2235H5.23207ZM17.5264 41.4104C21.1849 41.4104 24.1536 44.5935 24.1536 48.5218C24.1536 52.45 21.1849 55.6331 17.5264 55.6331C13.8679 55.6331 10.9212 52.45 10.9212 48.5218C10.9212 44.5935 13.8679 41.4104 17.5264 41.4104Z" stroke="#7821C8" stroke-width="2" mask="url(#path-1-inside-1_2301_2)"/>
<path d="M50.5245 23.2594C50.6294 22.8541 50.966 22.5799 51.3412 22.5799H53.4546V19.4444H51.3412C50.966 19.4444 50.6294 19.1762 50.5245 18.7649C50.359 18.133 50.1272 17.5012 49.8127 16.911C49.6251 16.5474 49.6858 16.1004 49.9617 15.8023L51.4681 14.1988L49.3988 11.9873L47.8924 13.6147C47.622 13.9067 47.2026 13.9544 46.866 13.7756C46.3253 13.4358 45.7348 13.1914 45.1499 13.0066C44.7747 12.8934 44.5209 12.5298 44.5209 12.1244V9.8414H41.5963V12.1244C41.5963 12.5298 41.3479 12.8934 40.9672 13.0066C40.3602 13.1855 39.7974 13.4358 39.2511 13.7756C38.9145 13.9783 38.5006 13.9127 38.2247 13.6147L36.7183 11.9873L34.649 14.1988L36.1554 15.8023C36.4258 16.0944 36.492 16.5474 36.3044 16.911C35.9899 17.4952 35.7636 18.1092 35.5926 18.7649C35.4877 19.1702 35.1511 19.4444 34.7759 19.4444H32.6625V22.6037H34.7759C35.1511 22.6037 35.4877 22.872 35.5926 23.2833C35.7581 23.9151 35.9899 24.547 36.3044 25.1371C36.492 25.5007 36.4313 25.9478 36.1554 26.2458L34.649 27.8493L36.7183 30.0608L38.2247 28.4335C38.4951 28.1414 38.9145 28.0937 39.2511 28.2725C39.7918 28.6123 40.3823 28.8567 40.9672 29.0415C41.3424 29.1548 41.5963 29.5184 41.5963 29.9237V32.2067H44.5209V29.9237C44.5209 29.5184 44.7692 29.1548 45.1499 29.0415C45.7569 28.8627 46.3197 28.6123 46.866 28.2725C47.2026 28.0699 47.6165 28.1354 47.8924 28.4335L49.3988 30.0608L51.4681 27.8493L49.9617 26.2458C49.6913 25.9537 49.6251 25.5007 49.8127 25.1371C50.1272 24.5291 50.3535 23.9151 50.5245 23.2654V23.2594ZM43.0862 25.5186C40.7851 25.5186 38.9034 23.5098 38.9034 21.0241C38.9034 18.5384 40.763 16.5295 43.0862 16.5295C45.4093 16.5295 47.2689 18.5384 47.2689 21.0241C47.2468 23.5098 45.3872 25.5186 43.0862 25.5186Z" stroke="#7821C8" stroke-width="2" mask="url(#path-1-inside-1_2301_2)"/>
<path d="M27.2823 27.0985C27.4479 27.0985 27.619 27.0508 27.7624 26.9375C28.1597 26.6693 28.2646 26.0792 27.9942 25.6738C24.2529 19.6473 24.9868 11.5167 29.771 6.39027C32.5521 3.40981 36.3762 1.74076 40.283 1.83017C44.0022 1.89574 47.3903 3.52307 49.8568 6.36643C49.8789 6.41411 49.9175 6.432 49.9396 6.47968H47.7269C47.2689 6.47968 46.8716 6.88503 46.8716 7.40362C46.8716 7.92222 47.2468 8.32757 47.7269 8.32757H51.9703C52.202 8.32757 52.4117 8.23815 52.5773 8.05933C52.7428 7.8805 52.8256 7.65398 52.8256 7.40362V2.84353C52.8256 2.59317 52.7207 2.36665 52.5773 2.18783C52.4283 2.02688 52.202 1.91958 51.9703 1.91958C51.5123 1.91958 51.115 2.32493 51.115 2.84353V5.14444L51.0929 5.12059C48.3118 1.9017 44.4877 0.0955455 40.305 0.000170845C35.9347 -0.0892429 31.6527 1.75864 28.557 5.10271C23.2045 10.861 22.3713 19.9335 26.5705 26.711C26.7361 26.9375 27.012 27.0925 27.2823 27.0925V27.0985Z" stroke="#7821C8" stroke-width="2" mask="url(#path-1-inside-1_2301_2)"/>
<path d="M40.763 39.2227C40.3657 39.5148 40.283 40.0811 40.5313 40.4865C46.5515 50.0358 45.4203 62.9293 37.8164 71.1017C33.4461 75.8227 27.7017 78.1713 21.9519 78.1713C16.202 78.1713 10.5846 75.8704 6.21429 71.2626L8.72502 71.2388C9.18302 71.2388 9.56377 70.8335 9.56377 70.3149C9.56377 69.7963 9.18854 69.4088 8.70847 69.4088L4.15053 69.4326C3.91877 69.4326 3.70908 69.5221 3.54354 69.7009C3.37799 69.8797 3.29522 70.1062 3.29522 70.3566L3.35592 75.167C3.35592 75.6618 3.73115 76.0731 4.21123 76.0731H4.2333C4.6913 76.0731 5.07205 75.6439 5.07205 75.1492L5.0279 72.5741C9.70724 77.5395 15.8323 80.0014 21.9574 80.0014C28.0825 80.0014 34.3069 77.4739 39.0304 72.4131C47.2026 63.6088 48.4332 49.7438 41.9549 39.4731C41.6846 39.0439 41.1603 38.9545 40.763 39.2227Z" stroke="#7821C8" stroke-width="2" mask="url(#path-1-inside-1_2301_2)"/>
</svg>
