<svg width="103" height="80" viewBox="0 0 103 80" fill="none" xmlns="http://www.w3.org/2000/svg">
<path d="M19.3459 51.4336H3.65226C3.33672 51.4336 3.03683 51.499 2.76301 51.6141C2.48919 51.7292 2.24406 51.8992 2.03544 52.1059C1.82942 52.3125 1.65991 52.561 1.54517 52.8357C1.43043 53.1104 1.36523 53.4112 1.36523 53.7277V67.49C1.36523 67.8065 1.43043 68.1073 1.54517 68.382C1.65991 68.6567 1.82942 68.9026 2.03544 69.1118C2.24145 69.3185 2.48919 69.4885 2.76301 69.6036C3.03683 69.7187 3.33672 69.7841 3.65226 69.7841H19.3459C19.6615 69.7841 19.9614 69.7187 20.2352 69.6036C20.509 69.4885 20.7541 69.3185 20.9628 69.1118C21.1688 68.9052 21.3383 68.6567 21.453 68.382C21.5678 68.1073 21.633 67.8065 21.633 67.49V53.7277C21.633 53.4112 21.5678 53.1104 21.453 52.8357C21.3383 52.561 21.1688 52.3152 20.9628 52.1059C20.7567 51.8992 20.509 51.7292 20.2352 51.6141C19.9614 51.499 19.6615 51.4336 19.3459 51.4336ZM19.1529 67.2964H3.84524V53.9187H19.1503V67.2964H19.1529Z" fill="black"/>
<path d="M44.2187 30.3301H28.5256C28.21 30.3301 27.9101 30.3939 27.6362 30.5063C27.3624 30.6187 27.1172 30.7847 26.9086 30.9865C26.7025 31.1883 26.533 31.4309 26.4182 31.6991C26.3035 31.9673 26.2383 32.261 26.2383 32.57V67.5437C26.2383 67.8528 26.3035 68.1465 26.4182 68.4147C26.533 68.6829 26.7025 68.9229 26.9086 69.1273C27.1146 69.329 27.3624 69.4951 27.6362 69.6075C27.9101 69.7198 28.21 69.7837 28.5256 69.7837H44.2187C44.5343 69.7837 44.8342 69.7198 45.108 69.6075C45.3819 69.4951 45.6271 69.329 45.8357 69.1273C46.0418 68.9255 46.2113 68.6829 46.326 68.4147C46.4408 68.1465 46.506 67.8528 46.506 67.5437V32.57C46.506 32.261 46.4408 31.9673 46.326 31.6991C46.2113 31.4309 46.0418 31.1908 45.8357 30.9865C45.6297 30.7847 45.3819 30.6187 45.108 30.5063C44.8342 30.3939 44.5343 30.3301 44.2187 30.3301ZM44.0257 67.3522H28.7186V32.7591H44.0257V67.3547V67.3522Z" fill="black"/>
<path d="M61.2497 67.3158H53.5959V4.35197H68.9036V32.4445C68.9036 32.6156 68.9375 32.7763 69.0001 32.924C69.0627 33.0718 69.1539 33.204 69.2661 33.3155C69.3782 33.4269 69.5112 33.5177 69.6599 33.5799C69.8085 33.6421 69.9702 33.6758 70.1423 33.6758C70.3144 33.6758 70.4761 33.6421 70.6247 33.5799C70.7734 33.5177 70.9064 33.4269 71.0185 33.3155C71.1307 33.204 71.2219 33.0718 71.2845 32.924C71.3471 32.7763 71.381 32.6156 71.381 32.4445V4.16015C71.381 3.84648 71.3158 3.54837 71.2011 3.27618C71.0863 3.00399 70.9168 2.76032 70.7108 2.55293C70.5048 2.34814 70.257 2.17965 69.9832 2.06559C69.7094 1.95153 69.4095 1.88672 69.094 1.88672H53.4003C53.0848 1.88672 52.7849 1.95153 52.5111 2.06559C52.2372 2.17965 51.9921 2.34814 51.7835 2.55293C51.5775 2.75772 51.408 3.00399 51.2932 3.27618C51.1785 3.54837 51.1133 3.84648 51.1133 4.16015V67.5102C51.1133 67.8239 51.1785 68.122 51.2932 68.3942C51.408 68.6664 51.5775 68.91 51.7835 69.1174C51.9895 69.3248 52.2372 69.4907 52.5111 69.6048C52.7849 69.7188 53.0848 69.7836 53.4003 69.7836H61.2471C61.4193 69.7836 61.5809 69.7499 61.7296 69.6877C61.8782 69.6255 62.0112 69.5348 62.1234 69.4233C62.2355 69.3118 62.3268 69.1796 62.3894 69.0319C62.4519 68.8841 62.4858 68.7234 62.4858 68.5523C62.4858 68.3812 62.4519 68.2205 62.3894 68.0727C62.3268 67.925 62.2355 67.7928 62.1234 67.6813C62.0112 67.5698 61.8782 67.4791 61.7296 67.4169C61.5809 67.3547 61.4193 67.321 61.2471 67.321L61.2497 67.3158Z" fill="black"/>
<path d="M87.931 51.7034C87.652 50.3361 87.1378 49.0591 86.4375 47.9192C85.7373 46.7765 84.8484 45.7681 83.8227 44.9296C82.797 44.091 81.629 43.4224 80.3708 42.9648C79.1126 42.5072 77.7614 42.2578 76.3637 42.2578C76.1832 42.2578 76.0136 42.2934 75.8577 42.3592C75.7018 42.425 75.5623 42.5209 75.4447 42.6387C75.327 42.7565 75.2313 42.8963 75.1657 43.0525C75.1 43.2087 75.0645 43.3786 75.0645 43.5594C75.0645 43.7403 75.1 43.9102 75.1657 44.0664C75.2313 44.2226 75.327 44.3623 75.4447 44.4802C75.5623 44.598 75.7018 44.6939 75.8577 44.7597C76.0136 44.8254 76.1859 44.861 76.3637 44.861C77.4523 44.861 78.5054 45.0556 79.4873 45.4118C80.4693 45.7681 81.3801 46.2887 82.1788 46.9436C82.9802 47.5986 83.6722 48.385 84.2165 49.2756C84.7636 50.1662 85.1629 51.1609 85.3817 52.2268C85.4146 52.3803 85.472 52.5228 85.5486 52.6488C85.6279 52.7749 85.7236 52.8872 85.8385 52.9777C85.9534 53.0681 86.0792 53.1421 86.2187 53.1914C86.3555 53.2407 86.5032 53.2681 86.6564 53.2681C86.6782 53.2681 86.7001 53.2681 86.722 53.2681C86.7439 53.2681 86.7658 53.2681 86.7876 53.2626C86.8095 53.2626 86.8314 53.2572 86.8533 53.2544C86.8752 53.2517 86.8971 53.2462 86.9189 53.2435C87.094 53.2078 87.2554 53.1366 87.3949 53.0407C87.5344 52.9448 87.652 52.8242 87.745 52.6845C87.8352 52.5447 87.9009 52.3885 87.9364 52.2241C87.9693 52.0569 87.972 51.8816 87.9364 51.7062L87.931 51.7034Z" fill="black"/>
<path d="M101.337 71.8799C101.217 71.7597 101.077 71.6683 100.929 71.6083C100.78 71.5482 100.622 71.5169 100.463 71.5169C100.304 71.5169 100.146 71.5482 99.9975 71.6083C99.8493 71.6683 99.7089 71.7597 99.5893 71.8799L99.4332 72.0366L90.789 63.3559C91.2519 62.6534 91.668 61.917 92.0321 61.1518C92.3935 60.3867 92.703 59.5901 92.9552 58.7675C93.2075 57.9449 93.3999 57.0988 93.53 56.2318C93.66 55.3647 93.7276 54.4768 93.7276 53.5732C93.7276 51.1289 93.2335 48.7968 92.3389 46.6763C91.4443 44.5557 90.1493 42.6441 88.5499 41.038C86.9506 39.432 85.047 38.1314 82.9353 37.2331C80.8237 36.3347 78.504 35.8359 76.0673 35.8359C73.6305 35.8359 71.3108 36.3321 69.1992 37.2331C67.0875 38.1314 65.1839 39.432 63.5846 41.038C61.9853 42.6441 60.6902 44.5557 59.7956 46.6763C58.901 48.7968 58.4043 51.1289 58.4043 53.5732C58.4043 56.0176 58.8984 58.3497 59.7956 60.4702C60.6902 62.5908 61.9853 64.5024 63.5846 66.1085C65.1839 67.7145 67.0875 69.015 69.1992 69.9134C71.3108 70.8118 73.6331 71.3106 76.0673 71.3106C76.967 71.3106 77.8512 71.2427 78.7146 71.1121C79.578 70.9815 80.4206 70.7856 81.2398 70.5349C82.0589 70.2816 82.8495 69.9709 83.6141 69.6079C84.376 69.2449 85.1094 68.827 85.8089 68.3622L94.4844 77.0741C94.4116 77.1943 94.3621 77.3222 94.3309 77.4554C94.2997 77.5886 94.2945 77.7244 94.3101 77.8602C94.3257 77.996 94.3621 78.1266 94.4194 78.2519C94.4792 78.3773 94.5598 78.4922 94.6612 78.5966C94.721 78.6567 94.786 78.7089 94.8562 78.756C94.9239 78.8003 94.9967 78.8395 95.0721 78.8682C95.1475 78.8996 95.2229 78.9205 95.3009 78.9361C95.379 78.9518 95.457 78.9596 95.5376 78.9596C95.6182 78.9596 95.6962 78.9518 95.7742 78.9361C95.8523 78.9205 95.9303 78.8996 96.0031 78.8682C96.0785 78.8369 96.1487 78.8003 96.2189 78.756C96.2865 78.7116 96.3516 78.6567 96.4114 78.5966L101.342 73.6452C101.462 73.5251 101.553 73.3841 101.612 73.2352C101.672 73.0864 101.704 72.9271 101.704 72.7678C101.704 72.6085 101.672 72.4492 101.612 72.3003C101.553 72.1515 101.462 72.0104 101.342 71.8903L101.337 71.8799ZM60.8748 53.5732C60.8748 51.471 61.3013 49.4654 62.0711 47.6425C62.8408 45.8197 63.9539 44.1745 65.3296 42.793C66.7053 41.4115 68.341 40.2938 70.1588 39.5208C71.9766 38.7478 73.9712 38.3195 76.0647 38.3195C78.1581 38.3195 80.1553 38.7478 81.9705 39.5208C83.7857 40.2938 85.424 41.4115 86.7997 42.793C88.1754 44.1745 89.2885 45.8171 90.0582 47.6425C90.828 49.468 91.2545 51.471 91.2545 53.5732C91.2545 55.6755 90.828 57.6811 90.0582 59.504C89.2885 61.3294 88.1754 62.972 86.7997 64.3535C85.424 65.735 83.7883 66.8527 81.9705 67.6257C80.1553 68.3987 78.1581 68.827 76.0647 68.827C73.9712 68.827 71.974 68.3987 70.1588 67.6257C68.341 66.8527 66.7053 65.735 65.3296 64.3535C63.9539 62.972 62.8408 61.3294 62.0711 59.504C61.3013 57.6811 60.8748 55.6755 60.8748 53.5732ZM89.2625 65.3381L97.683 73.7993L96.1955 75.2931L87.7801 66.8423C87.9102 66.7248 88.0402 66.6073 88.1676 66.4845C88.2951 66.3644 88.4199 66.2416 88.5447 66.1163C88.6695 65.9909 88.7918 65.8656 88.9114 65.7376C89.031 65.6097 89.1506 65.4791 89.2651 65.3485L89.2625 65.3381Z" fill="black"/>
<path d="M19.3459 51.4336H3.65226C3.33672 51.4336 3.03683 51.499 2.76301 51.6141C2.48919 51.7292 2.24406 51.8992 2.03544 52.1059C1.82942 52.3125 1.65991 52.561 1.54517 52.8357C1.43043 53.1104 1.36523 53.4112 1.36523 53.7277V67.49C1.36523 67.8065 1.43043 68.1073 1.54517 68.382C1.65991 68.6567 1.82942 68.9026 2.03544 69.1118C2.24145 69.3185 2.48919 69.4885 2.76301 69.6036C3.03683 69.7187 3.33672 69.7841 3.65226 69.7841H19.3459C19.6615 69.7841 19.9614 69.7187 20.2352 69.6036C20.509 69.4885 20.7541 69.3185 20.9628 69.1118C21.1688 68.9052 21.3383 68.6567 21.453 68.382C21.5678 68.1073 21.633 67.8065 21.633 67.49V53.7277C21.633 53.4112 21.5678 53.1104 21.453 52.8357C21.3383 52.561 21.1688 52.3152 20.9628 52.1059C20.7567 51.8992 20.509 51.7292 20.2352 51.6141C19.9614 51.499 19.6615 51.4336 19.3459 51.4336ZM19.1529 67.2964H3.84524V53.9187H19.1503V67.2964H19.1529Z" stroke="black" stroke-width="2" stroke-miterlimit="10"/>
<path d="M44.2187 30.3301H28.5256C28.21 30.3301 27.9101 30.3939 27.6362 30.5063C27.3624 30.6187 27.1172 30.7847 26.9086 30.9865C26.7025 31.1883 26.533 31.4309 26.4182 31.6991C26.3035 31.9673 26.2383 32.261 26.2383 32.57V67.5437C26.2383 67.8528 26.3035 68.1465 26.4182 68.4147C26.533 68.6829 26.7025 68.9229 26.9086 69.1273C27.1146 69.329 27.3624 69.4951 27.6362 69.6075C27.9101 69.7198 28.21 69.7837 28.5256 69.7837H44.2187C44.5343 69.7837 44.8342 69.7198 45.108 69.6075C45.3819 69.4951 45.6271 69.329 45.8357 69.1273C46.0418 68.9255 46.2113 68.6829 46.326 68.4147C46.4408 68.1465 46.506 67.8528 46.506 67.5437V32.57C46.506 32.261 46.4408 31.9673 46.326 31.6991C46.2113 31.4309 46.0418 31.1908 45.8357 30.9865C45.6297 30.7847 45.3819 30.6187 45.108 30.5063C44.8342 30.3939 44.5343 30.3301 44.2187 30.3301ZM44.0257 67.3522H28.7186V32.7591H44.0257V67.3547V67.3522Z" stroke="black" stroke-width="2" stroke-miterlimit="10"/>
<path d="M61.2497 67.3158H53.5959V4.35197H68.9036V32.4445C68.9036 32.6156 68.9375 32.7763 69.0001 32.924C69.0627 33.0718 69.1539 33.204 69.2661 33.3155C69.3782 33.4269 69.5112 33.5177 69.6599 33.5799C69.8085 33.6421 69.9702 33.6758 70.1423 33.6758C70.3144 33.6758 70.4761 33.6421 70.6247 33.5799C70.7734 33.5177 70.9064 33.4269 71.0185 33.3155C71.1307 33.204 71.2219 33.0718 71.2845 32.924C71.3471 32.7763 71.381 32.6156 71.381 32.4445V4.16015C71.381 3.84648 71.3158 3.54837 71.2011 3.27618C71.0863 3.00399 70.9168 2.76032 70.7108 2.55293C70.5048 2.34814 70.257 2.17965 69.9832 2.06559C69.7094 1.95153 69.4095 1.88672 69.094 1.88672H53.4003C53.0848 1.88672 52.7849 1.95153 52.5111 2.06559C52.2372 2.17965 51.9921 2.34814 51.7835 2.55293C51.5775 2.75772 51.408 3.00399 51.2932 3.27618C51.1785 3.54837 51.1133 3.84648 51.1133 4.16015V67.5102C51.1133 67.8239 51.1785 68.122 51.2932 68.3942C51.408 68.6664 51.5775 68.91 51.7835 69.1174C51.9895 69.3248 52.2372 69.4907 52.5111 69.6048C52.7849 69.7188 53.0848 69.7836 53.4003 69.7836H61.2471C61.4193 69.7836 61.5809 69.7499 61.7296 69.6877C61.8782 69.6255 62.0112 69.5348 62.1234 69.4233C62.2355 69.3118 62.3268 69.1796 62.3894 69.0319C62.4519 68.8841 62.4858 68.7234 62.4858 68.5523C62.4858 68.3812 62.4519 68.2205 62.3894 68.0727C62.3268 67.925 62.2355 67.7928 62.1234 67.6813C62.0112 67.5698 61.8782 67.4791 61.7296 67.4169C61.5809 67.3547 61.4193 67.321 61.2471 67.321L61.2497 67.3158Z" stroke="black" stroke-width="2" stroke-miterlimit="10"/>
<path d="M87.931 51.7034C87.652 50.3361 87.1378 49.0591 86.4375 47.9192C85.7373 46.7765 84.8484 45.7681 83.8227 44.9296C82.797 44.091 81.629 43.4224 80.3708 42.9648C79.1126 42.5072 77.7614 42.2578 76.3637 42.2578C76.1832 42.2578 76.0136 42.2934 75.8577 42.3592C75.7018 42.425 75.5623 42.5209 75.4447 42.6387C75.327 42.7565 75.2313 42.8963 75.1657 43.0525C75.1 43.2087 75.0645 43.3786 75.0645 43.5594C75.0645 43.7403 75.1 43.9102 75.1657 44.0664C75.2313 44.2226 75.327 44.3623 75.4447 44.4802C75.5623 44.598 75.7018 44.6939 75.8577 44.7597C76.0136 44.8254 76.1859 44.861 76.3637 44.861C77.4523 44.861 78.5054 45.0556 79.4873 45.4118C80.4693 45.7681 81.3801 46.2887 82.1788 46.9436C82.9802 47.5986 83.6722 48.385 84.2165 49.2756C84.7636 50.1662 85.1629 51.1609 85.3817 52.2268C85.4146 52.3803 85.472 52.5228 85.5486 52.6488C85.6279 52.7749 85.7236 52.8872 85.8385 52.9777C85.9534 53.0681 86.0792 53.1421 86.2187 53.1914C86.3555 53.2407 86.5032 53.2681 86.6564 53.2681C86.6782 53.2681 86.7001 53.2681 86.722 53.2681C86.7439 53.2681 86.7658 53.2681 86.7876 53.2626C86.8095 53.2626 86.8314 53.2572 86.8533 53.2544C86.8752 53.2517 86.8971 53.2462 86.9189 53.2435C87.094 53.2078 87.2554 53.1366 87.3949 53.0407C87.5344 52.9448 87.652 52.8242 87.745 52.6845C87.8352 52.5447 87.9009 52.3885 87.9364 52.2241C87.9693 52.0569 87.972 51.8816 87.9364 51.7062L87.931 51.7034Z" stroke="black" stroke-width="2" stroke-miterlimit="10"/>
<path d="M101.337 71.8799C101.217 71.7597 101.077 71.6683 100.929 71.6083C100.78 71.5482 100.622 71.5169 100.463 71.5169C100.304 71.5169 100.146 71.5482 99.9975 71.6083C99.8493 71.6683 99.7089 71.7597 99.5893 71.8799L99.4332 72.0366L90.789 63.3559C91.2519 62.6534 91.668 61.917 92.0321 61.1518C92.3935 60.3867 92.703 59.5901 92.9552 58.7675C93.2075 57.9449 93.3999 57.0988 93.53 56.2318C93.66 55.3647 93.7276 54.4768 93.7276 53.5732C93.7276 51.1289 93.2335 48.7968 92.3389 46.6763C91.4443 44.5557 90.1493 42.6441 88.5499 41.038C86.9506 39.432 85.047 38.1314 82.9353 37.2331C80.8237 36.3347 78.504 35.8359 76.0673 35.8359C73.6305 35.8359 71.3108 36.3321 69.1992 37.2331C67.0875 38.1314 65.1839 39.432 63.5846 41.038C61.9853 42.6441 60.6902 44.5557 59.7956 46.6763C58.901 48.7968 58.4043 51.1289 58.4043 53.5732C58.4043 56.0176 58.8984 58.3497 59.7956 60.4702C60.6902 62.5908 61.9853 64.5024 63.5846 66.1085C65.1839 67.7145 67.0875 69.015 69.1992 69.9134C71.3108 70.8118 73.6331 71.3106 76.0673 71.3106C76.967 71.3106 77.8512 71.2427 78.7146 71.1121C79.578 70.9815 80.4206 70.7856 81.2398 70.5349C82.0589 70.2816 82.8495 69.9709 83.6141 69.6079C84.376 69.2449 85.1094 68.827 85.8089 68.3622L94.4844 77.0741C94.4116 77.1943 94.3621 77.3222 94.3309 77.4554C94.2997 77.5886 94.2945 77.7244 94.3101 77.8602C94.3257 77.996 94.3621 78.1266 94.4194 78.2519C94.4792 78.3773 94.5598 78.4922 94.6612 78.5966C94.721 78.6567 94.786 78.7089 94.8562 78.756C94.9239 78.8003 94.9967 78.8395 95.0721 78.8682C95.1475 78.8996 95.2229 78.9205 95.3009 78.9361C95.379 78.9518 95.457 78.9596 95.5376 78.9596C95.6182 78.9596 95.6962 78.9518 95.7742 78.9361C95.8523 78.9205 95.9303 78.8996 96.0031 78.8682C96.0785 78.8369 96.1487 78.8003 96.2189 78.756C96.2865 78.7116 96.3516 78.6567 96.4114 78.5966L101.342 73.6452C101.462 73.5251 101.553 73.3841 101.612 73.2352C101.672 73.0864 101.704 72.9271 101.704 72.7678C101.704 72.6085 101.672 72.4492 101.612 72.3003C101.553 72.1515 101.462 72.0104 101.342 71.8903L101.337 71.8799ZM60.8748 53.5732C60.8748 51.471 61.3013 49.4654 62.0711 47.6425C62.8408 45.8197 63.9539 44.1745 65.3296 42.793C66.7053 41.4115 68.341 40.2938 70.1588 39.5208C71.9766 38.7478 73.9712 38.3195 76.0647 38.3195C78.1581 38.3195 80.1553 38.7478 81.9705 39.5208C83.7857 40.2938 85.424 41.4115 86.7997 42.793C88.1754 44.1745 89.2885 45.8171 90.0582 47.6425C90.828 49.468 91.2545 51.471 91.2545 53.5732C91.2545 55.6755 90.828 57.6811 90.0582 59.504C89.2885 61.3294 88.1754 62.972 86.7997 64.3535C85.424 65.735 83.7883 66.8527 81.9705 67.6257C80.1553 68.3987 78.1581 68.827 76.0647 68.827C73.9712 68.827 71.974 68.3987 70.1588 67.6257C68.341 66.8527 66.7053 65.735 65.3296 64.3535C63.9539 62.972 62.8408 61.3294 62.0711 59.504C61.3013 57.6811 60.8748 55.6755 60.8748 53.5732ZM89.2625 65.3381L97.683 73.7993L96.1955 75.2931L87.7801 66.8423C87.9102 66.7248 88.0402 66.6073 88.1676 66.4845C88.2951 66.3644 88.4199 66.2416 88.5447 66.1163C88.6695 65.9909 88.7918 65.8656 88.9114 65.7376C89.031 65.6097 89.1506 65.4791 89.2651 65.3485L89.2625 65.3381Z" stroke="black" stroke-width="2" stroke-miterlimit="10"/>
</svg>
