<svg width="81" height="100" viewBox="0 0 81 100" fill="none" xmlns="http://www.w3.org/2000/svg">
<g clip-path="url(#clip0_2021_154)">
<path d="M61.1926 46.7111H19.8082C19.3599 46.7111 18.9844 46.3496 18.9844 45.8918V30.7593C18.9844 30.4219 19.1903 30.1207 19.5053 30.0002L33.7282 24.446C34.0189 24.3255 34.3581 24.3978 34.5883 24.6147L40.2823 30.0484L46.4124 24.5906C46.6426 24.3858 46.9697 24.3255 47.2605 24.434L61.4954 29.9882C61.8104 30.1087 62.0164 30.4099 62.0164 30.7472V45.8798C62.0164 46.3255 61.6529 46.699 61.1926 46.699V46.7111ZM20.632 45.0846H60.3809V31.3135L47.1393 26.1448L40.8154 31.7713C40.5004 32.0605 40.0158 32.0484 39.7008 31.7472L33.8372 26.1448L20.632 31.3135V45.0846Z" fill="black" stroke="black" stroke-width="0.75" stroke-miterlimit="10"/>
<path d="M54.2269 46.6755H26.7867C26.3385 46.6755 25.9629 46.3141 25.9629 45.8562V36.3622C25.9629 35.9165 26.3263 35.543 26.7867 35.543C27.2471 35.543 27.6105 35.9044 27.6105 36.3622V45.0369H53.4152V36.3622C53.4152 35.9165 53.7786 35.543 54.239 35.543C54.6994 35.543 55.0628 35.9044 55.0628 36.3622V45.8562C55.0628 46.302 54.6994 46.6755 54.239 46.6755H54.2269Z" fill="black" stroke="black" stroke-width="0.75" stroke-miterlimit="10"/>
<path d="M47.3456 33.2767H33.6558C33.2076 33.2767 32.832 32.9152 32.832 32.4574V25.1923C32.832 24.7465 33.1955 24.373 33.6558 24.373C34.1162 24.373 34.4797 24.7345 34.4797 25.1923V31.6381H46.5339V25.1923C46.5339 24.7465 46.8974 24.373 47.3578 24.373C47.8181 24.373 48.1816 24.7345 48.1816 25.1923V32.4574C48.1816 32.9032 47.8181 33.2767 47.3578 33.2767H47.3456Z" fill="black" stroke="black" stroke-width="0.75" stroke-miterlimit="10"/>
<path d="M42.5601 38.0239H38.441C37.9927 38.0239 37.6172 37.6624 37.6172 37.2046V32.4697C37.6172 32.0239 37.9806 31.6504 38.441 31.6504H42.5601C43.0083 31.6504 43.3839 32.0118 43.3839 32.4697V37.2046C43.3839 37.6504 43.0204 38.0239 42.5601 38.0239ZM39.2648 36.3853H41.7362V33.2769H39.2648V36.3853Z" fill="black" stroke="black" stroke-width="0.75" stroke-miterlimit="10"/>
<path d="M44.2442 46.7101H36.3332C36.0788 46.7101 35.8486 46.6016 35.6911 46.3968C35.5336 46.204 35.4852 45.939 35.5336 45.698L37.6416 37.0113C37.7264 36.6498 38.0656 36.3848 38.4412 36.3848H42.5602C42.9479 36.3848 43.2871 36.6619 43.3598 37.0474L45.0438 45.7342C45.0922 45.9751 45.0317 46.2161 44.8742 46.4089C44.7167 46.6016 44.4865 46.7101 44.2442 46.7101ZM37.3751 45.0836H43.2508L41.8818 38.0233H39.0833L37.363 45.0836H37.3751Z" fill="black" stroke="black" stroke-width="0.75" stroke-miterlimit="10"/>
<path d="M40.6824 22.4811C34.5765 22.4811 29.6094 17.5414 29.6094 11.4691C29.6094 5.39679 34.5765 0.457031 40.6824 0.457031C46.7883 0.457031 51.7675 5.39679 51.7675 11.4691C51.7675 17.5414 46.7883 22.4811 40.6824 22.4811ZM40.6824 2.08354C35.473 2.08354 31.2449 6.28836 31.2449 11.4691C31.2449 16.6498 35.473 20.8546 40.6824 20.8546C45.8918 20.8546 50.132 16.6498 50.132 11.4691C50.132 6.28836 45.8918 2.08354 40.6824 2.08354Z" fill="black" stroke="black" stroke-width="0.75" stroke-miterlimit="10"/>
<path d="M48.4721 9.94042C45.71 9.94042 43.1416 9.13319 41.2396 7.67536C40.8761 7.39825 40.8155 6.89222 41.0942 6.53078C41.3728 6.16933 41.8817 6.10909 42.2451 6.3862C44.3046 7.96451 47.5272 8.65126 50.4953 8.13319C50.9436 8.0609 51.3676 8.35006 51.4403 8.79584C51.513 9.24162 51.2222 9.66331 50.774 9.7356C50.0228 9.86813 49.2475 9.92837 48.4721 9.92837V9.94042Z" fill="black" stroke="black" stroke-width="0.75" stroke-miterlimit="10"/>
<path d="M35.2793 9.74614C33.6438 9.74614 32.0931 9.46903 30.6756 8.92686C30.2516 8.77024 30.0457 8.28831 30.2032 7.87867C30.3728 7.45698 30.8331 7.25217 31.2572 7.40879C32.4808 7.87867 33.8376 8.11963 35.2672 8.11963C39.8708 8.11963 43.6022 5.56542 43.6022 2.42084C43.6022 1.97506 43.9656 1.60156 44.426 1.60156C44.8864 1.60156 45.2498 1.96301 45.2498 2.42084C45.2498 6.45698 40.7794 9.74614 35.2793 9.74614Z" fill="black" stroke="black" stroke-width="0.75" stroke-miterlimit="10"/>
<path d="M79.7289 99.5414C79.2807 99.5414 78.9051 99.1799 78.9051 98.7221V94.9148C78.9051 91.9389 76.47 89.5293 73.4776 89.5293H64.4642C61.4718 89.5293 59.0367 91.951 59.0367 94.9148V98.7221C59.0367 99.1679 58.6733 99.5414 58.2129 99.5414C57.7525 99.5414 57.3891 99.1799 57.3891 98.7221V94.9148C57.3891 91.0474 60.5632 87.9028 64.4521 87.9028H73.4655C77.3665 87.9028 80.5285 91.0474 80.5285 94.9148V98.7221C80.5285 99.1679 80.165 99.5414 79.7047 99.5414H79.7289ZM50.1565 99.5414C49.7083 99.5414 49.3327 99.1799 49.3327 98.7221V94.9148C49.3327 91.9389 46.8976 89.5293 43.9053 89.5293H34.8918C31.8994 89.5293 29.4643 91.951 29.4643 94.9148V98.7221C29.4643 99.1679 29.1009 99.5414 28.6405 99.5414C28.1801 99.5414 27.8167 99.1799 27.8167 98.7221V94.9148C27.8167 91.0474 30.9908 87.9028 34.8797 87.9028H43.8931C47.782 87.9028 50.9561 91.0474 50.9561 94.9148V98.7221C50.9561 99.1679 50.5927 99.5414 50.1323 99.5414H50.1565ZM22.789 99.5414C22.3408 99.5414 21.9652 99.1799 21.9652 98.7221V94.9148C21.9652 91.9389 19.5301 89.5293 16.5378 89.5293H7.5243C4.53193 89.5293 2.09684 91.951 2.09684 94.9148V98.7221C2.09684 99.1679 1.73339 99.5414 1.27303 99.5414C0.812665 99.5414 0.449219 99.1799 0.449219 98.7221V94.9148C0.449219 91.0474 3.62331 87.9028 7.51219 87.9028H16.5256C20.4266 87.9028 23.5886 91.0474 23.5886 94.9148V98.7221C23.5886 99.1679 23.2252 99.5414 22.7648 99.5414H22.789ZM68.8134 86.8064C65.1305 86.8064 62.126 83.8185 62.126 80.1558C62.126 76.4932 65.1305 73.5293 68.8134 73.5293C72.4963 73.5293 75.5008 76.5052 75.5008 80.1558C75.5008 83.8064 72.5084 86.8064 68.8134 86.8064ZM63.7857 80.5775C64.0038 83.1438 66.1724 85.1799 68.8134 85.1799C71.5998 85.1799 73.8532 82.9269 73.8532 80.1558C73.8532 79.963 73.8532 79.7823 73.8169 79.5895C72.3994 79.71 70.9093 79.3606 69.6978 78.6136C68.1834 80.1919 65.918 80.9389 63.7736 80.5775H63.7857ZM63.919 78.9389C64.234 78.9992 64.549 79.0353 64.8761 79.0353C66.4752 79.0353 67.9533 78.3004 68.9224 77.0233C69.0557 76.8426 69.2617 76.7341 69.4797 76.71C69.6978 76.6859 69.9159 76.7462 70.0976 76.8907C71.0062 77.6257 72.2177 78.0112 73.3686 77.9992C72.5569 76.3245 70.8245 75.1679 68.8255 75.1679C66.4631 75.1679 64.4763 76.7823 63.9311 78.963L63.919 78.9389ZM39.241 86.8064C35.5581 86.8064 32.5536 83.8185 32.5536 80.1558C32.5536 76.4932 35.5581 73.5293 39.241 73.5293C42.9239 73.5293 45.9284 76.5052 45.9284 80.1558C45.9284 83.8064 42.9239 86.8064 39.241 86.8064ZM34.2134 80.5775C34.4314 83.1438 36.6 85.1799 39.241 85.1799C42.0274 85.1799 44.2808 82.9269 44.2808 80.1558C44.2808 79.963 44.2808 79.7823 44.2445 79.5895C42.8513 79.71 41.3369 79.3606 40.1254 78.6136C38.6232 80.1799 36.3092 80.9269 34.2012 80.5775H34.2134ZM34.3466 78.9389C34.6616 78.9992 34.9766 79.0353 35.3158 79.0353C36.8907 79.0353 38.4051 78.2883 39.3501 77.0233C39.4833 76.8426 39.6893 76.7341 39.9073 76.698C40.1254 76.6739 40.3556 76.7341 40.5252 76.8787C41.4338 77.6136 42.6453 78.0112 43.7962 77.9871C42.9845 76.3124 41.2521 75.1558 39.2531 75.1558C36.8907 75.1558 34.9039 76.7703 34.3587 78.951L34.3466 78.9389ZM11.8735 86.8064C8.19062 86.8064 5.18613 83.8185 5.18613 80.1558C5.18613 76.4932 8.1785 73.5293 11.8735 73.5293C15.5686 73.5293 18.5609 76.5052 18.5609 80.1558C18.5609 83.8064 15.5686 86.8064 11.8735 86.8064ZM6.83375 80.5775C7.05182 83.1438 9.22038 85.1799 11.8614 85.1799C14.6478 85.1799 16.9133 82.9269 16.9133 80.1558C16.9133 79.963 16.9133 79.7823 16.877 79.5895C15.4717 79.71 13.9815 79.3727 12.7579 78.6136C11.5101 79.9269 9.78978 80.6618 7.92409 80.6618C7.54853 80.6618 7.18509 80.6377 6.82164 80.5775H6.83375ZM6.96702 78.9389C7.282 78.9992 7.59699 79.0353 7.93621 79.0353C9.53537 79.0353 11.0134 78.3004 11.9705 77.0233C12.1037 76.8426 12.2976 76.7341 12.5277 76.698C12.7458 76.6739 12.976 76.7341 13.1456 76.8666C14.0784 77.6136 15.2415 77.9992 16.4166 77.9751C15.6049 76.3004 13.8725 75.1438 11.8735 75.1438C9.51114 75.1438 7.5243 76.7582 6.97913 78.9389H6.96702Z" fill="black" stroke="black" stroke-width="0.75" stroke-miterlimit="10"/>
<path d="M69.176 71.9639C68.7277 71.9639 68.3522 71.6025 68.3522 71.1447V59.9519L12.6359 59.3374V70.8917C12.6359 71.3374 12.2725 71.7109 11.8121 71.7109C11.3517 71.7109 10.9883 71.3495 10.9883 70.8917V58.5182C10.9883 58.3013 11.0731 58.0965 11.2306 57.9399C11.3881 57.7832 11.6061 57.723 11.8121 57.7109L69.1639 58.3495C69.6121 58.3495 69.9756 58.723 69.9756 59.1688V71.1688C69.9756 71.6145 69.6121 71.988 69.1518 71.988L69.176 71.9639Z" fill="black" stroke="black" stroke-width="0.75" stroke-miterlimit="10"/>
<path d="M40.2828 65.6385C39.8345 65.6385 39.459 65.2771 39.459 64.8193V45.8915C39.459 45.4458 39.8224 45.0723 40.2828 45.0723C40.7432 45.0723 41.1066 45.4337 41.1066 45.8915V64.8193C41.1066 65.265 40.7432 65.6385 40.2828 65.6385Z" fill="black" stroke="black" stroke-width="0.75" stroke-miterlimit="10"/>
</g>
<defs>
<clipPath id="clip0_2021_154">
<rect width="81" height="100" fill="white"/>
</clipPath>
</defs>
</svg>
