<svg width="83" height="94" viewBox="0 0 83 94" fill="none" xmlns="http://www.w3.org/2000/svg">
<g clip-path="url(#clip0_2021_127)">
<path d="M80.6621 46.264L66.1813 54.1942V47.9238C66.1813 46.567 64.9252 45.6712 63.8435 46.264L49.3627 54.1942V47.9238C49.3627 46.5143 48.0018 45.6185 46.9201 46.3298L32.544 55.7881V35.0273C32.544 33.8154 31.5205 32.9196 30.4853 33.2489L25.2862 34.8824C24.7279 27.5318 23.3205 8.9182 22.7738 1.68616C22.704 0.737694 21.9945 0 21.1571 0H11.3869C10.5378 0 9.83997 0.737694 9.77018 1.68616C9.72365 2.2526 6.86239 40.1253 6.81586 40.6918L1.18638 42.457C0.476878 42.6809 0 43.4054 0 44.2353V92.1591C0 93.1734 0.732763 94.0033 1.62836 94.0033H81.3716C82.2672 94.0033 83 93.1734 83 92.1591V47.9238C83 46.567 81.7438 45.6712 80.6621 46.264ZM46.1176 51.1249V57.145C46.1176 58.5018 47.3737 59.3976 48.4554 58.8048L62.9362 50.8746V57.145C62.9362 58.5018 64.1924 59.3976 65.2741 58.8048L79.7549 50.8746V81.1069H32.5556V60.0431L46.1176 51.1249ZM11.7707 18.4292H20.7849L21.064 22.1177H11.4916L11.7707 18.4292ZM19.6683 3.68847L20.5057 14.7539H12.0499L12.8873 3.68847H19.6683ZM11.2124 25.8061H21.3432L22.1108 35.8836L10.1773 39.6379L11.2241 25.8061H11.2124ZM3.25673 45.6448C6.53672 44.6173 26.2864 38.3996 29.2989 37.4512V90.328H24.4138V71.8989C24.4138 70.8845 23.6811 70.0546 22.7855 70.0546H9.77018C8.87458 70.0546 8.14182 70.8845 8.14182 71.8989V90.328H3.25673V45.6448ZM11.3869 90.3149V73.7299H21.1571V90.3149H11.3869ZM79.7433 90.3149H32.5556V84.7822H79.7549V90.3149H79.7433Z" fill="black"/>
<path d="M39.0581 77.4175H73.2304C74.126 77.4175 74.8588 76.5876 74.8588 75.5732V66.352C74.8588 65.3377 74.126 64.5078 73.2304 64.5078H39.0581C38.1625 64.5078 37.4297 65.3377 37.4297 66.352V75.5732C37.4297 76.5876 38.1625 77.4175 39.0581 77.4175ZM71.6137 73.729H66.3215V68.1963H71.6137V73.729ZM63.0648 73.729H57.7726V68.1963H63.0648V73.729ZM54.5159 73.729H49.2237V68.1963H54.5159V73.729ZM40.6864 68.1963H45.9786V73.729H40.6864V68.1963Z" fill="black"/>
<path d="M13.0151 66.3525H19.5285C20.4241 66.3525 21.1569 65.5226 21.1569 64.5083C21.1569 63.494 20.4241 62.6641 19.5285 62.6641H13.0151C12.1195 62.6641 11.3867 63.494 11.3867 64.5083C11.3867 65.5226 12.1195 66.3525 13.0151 66.3525Z" fill="black"/>
<path d="M13.0151 58.9893H19.5285C20.4241 58.9893 21.1569 58.1593 21.1569 57.145C21.1569 56.1307 20.4241 55.3008 19.5285 55.3008H13.0151C12.1195 55.3008 11.3867 56.1307 11.3867 57.145C11.3867 58.1593 12.1195 58.9893 13.0151 58.9893Z" fill="black"/>
<path d="M13.0151 51.6123H19.5285C20.4241 51.6123 21.1569 50.7824 21.1569 49.7681C21.1569 48.7537 20.4241 47.9238 19.5285 47.9238H13.0151C12.1195 47.9238 11.3867 48.7537 11.3867 49.7681C11.3867 50.7824 12.1195 51.6123 13.0151 51.6123Z" fill="black"/>
</g>
<defs>
<clipPath id="clip0_2021_127">
<rect width="83" height="94.0033" fill="white"/>
</clipPath>
</defs>
</svg>
