<svg width="77" height="64" viewBox="0 0 77 64" fill="none" xmlns="http://www.w3.org/2000/svg">
<g clip-path="url(#clip0_2040_106)">
<path d="M55.6878 43.8523C55.868 43.8523 56.05 43.8416 56.2321 43.822C58.4324 43.5739 60.2081 41.8 60.4544 39.6032C60.6275 38.0542 60.0671 36.5658 58.9179 35.5201C58.9179 35.5201 58.9179 35.5129 58.9179 35.4986C58.9179 35.4701 58.9428 35.4469 58.9732 35.4469H69.9965C70.5926 35.4469 71.0762 34.9633 71.0762 34.3672V13.0949C71.0762 8.48885 67.3179 4.74121 62.6976 4.74121H41.3576C40.7616 4.74121 40.278 5.22484 40.278 5.82089V16.8104C40.278 18.0293 41.272 19.0215 42.4944 19.0215C43.1154 19.0215 43.7043 18.7663 44.1112 18.3202C44.6198 17.7634 45.314 17.4564 46.0653 17.4564C46.8166 17.4564 47.5412 17.7794 48.0444 18.3416C48.5495 18.9073 48.7815 19.639 48.694 20.4028C48.5584 21.6056 47.5804 22.5746 46.3723 22.7103C45.5139 22.8048 44.6912 22.4979 44.113 21.8679C43.7026 21.42 43.1136 21.1648 42.4926 21.1648C41.2702 21.1648 40.2762 22.157 40.2762 23.3759V34.3654C40.2762 34.9615 40.7598 35.4451 41.3558 35.4451H52.381C52.4113 35.4451 52.4363 35.4683 52.4363 35.4969C52.4363 35.5111 52.4327 35.5218 52.4309 35.5236C51.4405 36.4213 50.8658 37.7115 50.8658 39.0571C50.8658 40.4027 51.4494 41.7197 52.4666 42.6299C53.3518 43.4205 54.4992 43.8523 55.6824 43.8523H55.6878ZM68.9168 33.2858H58.9714C57.749 33.2858 56.7567 34.278 56.7567 35.4969C56.7567 36.1179 57.0155 36.7068 57.4652 37.1173C58.0969 37.6919 58.4039 38.511 58.3093 39.3623C58.1755 40.5651 57.2011 41.5377 55.9929 41.6733C55.222 41.7608 54.4832 41.527 53.9121 41.0184C53.3535 40.5187 53.0323 39.8049 53.0323 39.0571C53.0323 38.3094 53.3393 37.6187 53.8961 37.1137C54.344 36.7068 54.601 36.1179 54.601 35.4969C54.601 34.278 53.607 33.2858 52.3863 33.2858H42.4409V23.3759C42.4409 23.3474 42.4658 23.3242 42.4962 23.3242C42.514 23.3242 42.5247 23.3295 42.5265 23.3313C43.5705 24.4734 45.0606 25.0302 46.6132 24.8589C48.8154 24.6144 50.5946 22.8441 50.8426 20.6491C50.9961 19.2874 50.5643 17.9222 49.6577 16.9068C48.7458 15.886 47.4377 15.3006 46.0671 15.3006C44.6966 15.3006 43.4277 15.8717 42.5194 16.8657C42.523 16.8604 42.5122 16.8657 42.4962 16.8657C42.4658 16.8657 42.4409 16.8425 42.4409 16.814V6.90235H62.6976C66.1258 6.90235 68.9151 9.68096 68.9151 13.0967V33.2875L68.9168 33.2858Z" fill="black"/>
<path d="M24.3781 56.8875C24.779 56.8875 25.1622 56.6591 25.3493 56.2695L30.1428 46.2215C30.4012 45.6814 30.435 45.0724 30.2408 44.5051C30.0466 43.9378 29.6456 43.4811 29.1128 43.2201C28.555 42.9465 27.9135 42.9193 27.354 43.1476C26.6537 43.4322 25.8963 43.4068 25.2192 43.0751C24.542 42.7435 24.036 42.1327 23.8293 41.3987C23.6208 40.6574 23.733 39.8871 24.1429 39.2274C24.7897 38.1871 26.0941 37.7285 27.24 38.1399C28.0525 38.4299 28.6566 39.0733 28.9008 39.9034C29.0736 40.4943 29.4942 40.989 30.0519 41.2627C31.1496 41.801 32.4736 41.3334 33.0046 40.2188L37.7981 30.1708C37.9229 29.908 37.9407 29.6071 37.8463 29.3316C37.7518 29.0561 37.554 28.8314 37.2956 28.7045L27.3843 23.8455C27.3843 23.8455 27.3647 23.8364 27.3576 23.8146C27.3504 23.7947 27.3576 23.782 27.3593 23.7766C27.3665 23.7621 27.3736 23.7548 27.3772 23.753C28.6602 23.3688 29.7365 22.4427 30.3228 21.2138C30.9162 19.9687 30.9607 18.5188 30.4404 17.2392C29.92 15.956 28.8776 14.9556 27.5785 14.4916C25.4936 13.7485 23.1236 14.5877 21.9475 16.4853C21.1171 17.8246 20.971 19.4322 21.5483 20.8967C21.5466 20.893 21.5466 20.9039 21.5394 20.9166C21.527 20.9438 21.4913 20.9547 21.4646 20.942L11.5533 16.0829C11.0187 15.8201 10.3736 16.0485 10.1152 16.5922L0.838253 36.0394C-0.134705 38.0765 -0.266571 40.3783 0.46582 42.5169C1.19999 44.661 2.71289 46.3864 4.7283 47.3742L23.9095 56.7806C24.0609 56.8549 24.2195 56.8893 24.3763 56.8893L24.3781 56.8875ZM28.1559 45.183C28.1559 45.183 28.163 45.1866 28.1773 45.1938C28.1826 45.1975 28.1969 45.2029 28.204 45.2247C28.2111 45.2446 28.204 45.2573 28.2022 45.2627L23.8792 54.3266L5.66562 45.3968C4.17054 44.6646 3.04789 43.3851 2.50439 41.7956C1.96267 40.2115 2.06068 38.5079 2.7806 36.9981L11.5889 18.5351L20.5308 22.9193C21.6285 23.4576 22.9525 22.9882 23.4836 21.8754C23.7544 21.3081 23.7794 20.6538 23.5531 20.0811C23.2359 19.2782 23.3161 18.3937 23.774 17.6561C24.4209 16.6139 25.7217 16.1536 26.8675 16.5614C27.5981 16.8224 28.1595 17.3588 28.4499 18.0747C28.735 18.778 28.7119 19.5718 28.3858 20.2551C28.0597 20.9402 27.4805 21.435 26.7588 21.6524C26.1797 21.8264 25.6932 22.2505 25.4223 22.8178C25.164 23.3579 25.1301 23.9687 25.3243 24.5342C25.5186 25.1015 25.9195 25.5582 26.4523 25.8192L35.3889 30.2016L31.0676 39.26C31.0552 39.2872 31.0195 39.2981 30.9928 39.2854C30.9785 39.2781 30.9714 39.2709 30.9696 39.2673C30.5277 37.763 29.43 36.594 27.9599 36.0684C25.875 35.3216 23.5049 36.1553 22.3235 38.0511C21.5893 39.2292 21.3844 40.6683 21.7586 42.0004C22.1346 43.3343 23.0559 44.4471 24.2854 45.0507C25.4954 45.6433 26.9067 45.6923 28.1577 45.183H28.1559Z" fill="black"/>
<path d="M41.4659 64.0004H62.7276C67.3313 64.0004 71.0762 60.2394 71.0762 55.617V34.2709C71.0762 33.6727 70.5943 33.1873 70.0004 33.1873H59.0148C57.7967 33.1873 56.808 34.1831 56.808 35.4063C56.808 36.0295 57.0641 36.6206 57.5104 37.0289C58.0652 37.5357 58.371 38.2288 58.371 38.9792C58.371 39.7296 58.051 40.446 57.4944 40.9475C56.9254 41.4597 56.1892 41.6925 55.421 41.6047C54.2172 41.4686 53.2463 40.4926 53.113 39.2855C53.0187 38.4294 53.3246 37.6092 53.954 37.0307C54.4021 36.6206 54.6582 36.0278 54.6582 35.4063C54.6582 34.1831 53.6678 33.1855 52.4497 33.1855H41.4641C40.8702 33.1855 40.3883 33.6709 40.3883 34.2691V45.2976C40.3883 45.3263 40.3634 45.3496 40.3332 45.3496C40.3154 45.3496 40.3047 45.346 40.3011 45.3442C39.4049 44.3538 38.1158 43.7807 36.7732 43.7807C35.4307 43.7807 34.1042 44.3681 33.1955 45.3926C32.2904 46.4134 31.8601 47.7817 32.0148 49.1481C32.262 51.351 34.0348 53.1294 36.2291 53.373C37.7761 53.5449 39.2591 52.9861 40.3047 51.8363C40.3047 51.8363 40.3154 51.8328 40.3314 51.8328C40.3616 51.8328 40.3865 51.856 40.3865 51.8847V62.9133C40.3865 63.5114 40.8684 63.9968 41.4623 63.9968L41.4659 64.0004ZM68.9228 35.3544V55.617C68.9228 59.0448 66.1435 61.8333 62.7276 61.8333H42.5417V51.8883C42.5417 50.6651 41.5512 49.6693 40.3349 49.6693C39.7179 49.6693 39.1293 49.9272 38.7203 50.3749C38.1442 51.0089 37.3245 51.317 36.4692 51.2203C35.2653 51.0859 34.2909 50.1117 34.1557 48.9064C34.0704 48.1416 34.2998 47.4074 34.803 46.8378C35.3044 46.2737 36.0228 45.9495 36.775 45.9495C37.5272 45.9495 38.2153 46.2576 38.7221 46.8163C39.1275 47.2641 39.7161 47.5202 40.3332 47.5202C41.5494 47.5202 42.5399 46.5244 42.5399 45.3012V35.3562H52.4497C52.4799 35.3562 52.5048 35.3794 52.5048 35.4081C52.5048 35.4224 52.5013 35.4314 52.4995 35.435C51.3579 36.4809 50.7995 37.9745 50.972 39.529C51.2156 41.7337 52.9849 43.5139 55.1792 43.7628C56.5449 43.9168 57.9105 43.4816 58.9276 42.5665C59.9412 41.6549 60.5227 40.3475 60.5227 38.981C60.5227 37.6145 59.9519 36.3376 58.9578 35.4278C58.9614 35.4314 58.9578 35.4224 58.9578 35.4081C58.9578 35.3794 58.9827 35.3562 59.013 35.3562H68.9228V35.3544Z" fill="black"/>
</g>
<defs>
<clipPath id="clip0_2040_106">
<rect width="77" height="64" fill="white" transform="matrix(-1 0 0 1 77 0)"/>
</clipPath>
</defs>
</svg>
