<svg width="58" height="103" viewBox="0 0 58 103" fill="none" xmlns="http://www.w3.org/2000/svg">
<mask id="path-1-inside-1_2193_3" fill="white">
<path d="M19.3158 103C19.1027 103 18.8877 102.957 18.682 102.868C17.9603 102.555 17.5713 101.76 17.7658 100.993L27.7017 61.9887H3.89778C3.03769 61.9887 2.33279 61.3066 2.29914 60.4441L0.00119967 1.67044C-0.0156282 1.23263 0.145171 0.807976 0.446203 0.492302C0.749104 0.178506 1.16606 0 1.60172 0H40.9845C41.4781 0 41.9456 0.22924 42.2485 0.621953C42.5514 1.01467 42.6579 1.52576 42.5345 2.00679L32.5986 41.0113H56.4025C56.9859 41.0113 57.5225 41.3308 57.8049 41.8438C58.0853 42.3567 58.0666 42.9843 57.7544 43.4804L20.6695 102.254C20.3685 102.731 19.8506 103.002 19.3177 103.002L19.3158 103ZM5.4366 58.7737H29.7641C30.2577 58.7737 30.7251 59.0029 31.028 59.3956C31.3309 59.7883 31.4375 60.2994 31.3141 60.7804L23.3695 91.9664L53.4913 44.2263H30.5344C30.0408 44.2263 29.5733 43.9971 29.2704 43.6044C28.9675 43.2117 28.861 42.7006 28.9844 42.2196L38.9221 3.21687H3.2658L5.43847 58.7737H5.4366Z"/>
</mask>
<path d="M19.3158 103C19.1027 103 18.8877 102.957 18.682 102.868C17.9603 102.555 17.5713 101.76 17.7658 100.993L27.7017 61.9887H3.89778C3.03769 61.9887 2.33279 61.3066 2.29914 60.4441L0.00119967 1.67044C-0.0156282 1.23263 0.145171 0.807976 0.446203 0.492302C0.749104 0.178506 1.16606 0 1.60172 0H40.9845C41.4781 0 41.9456 0.22924 42.2485 0.621953C42.5514 1.01467 42.6579 1.52576 42.5345 2.00679L32.5986 41.0113H56.4025C56.9859 41.0113 57.5225 41.3308 57.8049 41.8438C58.0853 42.3567 58.0666 42.9843 57.7544 43.4804L20.6695 102.254C20.3685 102.731 19.8506 103.002 19.3177 103.002L19.3158 103ZM5.4366 58.7737H29.7641C30.2577 58.7737 30.7251 59.0029 31.028 59.3956C31.3309 59.7883 31.4375 60.2994 31.3141 60.7804L23.3695 91.9664L53.4913 44.2263H30.5344C30.0408 44.2263 29.5733 43.9971 29.2704 43.6044C28.9675 43.2117 28.861 42.7006 28.9844 42.2196L38.9221 3.21687H3.2658L5.43847 58.7737H5.4366Z" fill="black" stroke="black" stroke-width="22" mask="url(#path-1-inside-1_2193_3)"/>
</svg>
