<svg width="66" height="62" viewBox="0 0 66 62" fill="none" xmlns="http://www.w3.org/2000/svg">
<g clip-path="url(#clip0_2049_529)">
<path d="M9.72719 51.4564C9.89144 52.5158 10.777 53.2653 11.8125 53.2653C11.9053 53.2653 11.9981 53.2653 12.091 53.2436C24.5026 51.6005 33.772 48.1845 40.4348 42.8082C43.7198 40.1561 46.3978 37.05 48.6259 33.2952C50.4255 30.2756 51.9181 26.8596 53.1607 22.8814L57.1241 23.4508C57.9025 23.5661 58.6666 23.2346 59.1308 22.6004C59.595 21.9662 59.6735 21.123 59.3307 20.4095L52.6608 6.42113C52.3751 5.82297 51.8181 5.39056 51.1754 5.26084C50.5469 5.12391 49.8685 5.30408 49.3686 5.73649L37.6569 15.9197C37.0499 16.4458 36.7928 17.289 36.9856 18.0745C37.1855 18.8673 37.8068 19.4654 38.5995 19.6312L42.113 20.3807C41.1347 25.4254 39.1423 29.9801 36.1572 33.9439C31.4082 40.2642 24.931 44.0262 20.332 46.0729C17.7112 47.2404 15.4117 47.9827 13.9477 48.4007C13.1265 48.6313 12.4766 48.7898 12.0767 48.8835C11.8696 48.9268 11.7053 48.97 11.5911 48.9844L11.484 49.006C10.3056 49.2222 9.54866 50.2889 9.72719 51.4419V51.4564ZM17.7183 49.806C18.8109 49.4168 20.0321 48.934 21.3318 48.3574C26.1951 46.1954 33.0579 42.2028 38.1282 35.4573C41.5846 30.8594 43.8127 25.5335 44.7553 19.6168C44.8624 18.9609 44.434 18.3412 43.7912 18.2042L39.7993 17.3538L50.6326 7.93456L56.8241 20.914L52.4679 20.287C52.4108 20.2798 52.3465 20.2726 52.2894 20.2726C51.7538 20.2726 51.2682 20.6257 51.1111 21.159C49.8685 25.375 48.3688 28.9279 46.5192 32.0269C44.4411 35.5221 41.9488 38.4121 38.8995 40.8768C33.6934 45.0783 26.7307 48.0259 17.7183 49.8132V49.806Z" fill="#7821C8"/>
<path d="M66 60.2704C66 59.3191 65.2359 58.5407 64.2861 58.5407H3.42783V1.72963C3.42783 0.778333 2.66371 0 1.71391 0C0.76412 0 0 0.778333 0 1.72963V60.2704C0 60.7244 0.185674 61.1712 0.499892 61.4955C0.821251 61.8198 1.26401 62 1.71391 62H64.2861C65.2359 62 66 61.2289 66 60.2704Z" fill="#7821C8"/>
</g>
<defs>
<clipPath id="clip0_2049_529">
<rect width="66" height="62" fill="white"/>
</clipPath>
</defs>
</svg>
