<svg width="38" height="73" viewBox="0 0 38 73" fill="none" xmlns="http://www.w3.org/2000/svg">
<g clip-path="url(#clip0_2046_447)">
<path d="M19.2742 0.110352C23.5085 0.110352 27.7427 0.110352 31.9741 0.110352C32.6532 0.110352 33.3123 0.208691 33.9515 0.442972C34.6362 0.691714 35.2468 1.07061 35.7947 1.55074C36.4937 2.16392 37.0187 2.90725 37.3897 3.76339C37.6864 4.45177 37.8462 5.16907 37.8633 5.92397C37.9204 8.37958 37.8719 10.8352 37.889 13.2908C37.8918 13.8201 37.889 14.3494 37.889 14.8787C37.8319 30.535 37.8776 46.1913 37.869 61.8475C37.869 62.5706 37.9004 63.2908 37.8833 64.0139C37.8605 64.9771 37.8833 65.9402 37.8547 66.9034C37.8062 68.4566 37.2527 69.8073 36.2141 70.9527C35.478 71.7625 34.5906 72.3207 33.552 72.6331C33.1497 72.7546 32.7331 72.824 32.3137 72.8587C31.8543 72.8992 31.3921 72.8905 30.9298 72.8905C22.8551 72.8905 14.7831 72.8905 6.70833 72.8905C6.08917 72.8905 5.47572 72.8356 4.88223 72.6389C3.79799 72.2802 2.89064 71.6555 2.14594 70.7791C1.47256 69.9866 1.00748 69.09 0.787774 68.0661C0.690763 67.6149 0.630844 67.1608 0.633697 66.6951C0.636551 66.0212 0.639404 65.3473 0.627991 64.6734C0.596605 62.6921 0.593751 60.7108 0.610871 58.7296C0.625137 57.2863 0.64511 55.8401 0.625137 54.3969C0.605164 53.0201 0.590898 51.6462 0.613724 50.2695C0.64511 48.213 0.633697 46.1565 0.625137 44.1001C0.622284 43.1919 0.596605 42.2837 0.613724 41.3784C0.65367 39.2265 0.625137 37.0717 0.630844 34.9198C0.630844 34.5206 0.602311 34.1215 0.610871 33.7252C0.613724 33.5257 0.608018 33.3261 0.627991 33.1265C0.647964 32.9501 0.630844 32.9327 0.473914 32.8604C0.405435 32.8286 0.342663 32.791 0.282744 32.7447C0.174319 32.658 0.1144 32.548 0.1144 32.4092C0.1144 32.3398 0.1144 32.2704 0.1144 32.2039C0.1144 25.9448 0.1144 19.6829 0.1144 13.4238C0.1144 13.0247 0.120107 12.6255 0.111547 12.2264C0.10584 11.9343 0.211412 11.7173 0.476767 11.5959C0.582338 11.5467 0.605164 11.4715 0.610871 11.3674C0.66223 10.1352 0.627991 8.90599 0.627991 7.67384C0.627991 6.91894 0.605164 6.16115 0.693616 5.40914C0.790628 4.58482 1.05884 3.81834 1.46971 3.10104C2.06034 2.07426 2.88208 1.29332 3.91212 0.743776C4.634 0.356201 5.41009 0.124813 6.23183 0.119029C8.40318 0.107459 10.5745 0.116136 12.7459 0.116136C14.9229 0.116136 17.1028 0.116136 19.2799 0.116136L19.2742 0.110352ZM36.5907 36.4035C36.5907 30.9197 36.5907 25.4387 36.5907 19.9548C36.5907 15.3386 36.5936 10.7224 36.5965 6.10619C36.5965 5.90084 36.6107 5.69259 36.5765 5.48723C36.4138 4.5154 36.0258 3.6448 35.3724 2.91304C34.4508 1.88625 33.2924 1.3772 31.9256 1.36274C31.4777 1.35695 31.0297 1.36274 30.5817 1.36274C23.0776 1.36274 15.5735 1.35695 8.06935 1.36274C7.42451 1.36274 6.78252 1.34249 6.13768 1.39455C5.48142 1.44662 4.87653 1.65197 4.30872 1.97302C3.82937 2.24201 3.42421 2.60934 3.06469 3.02584C2.57393 3.59274 2.21727 4.23484 2.04607 4.97528C1.95191 5.38021 1.91197 5.78803 1.91197 6.20164C1.91197 9.26174 1.91197 12.3247 1.91197 15.3848C1.91197 28.117 1.91197 40.852 1.91482 53.5841C1.91482 57.9602 1.91482 62.3335 1.91482 66.7096C1.91482 67.8636 2.26292 68.8991 2.97624 69.8044C3.54119 70.5217 4.25166 71.0308 5.09338 71.3576C5.61838 71.5601 6.16621 71.641 6.72831 71.641C9.86406 71.641 12.997 71.641 16.1327 71.641C21.2344 71.641 26.3361 71.641 31.4406 71.641C31.7259 71.641 32.0084 71.641 32.2937 71.6063C32.8159 71.5456 33.3209 71.4212 33.7974 71.1898C34.5307 70.837 35.127 70.3106 35.6149 69.6656C36.2569 68.8152 36.6022 67.8578 36.5993 66.7761C36.5936 63.9821 36.5965 61.191 36.5965 58.397C36.5965 51.0649 36.5965 43.7299 36.5965 36.3978L36.5907 36.4035Z" fill="#7821C8" stroke="#7821C8" stroke-width="0.75" stroke-miterlimit="10"/>
<path d="M2.88477 36.4003C2.88477 28.5851 2.88477 20.7729 2.88477 12.9578C2.88477 12.5731 2.89333 12.1855 2.92757 11.8037C2.97892 11.2137 3.25284 10.7278 3.7008 10.3547C4.20298 9.93815 4.78505 9.76172 5.4356 9.76172C9.96661 9.7704 14.5005 9.7675 19.0315 9.7675C23.7194 9.7675 28.4074 9.7675 33.0953 9.76461C33.606 9.76461 34.0797 9.87452 34.5077 10.1522C35.1268 10.5571 35.4921 11.124 35.5463 11.8789C35.5919 12.5442 35.5834 13.2123 35.5548 13.8775C35.552 13.973 35.5491 14.0713 35.5491 14.1668C35.5491 21.5683 35.5491 28.9698 35.5491 36.3713C35.5491 43.2493 35.5434 50.1273 35.5548 57.0053C35.5548 58.0495 35.572 59.0965 35.572 60.1407C35.572 60.4299 35.5548 60.7191 35.512 61.0026C35.3922 61.798 34.9414 62.3562 34.2652 62.7351C33.9171 62.9318 33.5376 63.0214 33.1353 63.033C31.5203 63.088 29.9053 63.0504 28.2932 63.0561C26.2588 63.0648 24.2216 63.0619 22.1872 63.0532C21.7478 63.0532 21.3055 63.0301 20.8661 63.0359C16.0641 63.0851 11.262 63.0561 6.45993 63.059C6.06047 63.059 5.66101 63.0417 5.26155 63.0301C4.52255 63.007 3.93477 62.6772 3.46398 62.119C3.12729 61.7199 2.94468 61.26 2.919 60.7278C2.90474 60.4472 2.89333 60.1638 2.89333 59.8832C2.89333 54.6221 2.89333 49.358 2.89047 44.0968C2.89047 41.5313 2.89047 38.9658 2.89047 36.4003H2.89333H2.88477ZM4.14877 36.3164C4.14877 44.2067 4.14877 52.097 4.14877 59.9845C4.14877 60.1696 4.14592 60.3576 4.15448 60.5427C4.16589 60.7481 4.18016 60.9592 4.29714 61.1356C4.51114 61.4538 4.79361 61.6736 5.1788 61.743C5.48981 61.798 5.80082 61.7806 6.11183 61.7806C13.168 61.7806 20.2242 61.7806 27.2775 61.7806C29.1492 61.7806 31.021 61.7806 32.8956 61.7806C33.0925 61.7806 33.2893 61.7662 33.4776 61.7054C33.9599 61.5463 34.2965 61.0893 34.3051 60.5745C34.3279 59.4465 34.2851 58.3185 34.3365 57.1905C34.3536 56.7769 34.3137 56.3661 34.3137 55.9525C34.3137 50.807 34.3137 45.6616 34.3137 40.5161C34.3137 31.6366 34.3137 22.7542 34.3165 13.8746C34.3165 13.2701 34.3393 12.6656 34.3165 12.0611C34.2994 11.5608 33.8029 11.0286 33.2865 11.0199C33.1238 11.0199 32.9612 11.0141 32.7986 11.0141C25.4856 11.0141 18.1726 11.017 10.8568 11.0199C9.07353 11.0199 7.28738 11.0199 5.50408 11.0199C5.34144 11.0199 5.1788 11.0286 5.01902 11.072C4.47975 11.2195 4.1345 11.6302 4.14306 12.1884C4.14306 12.2781 4.14306 12.3677 4.14306 12.4574C4.14306 20.4085 4.14306 28.3595 4.14306 36.3135L4.14877 36.3164Z" fill="#7821C8" stroke="#7821C8" stroke-width="0.5" stroke-miterlimit="10"/>
<path d="M19.1737 70.5412C17.4504 70.5238 15.9552 69.0834 15.961 67.241C15.9667 65.4217 17.3305 63.9032 19.168 63.8945C21.0854 63.8888 22.4864 65.3696 22.5007 67.2034C22.5121 68.9533 21.1967 70.5151 19.1766 70.5412H19.1737ZM19.2593 65.1701C18.1979 65.1209 17.1822 66.0378 17.185 67.2092C17.1907 68.3574 18.1837 69.2888 19.1795 69.2888C20.395 69.2888 21.2738 68.3198 21.2623 67.1629C21.2509 66.0696 20.3322 65.1354 19.2593 65.1701Z" fill="#7821C8" stroke="#7821C8" stroke-width="0.75" stroke-miterlimit="10"/>
<path d="M19.2993 5.74444C18.1124 5.74444 16.9254 5.74444 15.7384 5.74444C15.5016 5.74444 15.2676 5.78782 15.028 5.74444C14.6057 5.66634 14.3831 5.24117 14.5714 4.85359C14.6656 4.65691 14.8368 4.56147 15.0394 4.53254C15.2077 4.5094 15.3761 4.49494 15.5473 4.49784C17.399 4.52965 19.2508 4.52676 21.1026 4.52097C21.6305 4.52097 22.1612 4.49205 22.689 4.49784C22.8317 4.49784 22.9743 4.5094 23.1142 4.52965C23.4309 4.57593 23.6591 4.85359 23.6477 5.18043C23.6363 5.50148 23.4252 5.71841 23.0856 5.73865C22.9373 5.74733 22.786 5.74733 22.6377 5.74733C21.5249 5.74733 20.4121 5.74733 19.2993 5.74733V5.74444Z" fill="#7821C8" stroke="#7821C8" stroke-width="0.75" stroke-miterlimit="10"/>
</g>
<defs>
<clipPath id="clip0_2046_447">
<rect width="38" height="73" fill="white"/>
</clipPath>
</defs>
</svg>
