<svg width="89" height="83" viewBox="0 0 89 83" fill="none" xmlns="http://www.w3.org/2000/svg">
<path d="M20.8638 81C19.9668 81 19.0698 80.7151 18.3164 80.1632C17.0157 79.2106 16.3968 77.7061 16.6749 76.1393L20.4871 54.5153C20.6844 53.3847 20.2987 52.2363 19.4555 51.4351L3.29193 36.114C2.13482 35.019 1.71324 33.3988 2.19761 31.8943C2.69095 30.3631 4.01849 29.2681 5.65099 29.0366L27.9858 25.8852C29.1519 25.716 30.1655 25.0038 30.6857 23.9801L40.6781 4.30572C41.4047 2.88134 42.8668 2 44.4993 2C46.1318 2 47.5938 2.88134 48.3204 4.30572L58.3128 23.9801C58.833 25.0127 59.8466 25.7249 61.0127 25.8852L83.3475 29.0366C84.98 29.2681 86.2986 30.3631 86.8009 31.8943C87.2853 33.3988 86.8727 35.0101 85.7066 36.114L69.543 51.4351C68.6998 52.2363 68.3141 53.3847 68.5115 54.5153L72.3236 76.1393C72.6017 77.7061 71.9828 79.2106 70.6821 80.1632C69.3546 81.1335 67.6145 81.2671 66.1434 80.5193L46.1676 70.3082C45.1182 69.7741 43.8714 69.7741 42.8219 70.3082L22.8461 80.5193C22.2182 80.8398 21.5365 81 20.8638 81ZM44.4903 69.2399C45.172 69.2399 45.8537 69.4002 46.4726 69.7117L66.4484 79.9228C67.6862 80.5549 69.1573 80.4391 70.2785 79.6201C71.3728 78.8189 71.8841 77.5637 71.6599 76.255L67.8477 54.6311C67.6145 53.2868 68.0719 51.9069 69.0765 50.9544L85.2402 35.6333C86.2268 34.6986 86.5677 33.381 86.1551 32.0991C85.7425 30.8082 84.6212 29.8913 83.2489 29.6954L60.914 26.5439C59.5237 26.3481 58.3307 25.5024 57.7028 24.2738L47.7105 4.5995C47.0915 3.37987 45.8896 2.65878 44.4903 2.65878C43.091 2.65878 41.889 3.38878 41.2701 4.5995L31.2778 24.2738C30.6588 25.4935 29.4569 26.3481 28.0666 26.5439L5.73172 29.6954C4.35934 29.8913 3.23811 30.8082 2.8255 32.0991C2.41289 33.3721 2.75374 34.6986 3.74042 35.6333L19.904 50.9544C20.9086 51.9069 21.3661 53.2779 21.1329 54.6311L17.3207 76.255C17.0875 77.5637 17.6078 78.8278 18.7021 79.6201C19.8233 80.4391 21.2854 80.5549 22.5322 79.9228L42.508 69.7117C43.1269 69.3913 43.8086 69.2399 44.4903 69.2399Z" fill="#262626" stroke="black" stroke-width="4" stroke-miterlimit="10"/>
</svg>
