<svg width="105" height="105" viewBox="0 0 105 105" fill="none" xmlns="http://www.w3.org/2000/svg">
<g clip-path="url(#clip0_2029_2)">
<path d="M52.5002 8.83789C76.4163 8.83789 95.805 28.2104 95.805 52.1066C95.805 76.0029 76.4163 95.3754 52.5002 95.3754C28.584 95.3754 9.19531 76.0029 9.19531 52.1066C9.19531 28.2104 28.584 8.83789 52.5002 8.83789ZM52.5002 12.3939C30.5491 12.3939 12.7543 30.1739 12.7543 52.1066C12.7543 74.0394 30.5491 91.8194 52.5002 91.8194C74.4512 91.8194 92.246 74.0394 92.246 52.1066C92.246 30.1739 74.4512 12.3939 52.5002 12.3939Z" fill="black"/>
<path d="M52.4566 21.3496C69.4807 21.3496 83.2822 35.1396 83.2822 52.1496C83.2822 69.1596 69.4807 82.9496 52.4566 82.9496C35.4324 82.9496 21.6309 69.1596 21.6309 52.1496C21.6309 35.1396 35.4324 21.3496 52.4566 21.3496ZM52.4566 24.9039C37.3966 24.9039 25.1881 37.1022 25.1881 52.1496C25.1881 67.197 37.3966 79.3954 52.4566 79.3954C67.5165 79.3954 79.725 67.197 79.725 52.1496C79.725 37.1022 67.5165 24.9039 52.4566 24.9039Z" fill="black"/>
<path d="M52.4567 33.7754C62.6134 33.7754 70.8471 42.0021 70.8471 52.1504C70.8471 62.2986 62.6134 70.5254 52.4567 70.5254C42.3 70.5254 34.0664 62.2986 34.0664 52.1504C34.0664 42.0021 42.3 33.7754 52.4567 33.7754ZM52.4567 37.3323C44.266 37.3323 37.6262 43.9665 37.6262 52.1504C37.6262 60.3343 44.266 66.9685 52.4567 66.9685C60.6474 66.9685 67.2872 60.3343 67.2872 52.1504C67.2872 43.9665 60.6474 37.3323 52.4567 37.3323Z" fill="black"/>
<path d="M0 54.3375H44.5746V50.75H0V54.3375Z" fill="black"/>
<path d="M60.4258 54.3375H105V50.75H60.4258V54.3375Z" fill="black"/>
<path d="M54.2956 105V60.4629H50.7051V105H54.2956Z" fill="black"/>
<path d="M54.2956 44.5375V0H50.7051V44.5375H54.2956Z" fill="black"/>
</g>
<defs>
<clipPath id="clip0_2029_2">
<rect width="105" height="105" fill="white"/>
</clipPath>
</defs>
</svg>
