<svg width="40" height="40" viewBox="0 0 40 40" fill="none" xmlns="http://www.w3.org/2000/svg">
<g clip-path="url(#clip0_2015_23)">
<path d="M34.9494 0H5.05062C2.26124 0 0 2.26124 0 5.05062V34.9494C0 37.7388 2.26124 40 5.05062 40H34.9494C37.7388 40 40 37.7388 40 34.9494V5.05062C40 2.26124 37.7388 0 34.9494 0Z" fill="black"/>
<path d="M19.624 24.88C19.432 24.88 19.224 24.528 19 23.824C18.808 23.088 18.6 22.144 18.376 20.992C18.184 19.84 17.992 18.576 17.8 17.2C17.608 15.824 17.432 14.48 17.272 13.168C17.144 11.824 17.032 10.624 16.936 9.568C16.872 8.48 16.84 7.664 16.84 7.12C16.84 6.192 16.984 5.568 17.272 5.248C17.56 4.896 18.376 4.72 19.72 4.72C20.616 4.72 21.256 4.8 21.64 4.96C22.024 5.088 22.264 5.328 22.36 5.68C22.456 6.032 22.504 6.528 22.504 7.168C22.504 7.68 22.456 8.464 22.36 9.52C22.296 10.576 22.184 11.776 22.024 13.12C21.864 14.464 21.688 15.824 21.496 17.2C21.304 18.544 21.096 19.808 20.872 20.992C20.648 22.144 20.424 23.088 20.2 23.824C20.008 24.528 19.816 24.88 19.624 24.88ZM20.728 34.48C19.8 34.48 19.08 34.224 18.568 33.712C18.056 33.168 17.8 32.544 17.8 31.84C17.8 31.104 18.04 30.48 18.52 29.968C19.032 29.456 19.768 29.2 20.728 29.2C21.688 29.2 22.408 29.456 22.888 29.968C23.4 30.48 23.656 31.104 23.656 31.84C23.656 32.544 23.4 33.168 22.888 33.712C22.376 34.224 21.656 34.48 20.728 34.48Z" fill="white"/>
</g>
<defs>
<clipPath id="clip0_2015_23">
<rect width="40" height="40" fill="white"/>
</clipPath>
</defs>
</svg>
