<svg width="74" height="62" viewBox="0 0 74 62" fill="none" xmlns="http://www.w3.org/2000/svg">
<g clip-path="url(#clip0_2049_501)">
<path d="M73.045 61.6484H0.953866C0.620283 61.6484 0.351562 61.3797 0.351562 61.0462V0.954751C0.351562 0.621218 0.620283 0.352539 0.953866 0.352539H73.0543C73.3879 0.352539 73.6566 0.621218 73.6566 0.954751V61.0555C73.6566 61.389 73.3879 61.6577 73.0543 61.6577L73.045 61.6484ZM1.55617 60.444H72.452V1.55696H1.55617V60.4533V60.444Z" fill="#7821C8" stroke="#7821C8" stroke-width="0.75" stroke-miterlimit="10"/>
<path d="M73.0914 61.6478H43.1337C42.9299 61.6478 42.7446 61.5366 42.6426 61.3606L42.4202 60.9622C42.2813 60.7213 42.3461 60.4156 42.5592 60.2395L46.9051 56.7745C46.6086 55.9314 46.3862 55.0883 46.2287 54.236L40.7338 53.4114C40.4558 53.3743 40.252 53.1334 40.252 52.8555V50.1965C40.252 49.9186 40.4558 49.6777 40.7338 49.6406L46.2287 48.816C46.3769 47.9729 46.6086 47.1206 46.9051 46.2868L42.5592 42.8217C42.3369 42.6457 42.2813 42.34 42.4202 42.0991L43.9584 39.4401C44.0974 39.1992 44.394 39.0973 44.6534 39.1992L49.824 41.2282C50.3799 40.5704 51.0008 39.9496 51.6772 39.3752L49.6386 34.1962C49.5367 33.9368 49.6386 33.6403 49.8796 33.5013L52.539 31.9726C52.7799 31.8337 53.0857 31.8893 53.2617 32.1116L56.7273 36.4661C57.5334 36.1789 58.3767 35.9472 59.257 35.7897L60.0909 30.2865C60.128 30.0085 60.3689 29.8047 60.6469 29.8047H63.714C63.992 29.8047 64.2329 30.0085 64.27 30.2865L65.0947 35.7897C65.975 35.9565 66.8182 36.1789 67.6244 36.4661L71.0899 32.1116C71.266 31.8893 71.5718 31.8337 71.8127 31.9726L73.3787 32.8713C73.5547 32.9732 73.6659 33.1585 73.6659 33.3624V36.7903C73.6659 36.8645 73.6567 36.9293 73.6289 36.9942L72.6837 39.3752C72.9802 39.6346 73.2489 39.8755 73.4991 40.1071C73.6103 40.2183 73.6659 40.3573 73.6659 40.5148V61.0641C73.6659 61.3791 73.4157 61.6293 73.1007 61.6293L73.0914 61.6478ZM44.014 60.5175H72.5169V40.7742C72.2575 40.5333 71.9609 40.2739 71.6274 39.996C71.442 39.8385 71.3679 39.579 71.4606 39.3567L72.5169 36.6884V33.6959L71.6552 33.2049L68.2452 37.4945C68.0877 37.689 67.8282 37.7631 67.5966 37.6705C66.6236 37.2906 65.5858 37.0127 64.4924 36.8367C64.2515 36.7996 64.0569 36.605 64.0198 36.3642L63.2044 30.9443H61.1102L60.2948 36.3642C60.2577 36.605 60.0724 36.7996 59.8222 36.8367C58.7381 37.0127 57.691 37.2906 56.7273 37.6705C56.4956 37.7631 56.2362 37.689 56.0787 37.4945L52.6594 33.2049L50.8432 34.2518L52.854 39.3567C52.9467 39.5883 52.8725 39.8477 52.6872 40.0052C51.844 40.7001 51.0749 41.4598 50.417 42.2751C50.2595 42.4697 50 42.5345 49.7684 42.4419L44.6627 40.4407L43.6156 42.2566L47.8966 45.6753C48.0912 45.8235 48.156 46.0922 48.0726 46.3146C47.6835 47.3429 47.4055 48.3806 47.2479 49.4183C47.2109 49.6591 47.0163 49.8537 46.7754 49.8908L41.3546 50.6968V52.383L46.7754 53.1983C47.0163 53.2354 47.2109 53.4299 47.2479 53.6708C47.4055 54.6992 47.6835 55.7461 48.0726 56.7745C48.156 57.0061 48.0912 57.2655 47.8966 57.4138L43.9955 60.5267L44.014 60.5175Z" fill="#7821C8" stroke="#7821C8" stroke-width="0.75" stroke-miterlimit="10"/>
<path d="M73.045 13.7308H0.953866C0.620283 13.7308 0.351562 13.4621 0.351562 13.1286C0.351562 12.795 0.620283 12.5264 0.953866 12.5264H73.0543C73.3879 12.5264 73.6566 12.795 73.6566 13.1286C73.6566 13.4621 73.3879 13.7308 73.0543 13.7308H73.045Z" fill="#7821C8" stroke="#7821C8" stroke-width="0.75" stroke-miterlimit="10"/>
<path d="M8.22826 9.56166C6.7642 9.56166 5.57812 8.37576 5.57812 6.91193C5.57812 5.44809 6.7642 4.25293 8.22826 4.25293C9.69232 4.25293 10.8877 5.44809 10.8877 6.91193C10.8877 8.37576 9.69232 9.56166 8.22826 9.56166ZM8.22826 5.45735C7.43137 5.45735 6.78273 6.10589 6.78273 6.91193C6.78273 7.71796 7.43137 8.35723 8.22826 8.35723C9.02516 8.35723 9.68306 7.7087 9.68306 6.91193C9.68306 6.11515 9.03442 5.45735 8.22826 5.45735Z" fill="#7821C8" stroke="#7821C8" stroke-width="0.75" stroke-miterlimit="10"/>
<path d="M17.1247 9.56166C15.6607 9.56166 14.4746 8.37576 14.4746 6.91193C14.4746 5.44809 15.6607 4.25293 17.1247 4.25293C18.5888 4.25293 19.7749 5.44809 19.7749 6.91193C19.7749 8.37576 18.5795 9.56166 17.1247 9.56166ZM17.1247 5.45735C16.3093 5.45735 15.6792 6.09662 15.6792 6.91193C15.6792 7.72723 16.3279 8.35723 17.1247 8.35723C17.9216 8.35723 18.5703 7.7087 18.5703 6.91193C18.5703 6.11515 17.9216 5.45735 17.1247 5.45735Z" fill="#7821C8" stroke="#7821C8" stroke-width="0.75" stroke-miterlimit="10"/>
<path d="M73.0449 7.51399H32.9871C32.6535 7.51399 32.3848 7.24531 32.3848 6.91178C32.3848 6.57825 32.6535 6.30957 32.9871 6.30957H73.0449C73.3785 6.30957 73.6472 6.57825 73.6472 6.91178C73.6472 7.24531 73.3785 7.51399 73.0449 7.51399Z" fill="#7821C8" stroke="#7821C8" stroke-width="0.75" stroke-miterlimit="10"/>
<path d="M41.0409 26.4417H9.38746C9.05388 26.4417 8.78516 26.173 8.78516 25.8395C8.78516 25.506 9.05388 25.2373 9.38746 25.2373H41.0409C41.3744 25.2373 41.6432 25.506 41.6432 25.8395C41.6432 26.173 41.3744 26.4417 41.0409 26.4417Z" fill="#7821C8" stroke="#7821C8" stroke-width="0.75" stroke-miterlimit="10"/>
<path d="M20.9054 30.2308H9.38746C9.05388 30.2308 8.78516 29.9621 8.78516 29.6286C8.78516 29.295 9.05388 29.0264 9.38746 29.0264H20.9054C21.239 29.0264 21.5077 29.295 21.5077 29.6286C21.5077 29.9621 21.239 30.2308 20.9054 30.2308Z" fill="#7821C8" stroke="#7821C8" stroke-width="0.75" stroke-miterlimit="10"/>
<path d="M34.7584 34.0199H9.38746C9.05388 34.0199 8.78516 33.7512 8.78516 33.4176C8.78516 33.0841 9.05388 32.8154 9.38746 32.8154H34.7584C35.0919 32.8154 35.3607 33.0841 35.3607 33.4176C35.3607 33.7512 35.0919 34.0199 34.7584 34.0199Z" fill="#7821C8" stroke="#7821C8" stroke-width="0.75" stroke-miterlimit="10"/>
<path d="M27.9662 37.8099H9.38746C9.05388 37.8099 8.78516 37.5412 8.78516 37.2077C8.78516 36.8741 9.05388 36.6055 9.38746 36.6055H27.9662C28.2998 36.6055 28.5685 36.8741 28.5685 37.2077C28.5685 37.5412 28.2998 37.8099 27.9662 37.8099Z" fill="#7821C8" stroke="#7821C8" stroke-width="0.75" stroke-miterlimit="10"/>
<path d="M34.6286 41.599H9.38746C9.05388 41.599 8.78516 41.3303 8.78516 40.9967C8.78516 40.6632 9.05388 40.3945 9.38746 40.3945H34.6286C34.9622 40.3945 35.2309 40.6632 35.2309 40.9967C35.2309 41.3303 34.9622 41.599 34.6286 41.599Z" fill="#7821C8" stroke="#7821C8" stroke-width="0.75" stroke-miterlimit="10"/>
</g>
<defs>
<clipPath id="clip0_2049_501">
<rect width="74" height="62" fill="white"/>
</clipPath>
</defs>
</svg>
